<mxfile host="Electron" modified="2024-11-25T21:59:19.373Z" agent="Mozilla/5.0 (Macintosh; Intel Mac OS X 10_15_7) AppleWebKit/537.36 (KHTML, like Gecko) draw.io/21.2.8 Chrome/112.0.5615.165 Electron/24.2.0 Safari/537.36" etag="byPq_IDTJ1uH3t91leKk" version="21.2.8" type="device" pages="3">
  <diagram name="1x" id="uFjs57e3jOekW_dEIfcn">
    <mxGraphModel dx="1021" dy="2014" grid="1" gridSize="5" guides="1" tooltips="1" connect="1" arrows="1" fold="1" page="0" pageScale="1" pageWidth="2336" pageHeight="1654" math="0" shadow="0">
      <root>
        <mxCell id="Ekgx-9tqe5oH1XvIg5s0-0" />
        <mxCell id="Ekgx-9tqe5oH1XvIg5s0-1" parent="Ekgx-9tqe5oH1XvIg5s0-0" />
        <mxCell id="GtGg8OWwIk_APVO-yhgV-0" value="shared account" style="sketch=0;outlineConnect=0;gradientColor=none;fontSize=16;fontStyle=0;shape=mxgraph.aws4.group;grIcon=mxgraph.aws4.group_aws_cloud;strokeColor=#AAB7B8;fillColor=none;verticalAlign=top;align=left;spacingLeft=30;fontColor=#AAB7B8;dashed=0;fontFamily=Rubik;fontSource=https%3A%2F%2Ffonts.googleapis.com%2Fcss%3Ffamily%3DRubik;" parent="Ekgx-9tqe5oH1XvIg5s0-1" vertex="1">
          <mxGeometry x="880" y="-320" width="1100" height="520" as="geometry" />
        </mxCell>
        <mxCell id="GtGg8OWwIk_APVO-yhgV-2" value="" style="endArrow=none;dashed=1;strokeWidth=2;rounded=0;fontFamily=Rubik;fontSize=14;fontColor=#FFFFFF;strokeColor=#5C5C5C;fontSource=https%3A%2F%2Ffonts.googleapis.com%2Fcss%3Ffamily%3DRubik;" parent="Ekgx-9tqe5oH1XvIg5s0-1" edge="1">
          <mxGeometry width="50" height="50" relative="1" as="geometry">
            <mxPoint x="900" as="sourcePoint" />
            <mxPoint x="1960" as="targetPoint" />
          </mxGeometry>
        </mxCell>
        <mxCell id="GtGg8OWwIk_APVO-yhgV-3" value="" style="group;fontFamily=Rubik;fontSource=https%3A%2F%2Ffonts.googleapis.com%2Fcss%3Ffamily%3DRubik;" parent="Ekgx-9tqe5oH1XvIg5s0-1" vertex="1" connectable="0">
          <mxGeometry x="1350" y="20" width="160" height="160" as="geometry" />
        </mxCell>
        <mxCell id="GtGg8OWwIk_APVO-yhgV-4" value="Account Resources" style="fontFamily=Rubik;fontSize=16;fontColor=#ffffff;strokeColor=#5C5C5C;strokeWidth=2;fillColor=#5C5C5C;fontSource=https%3A%2F%2Ffonts.googleapis.com%2Fcss%3Ffamily%3DRubik;" parent="GtGg8OWwIk_APVO-yhgV-3" vertex="1">
          <mxGeometry width="160" height="40" as="geometry" />
        </mxCell>
        <mxCell id="GtGg8OWwIk_APVO-yhgV-5" value="shared between envs" style="fontFamily=Rubik;fontSize=14;fontColor=#F8E7F5;strokeColor=#5C5C5C;strokeWidth=2;fillColor=#333333;spacingBottom=1;fontStyle=2;fontSource=https%3A%2F%2Ffonts.googleapis.com%2Fcss%3Ffamily%3DRubik;" parent="GtGg8OWwIk_APVO-yhgV-3" vertex="1">
          <mxGeometry y="80" width="160" height="40" as="geometry" />
        </mxCell>
        <mxCell id="GtGg8OWwIk_APVO-yhgV-6" value="" style="sketch=0;points=[[0,0,0],[0.25,0,0],[0.5,0,0],[0.75,0,0],[1,0,0],[0,1,0],[0.25,1,0],[0.5,1,0],[0.75,1,0],[1,1,0],[0,0.25,0],[0,0.5,0],[0,0.75,0],[1,0.25,0],[1,0.5,0],[1,0.75,0]];outlineConnect=0;fontColor=#232F3E;gradientColor=#945DF2;gradientDirection=north;fillColor=#5A30B5;strokeColor=#ffffff;dashed=0;verticalLabelPosition=bottom;verticalAlign=top;align=center;fontSize=12;fontStyle=0;aspect=fixed;shape=mxgraph.aws4.resourceIcon;resIcon=mxgraph.aws4.vpc;fontFamily=Rubik;fontSource=https%3A%2F%2Ffonts.googleapis.com%2Fcss%3Ffamily%3DRubik;" parent="GtGg8OWwIk_APVO-yhgV-3" vertex="1">
          <mxGeometry y="120" width="40" height="40" as="geometry" />
        </mxCell>
        <mxCell id="GtGg8OWwIk_APVO-yhgV-7" value="" style="sketch=0;points=[[0,0,0],[0.25,0,0],[0.5,0,0],[0.75,0,0],[1,0,0],[0,1,0],[0.25,1,0],[0.5,1,0],[0.75,1,0],[1,1,0],[0,0.25,0],[0,0.5,0],[0,0.75,0],[1,0.25,0],[1,0.5,0],[1,0.75,0]];outlineConnect=0;fontColor=#232F3E;gradientColor=#945DF2;gradientDirection=north;fillColor=#5A30B5;strokeColor=#ffffff;dashed=0;verticalLabelPosition=bottom;verticalAlign=top;align=center;fontSize=12;fontStyle=0;aspect=fixed;shape=mxgraph.aws4.resourceIcon;resIcon=mxgraph.aws4.direct_connect;fontFamily=Rubik;fontSource=https%3A%2F%2Ffonts.googleapis.com%2Fcss%3Ffamily%3DRubik;" parent="GtGg8OWwIk_APVO-yhgV-3" vertex="1">
          <mxGeometry x="80" y="120" width="40" height="40" as="geometry" />
        </mxCell>
        <mxCell id="GtGg8OWwIk_APVO-yhgV-8" value="" style="sketch=0;points=[[0,0,0],[0.25,0,0],[0.5,0,0],[0.75,0,0],[1,0,0],[0,1,0],[0.25,1,0],[0.5,1,0],[0.75,1,0],[1,1,0],[0,0.25,0],[0,0.5,0],[0,0.75,0],[1,0.25,0],[1,0.5,0],[1,0.75,0]];outlineConnect=0;fontColor=#232F3E;gradientColor=#945DF2;gradientDirection=north;fillColor=#5A30B5;strokeColor=#ffffff;dashed=0;verticalLabelPosition=bottom;verticalAlign=top;align=center;fontSize=12;fontStyle=0;aspect=fixed;shape=mxgraph.aws4.resourceIcon;resIcon=mxgraph.aws4.route_53;fontFamily=Rubik;fontSource=https%3A%2F%2Ffonts.googleapis.com%2Fcss%3Ffamily%3DRubik;" parent="GtGg8OWwIk_APVO-yhgV-3" vertex="1">
          <mxGeometry x="40" y="120" width="40" height="40" as="geometry" />
        </mxCell>
        <mxCell id="GtGg8OWwIk_APVO-yhgV-9" value="" style="sketch=0;points=[[0,0,0],[0.25,0,0],[0.5,0,0],[0.75,0,0],[1,0,0],[0,1,0],[0.25,1,0],[0.5,1,0],[0.75,1,0],[1,1,0],[0,0.25,0],[0,0.5,0],[0,0.75,0],[1,0.25,0],[1,0.5,0],[1,0.75,0]];points=[[0,0,0],[0.25,0,0],[0.5,0,0],[0.75,0,0],[1,0,0],[0,1,0],[0.25,1,0],[0.5,1,0],[0.75,1,0],[1,1,0],[0,0.25,0],[0,0.5,0],[0,0.75,0],[1,0.25,0],[1,0.5,0],[1,0.75,0]];outlineConnect=0;fontColor=#232F3E;gradientColor=#F34482;gradientDirection=north;fillColor=#BC1356;strokeColor=#ffffff;dashed=0;verticalLabelPosition=bottom;verticalAlign=top;align=center;fontSize=12;fontStyle=0;aspect=fixed;shape=mxgraph.aws4.resourceIcon;resIcon=mxgraph.aws4.chatbot;fontFamily=Rubik;fontSource=https%3A%2F%2Ffonts.googleapis.com%2Fcss%3Ffamily%3DRubik;" parent="GtGg8OWwIk_APVO-yhgV-3" vertex="1">
          <mxGeometry x="120" y="120" width="40" height="40" as="geometry" />
        </mxCell>
        <mxCell id="GtGg8OWwIk_APVO-yhgV-10" value="" style="outlineConnect=0;gradientColor=none;fontSize=16;fontStyle=0;strokeColor=#5C5C5C;fillColor=none;verticalAlign=top;align=center;fontColor=#90A6C2;spacingTop=3;fontFamily=Rubik;strokeWidth=2;fontSource=https%3A%2F%2Ffonts.googleapis.com%2Fcss%3Ffamily%3DRubik;" parent="GtGg8OWwIk_APVO-yhgV-3" vertex="1">
          <mxGeometry y="120" width="160" height="40" as="geometry" />
        </mxCell>
        <mxCell id="GtGg8OWwIk_APVO-yhgV-11" value="own deploy lifecycle" style="fontFamily=Rubik;fontSize=14;fontColor=#F8E7F5;strokeColor=#5C5C5C;strokeWidth=2;fillColor=#333333;spacingBottom=1;fontStyle=2;fontSource=https%3A%2F%2Ffonts.googleapis.com%2Fcss%3Ffamily%3DRubik;" parent="GtGg8OWwIk_APVO-yhgV-3" vertex="1">
          <mxGeometry y="40" width="160" height="40" as="geometry" />
        </mxCell>
        <mxCell id="GtGg8OWwIk_APVO-yhgV-27" value="" style="group;fontFamily=Rubik;fontSource=https%3A%2F%2Ffonts.googleapis.com%2Fcss%3Ffamily%3DRubik;" parent="Ekgx-9tqe5oH1XvIg5s0-1" vertex="1" connectable="0">
          <mxGeometry x="1080" y="-260" width="160" height="240" as="geometry" />
        </mxCell>
        <mxCell id="GtGg8OWwIk_APVO-yhgV-28" value="feature" style="fontFamily=Rubik;fontSize=22;fontColor=#ffffff;strokeColor=#6A00FF;strokeWidth=2;fillColor=#6a00ff;spacingTop=8;fontSource=https%3A%2F%2Ffonts.googleapis.com%2Fcss%3Ffamily%3DRubik;" parent="GtGg8OWwIk_APVO-yhgV-27" vertex="1">
          <mxGeometry width="160" height="40" as="geometry" />
        </mxCell>
        <mxCell id="GtGg8OWwIk_APVO-yhgV-29" value="environment(s)" style="fontFamily=Rubik;fontSize=16;fontColor=#ffffff;strokeColor=#6A00FF;strokeWidth=2;fillColor=#6a00ff;spacingBottom=16;textOpacity=50;fontSource=https%3A%2F%2Ffonts.googleapis.com%2Fcss%3Ffamily%3DRubik;" parent="GtGg8OWwIk_APVO-yhgV-27" vertex="1">
          <mxGeometry y="40" width="160" height="40" as="geometry" />
        </mxCell>
        <mxCell id="GtGg8OWwIk_APVO-yhgV-30" value="short-lived" style="fontFamily=Rubik;fontSize=16;fontColor=#FFFFFF;strokeColor=#6A00FF;strokeWidth=2;fillColor=#1C0042;spacingBottom=1;fontStyle=2;fontSource=https%3A%2F%2Ffonts.googleapis.com%2Fcss%3Ffamily%3DRubik;" parent="GtGg8OWwIk_APVO-yhgV-27" vertex="1">
          <mxGeometry y="120" width="160" height="40" as="geometry" />
        </mxCell>
        <mxCell id="GtGg8OWwIk_APVO-yhgV-31" value="OPTIONAL" style="fontFamily=Rubik;fontSize=16;fontColor=#FFFFFF;strokeColor=#6A00FF;strokeWidth=2;fillColor=#1C0042;spacingBottom=1;fontStyle=2;textOpacity=50;fontSource=https%3A%2F%2Ffonts.googleapis.com%2Fcss%3Ffamily%3DRubik;" parent="GtGg8OWwIk_APVO-yhgV-27" vertex="1">
          <mxGeometry y="80" width="160" height="40" as="geometry" />
        </mxCell>
        <mxCell id="GtGg8OWwIk_APVO-yhgV-32" value="" style="group;fontFamily=Rubik;fontSource=https%3A%2F%2Ffonts.googleapis.com%2Fcss%3Ffamily%3DRubik;" parent="GtGg8OWwIk_APVO-yhgV-27" vertex="1" connectable="0">
          <mxGeometry y="160" width="160" height="80" as="geometry" />
        </mxCell>
        <mxCell id="GtGg8OWwIk_APVO-yhgV-33" value="" style="sketch=0;points=[[0,0,0],[0.25,0,0],[0.5,0,0],[0.75,0,0],[1,0,0],[0,1,0],[0.25,1,0],[0.5,1,0],[0.75,1,0],[1,1,0],[0,0.25,0],[0,0.5,0],[0,0.75,0],[1,0.25,0],[1,0.5,0],[1,0.75,0]];outlineConnect=0;fontColor=#232F3E;gradientColor=#F78E04;gradientDirection=north;fillColor=#D05C17;strokeColor=#ffffff;dashed=0;verticalLabelPosition=bottom;verticalAlign=top;align=center;fontSize=12;fontStyle=0;aspect=fixed;shape=mxgraph.aws4.resourceIcon;resIcon=mxgraph.aws4.lambda;fontFamily=Rubik;fontSource=https%3A%2F%2Ffonts.googleapis.com%2Fcss%3Ffamily%3DRubik;" parent="GtGg8OWwIk_APVO-yhgV-32" vertex="1">
          <mxGeometry width="40" height="40" as="geometry" />
        </mxCell>
        <mxCell id="GtGg8OWwIk_APVO-yhgV-34" value="" style="sketch=0;points=[[0,0,0],[0.25,0,0],[0.5,0,0],[0.75,0,0],[1,0,0],[0,1,0],[0.25,1,0],[0.5,1,0],[0.75,1,0],[1,1,0],[0,0.25,0],[0,0.5,0],[0,0.75,0],[1,0.25,0],[1,0.5,0],[1,0.75,0]];outlineConnect=0;fontColor=#232F3E;gradientColor=#945DF2;gradientDirection=north;fillColor=#5A30B5;strokeColor=#ffffff;dashed=0;verticalLabelPosition=bottom;verticalAlign=top;align=center;fontSize=12;fontStyle=0;aspect=fixed;shape=mxgraph.aws4.resourceIcon;resIcon=mxgraph.aws4.api_gateway;fontFamily=Rubik;fontSource=https%3A%2F%2Ffonts.googleapis.com%2Fcss%3Ffamily%3DRubik;" parent="GtGg8OWwIk_APVO-yhgV-32" vertex="1">
          <mxGeometry x="80" width="40" height="40" as="geometry" />
        </mxCell>
        <mxCell id="GtGg8OWwIk_APVO-yhgV-35" value="" style="sketch=0;points=[[0,0,0],[0.25,0,0],[0.5,0,0],[0.75,0,0],[1,0,0],[0,1,0],[0.25,1,0],[0.5,1,0],[0.75,1,0],[1,1,0],[0,0.25,0],[0,0.5,0],[0,0.75,0],[1,0.25,0],[1,0.5,0],[1,0.75,0]];outlineConnect=0;fontColor=#232F3E;gradientColor=#FF4F8B;gradientDirection=north;fillColor=#BC1356;strokeColor=#ffffff;dashed=0;verticalLabelPosition=bottom;verticalAlign=top;align=center;fontSize=12;fontStyle=0;aspect=fixed;shape=mxgraph.aws4.resourceIcon;resIcon=mxgraph.aws4.eventbridge;fontFamily=Rubik;fontSource=https%3A%2F%2Ffonts.googleapis.com%2Fcss%3Ffamily%3DRubik;" parent="GtGg8OWwIk_APVO-yhgV-32" vertex="1">
          <mxGeometry x="40" width="40" height="40" as="geometry" />
        </mxCell>
        <mxCell id="GtGg8OWwIk_APVO-yhgV-36" value="" style="sketch=0;points=[[0,0,0],[0.25,0,0],[0.5,0,0],[0.75,0,0],[1,0,0],[0,1,0],[0.25,1,0],[0.5,1,0],[0.75,1,0],[1,1,0],[0,0.25,0],[0,0.5,0],[0,0.75,0],[1,0.25,0],[1,0.5,0],[1,0.75,0]];outlineConnect=0;fontColor=#232F3E;gradientColor=#60A337;gradientDirection=north;fillColor=#277116;strokeColor=#ffffff;dashed=0;verticalLabelPosition=bottom;verticalAlign=top;align=center;fontSize=12;fontStyle=0;aspect=fixed;shape=mxgraph.aws4.resourceIcon;resIcon=mxgraph.aws4.s3;fontFamily=Rubik;fontSource=https%3A%2F%2Ffonts.googleapis.com%2Fcss%3Ffamily%3DRubik;" parent="GtGg8OWwIk_APVO-yhgV-32" vertex="1">
          <mxGeometry x="40" y="40" width="40" height="40" as="geometry" />
        </mxCell>
        <mxCell id="GtGg8OWwIk_APVO-yhgV-37" value="" style="sketch=0;points=[[0,0,0],[0.25,0,0],[0.5,0,0],[0.75,0,0],[1,0,0],[0,1,0],[0.25,1,0],[0.5,1,0],[0.75,1,0],[1,1,0],[0,0.25,0],[0,0.5,0],[0,0.75,0],[1,0.25,0],[1,0.5,0],[1,0.75,0]];outlineConnect=0;fontColor=#232F3E;gradientColor=#F78E04;gradientDirection=north;fillColor=#D05C17;strokeColor=#ffffff;dashed=0;verticalLabelPosition=bottom;verticalAlign=top;align=center;fontSize=12;fontStyle=0;aspect=fixed;shape=mxgraph.aws4.resourceIcon;resIcon=mxgraph.aws4.fargate;fontFamily=Rubik;fontSource=https%3A%2F%2Ffonts.googleapis.com%2Fcss%3Ffamily%3DRubik;" parent="GtGg8OWwIk_APVO-yhgV-32" vertex="1">
          <mxGeometry x="120" width="40" height="40" as="geometry" />
        </mxCell>
        <mxCell id="GtGg8OWwIk_APVO-yhgV-38" value="" style="sketch=0;points=[[0,0,0],[0.25,0,0],[0.5,0,0],[0.75,0,0],[1,0,0],[0,1,0],[0.25,1,0],[0.5,1,0],[0.75,1,0],[1,1,0],[0,0.25,0],[0,0.5,0],[0,0.75,0],[1,0.25,0],[1,0.5,0],[1,0.75,0]];outlineConnect=0;fontColor=#232F3E;gradientColor=#945DF2;gradientDirection=north;fillColor=#5A30B5;strokeColor=#ffffff;dashed=0;verticalLabelPosition=bottom;verticalAlign=top;align=center;fontSize=12;fontStyle=0;aspect=fixed;shape=mxgraph.aws4.resourceIcon;resIcon=mxgraph.aws4.cloudfront;fontFamily=Rubik;fontSource=https%3A%2F%2Ffonts.googleapis.com%2Fcss%3Ffamily%3DRubik;" parent="GtGg8OWwIk_APVO-yhgV-32" vertex="1">
          <mxGeometry x="120" y="40" width="40" height="40" as="geometry" />
        </mxCell>
        <mxCell id="GtGg8OWwIk_APVO-yhgV-39" value="" style="sketch=0;points=[[0,0,0],[0.25,0,0],[0.5,0,0],[0.75,0,0],[1,0,0],[0,1,0],[0.25,1,0],[0.5,1,0],[0.75,1,0],[1,1,0],[0,0.25,0],[0,0.5,0],[0,0.75,0],[1,0.25,0],[1,0.5,0],[1,0.75,0]];outlineConnect=0;fontColor=#232F3E;gradientColor=#4D72F3;gradientDirection=north;fillColor=#3334B9;strokeColor=#ffffff;dashed=0;verticalLabelPosition=bottom;verticalAlign=top;align=center;fontSize=12;fontStyle=0;aspect=fixed;shape=mxgraph.aws4.resourceIcon;resIcon=mxgraph.aws4.rds;fontFamily=Rubik;fontSource=https%3A%2F%2Ffonts.googleapis.com%2Fcss%3Ffamily%3DRubik;" parent="GtGg8OWwIk_APVO-yhgV-32" vertex="1">
          <mxGeometry x="80" y="40" width="40" height="40" as="geometry" />
        </mxCell>
        <mxCell id="GtGg8OWwIk_APVO-yhgV-40" value="" style="sketch=0;points=[[0,0,0],[0.25,0,0],[0.5,0,0],[0.75,0,0],[1,0,0],[0,1,0],[0.25,1,0],[0.5,1,0],[0.75,1,0],[1,1,0],[0,0.25,0],[0,0.5,0],[0,0.75,0],[1,0.25,0],[1,0.5,0],[1,0.75,0]];outlineConnect=0;fontColor=#232F3E;gradientColor=#4D72F3;gradientDirection=north;fillColor=#3334B9;strokeColor=#ffffff;dashed=0;verticalLabelPosition=bottom;verticalAlign=top;align=center;fontSize=12;fontStyle=0;aspect=fixed;shape=mxgraph.aws4.resourceIcon;resIcon=mxgraph.aws4.dynamodb;fontFamily=Rubik;fontSource=https%3A%2F%2Ffonts.googleapis.com%2Fcss%3Ffamily%3DRubik;" parent="GtGg8OWwIk_APVO-yhgV-32" vertex="1">
          <mxGeometry y="40" width="40" height="40" as="geometry" />
        </mxCell>
        <mxCell id="GtGg8OWwIk_APVO-yhgV-41" value="" style="outlineConnect=0;gradientColor=none;fontSize=16;fontStyle=0;strokeColor=#6A00FF;fillColor=none;verticalAlign=top;align=center;fontColor=#90A6C2;spacingTop=3;fontFamily=Rubik;strokeWidth=2;fontSource=https%3A%2F%2Ffonts.googleapis.com%2Fcss%3Ffamily%3DRubik;" parent="GtGg8OWwIk_APVO-yhgV-27" vertex="1">
          <mxGeometry y="160" width="160" height="80" as="geometry" />
        </mxCell>
        <mxCell id="GtGg8OWwIk_APVO-yhgV-42" value="" style="group;fontFamily=Rubik;fontSource=https%3A%2F%2Ffonts.googleapis.com%2Fcss%3Ffamily%3DRubik;" parent="Ekgx-9tqe5oH1XvIg5s0-1" vertex="1" connectable="0">
          <mxGeometry x="1260" y="-260" width="160" height="240" as="geometry" />
        </mxCell>
        <mxCell id="GtGg8OWwIk_APVO-yhgV-43" value="test" style="fontFamily=Rubik;fontSize=22;fontColor=#ffffff;strokeColor=#21C0A5;strokeWidth=2;fillColor=#21C0A5;spacingTop=8;fontSource=https%3A%2F%2Ffonts.googleapis.com%2Fcss%3Ffamily%3DRubik;" parent="GtGg8OWwIk_APVO-yhgV-42" vertex="1">
          <mxGeometry width="160" height="40" as="geometry" />
        </mxCell>
        <mxCell id="GtGg8OWwIk_APVO-yhgV-44" value="for QA purposes" style="fontFamily=Rubik;fontSize=16;fontColor=#FFFFFF;strokeColor=#21C0A5;strokeWidth=2;fillColor=#0B3D35;spacingBottom=1;fontStyle=2;fontSource=https%3A%2F%2Ffonts.googleapis.com%2Fcss%3Ffamily%3DRubik;" parent="GtGg8OWwIk_APVO-yhgV-42" vertex="1">
          <mxGeometry y="120" width="160" height="40" as="geometry" />
        </mxCell>
        <mxCell id="GtGg8OWwIk_APVO-yhgV-45" value="environment" style="fontFamily=Rubik;fontSize=16;fontColor=#ffffff;strokeColor=#21C0A5;strokeWidth=2;fillColor=#21C0A5;spacingBottom=16;textOpacity=50;fontSource=https%3A%2F%2Ffonts.googleapis.com%2Fcss%3Ffamily%3DRubik;" parent="GtGg8OWwIk_APVO-yhgV-42" vertex="1">
          <mxGeometry y="40" width="160" height="40" as="geometry" />
        </mxCell>
        <mxCell id="GtGg8OWwIk_APVO-yhgV-46" value="OPTIONAL" style="fontFamily=Rubik;fontSize=16;fontColor=#FFFFFF;strokeColor=#21C0A5;strokeWidth=2;fillColor=#0B3D35;spacingBottom=1;fontStyle=2;textOpacity=50;fontSource=https%3A%2F%2Ffonts.googleapis.com%2Fcss%3Ffamily%3DRubik;" parent="GtGg8OWwIk_APVO-yhgV-42" vertex="1">
          <mxGeometry y="80" width="160" height="40" as="geometry" />
        </mxCell>
        <mxCell id="GtGg8OWwIk_APVO-yhgV-47" value="" style="group;fontFamily=Rubik;fontSource=https%3A%2F%2Ffonts.googleapis.com%2Fcss%3Ffamily%3DRubik;" parent="GtGg8OWwIk_APVO-yhgV-42" vertex="1" connectable="0">
          <mxGeometry y="160" width="160" height="80" as="geometry" />
        </mxCell>
        <mxCell id="GtGg8OWwIk_APVO-yhgV-48" value="" style="sketch=0;points=[[0,0,0],[0.25,0,0],[0.5,0,0],[0.75,0,0],[1,0,0],[0,1,0],[0.25,1,0],[0.5,1,0],[0.75,1,0],[1,1,0],[0,0.25,0],[0,0.5,0],[0,0.75,0],[1,0.25,0],[1,0.5,0],[1,0.75,0]];outlineConnect=0;fontColor=#232F3E;gradientColor=#F78E04;gradientDirection=north;fillColor=#D05C17;strokeColor=#ffffff;dashed=0;verticalLabelPosition=bottom;verticalAlign=top;align=center;fontSize=12;fontStyle=0;aspect=fixed;shape=mxgraph.aws4.resourceIcon;resIcon=mxgraph.aws4.lambda;fontFamily=Rubik;fontSource=https%3A%2F%2Ffonts.googleapis.com%2Fcss%3Ffamily%3DRubik;" parent="GtGg8OWwIk_APVO-yhgV-47" vertex="1">
          <mxGeometry width="40" height="40" as="geometry" />
        </mxCell>
        <mxCell id="GtGg8OWwIk_APVO-yhgV-49" value="" style="sketch=0;points=[[0,0,0],[0.25,0,0],[0.5,0,0],[0.75,0,0],[1,0,0],[0,1,0],[0.25,1,0],[0.5,1,0],[0.75,1,0],[1,1,0],[0,0.25,0],[0,0.5,0],[0,0.75,0],[1,0.25,0],[1,0.5,0],[1,0.75,0]];outlineConnect=0;fontColor=#232F3E;gradientColor=#945DF2;gradientDirection=north;fillColor=#5A30B5;strokeColor=#ffffff;dashed=0;verticalLabelPosition=bottom;verticalAlign=top;align=center;fontSize=12;fontStyle=0;aspect=fixed;shape=mxgraph.aws4.resourceIcon;resIcon=mxgraph.aws4.api_gateway;fontFamily=Rubik;fontSource=https%3A%2F%2Ffonts.googleapis.com%2Fcss%3Ffamily%3DRubik;" parent="GtGg8OWwIk_APVO-yhgV-47" vertex="1">
          <mxGeometry x="80" width="40" height="40" as="geometry" />
        </mxCell>
        <mxCell id="GtGg8OWwIk_APVO-yhgV-50" value="" style="sketch=0;points=[[0,0,0],[0.25,0,0],[0.5,0,0],[0.75,0,0],[1,0,0],[0,1,0],[0.25,1,0],[0.5,1,0],[0.75,1,0],[1,1,0],[0,0.25,0],[0,0.5,0],[0,0.75,0],[1,0.25,0],[1,0.5,0],[1,0.75,0]];outlineConnect=0;fontColor=#232F3E;gradientColor=#FF4F8B;gradientDirection=north;fillColor=#BC1356;strokeColor=#ffffff;dashed=0;verticalLabelPosition=bottom;verticalAlign=top;align=center;fontSize=12;fontStyle=0;aspect=fixed;shape=mxgraph.aws4.resourceIcon;resIcon=mxgraph.aws4.eventbridge;fontFamily=Rubik;fontSource=https%3A%2F%2Ffonts.googleapis.com%2Fcss%3Ffamily%3DRubik;" parent="GtGg8OWwIk_APVO-yhgV-47" vertex="1">
          <mxGeometry x="40" width="40" height="40" as="geometry" />
        </mxCell>
        <mxCell id="GtGg8OWwIk_APVO-yhgV-51" value="" style="sketch=0;points=[[0,0,0],[0.25,0,0],[0.5,0,0],[0.75,0,0],[1,0,0],[0,1,0],[0.25,1,0],[0.5,1,0],[0.75,1,0],[1,1,0],[0,0.25,0],[0,0.5,0],[0,0.75,0],[1,0.25,0],[1,0.5,0],[1,0.75,0]];outlineConnect=0;fontColor=#232F3E;gradientColor=#60A337;gradientDirection=north;fillColor=#277116;strokeColor=#ffffff;dashed=0;verticalLabelPosition=bottom;verticalAlign=top;align=center;fontSize=12;fontStyle=0;aspect=fixed;shape=mxgraph.aws4.resourceIcon;resIcon=mxgraph.aws4.s3;fontFamily=Rubik;fontSource=https%3A%2F%2Ffonts.googleapis.com%2Fcss%3Ffamily%3DRubik;" parent="GtGg8OWwIk_APVO-yhgV-47" vertex="1">
          <mxGeometry x="40" y="40" width="40" height="40" as="geometry" />
        </mxCell>
        <mxCell id="GtGg8OWwIk_APVO-yhgV-52" value="" style="sketch=0;points=[[0,0,0],[0.25,0,0],[0.5,0,0],[0.75,0,0],[1,0,0],[0,1,0],[0.25,1,0],[0.5,1,0],[0.75,1,0],[1,1,0],[0,0.25,0],[0,0.5,0],[0,0.75,0],[1,0.25,0],[1,0.5,0],[1,0.75,0]];outlineConnect=0;fontColor=#232F3E;gradientColor=#F78E04;gradientDirection=north;fillColor=#D05C17;strokeColor=#ffffff;dashed=0;verticalLabelPosition=bottom;verticalAlign=top;align=center;fontSize=12;fontStyle=0;aspect=fixed;shape=mxgraph.aws4.resourceIcon;resIcon=mxgraph.aws4.fargate;fontFamily=Rubik;fontSource=https%3A%2F%2Ffonts.googleapis.com%2Fcss%3Ffamily%3DRubik;" parent="GtGg8OWwIk_APVO-yhgV-47" vertex="1">
          <mxGeometry x="120" width="40" height="40" as="geometry" />
        </mxCell>
        <mxCell id="GtGg8OWwIk_APVO-yhgV-53" value="" style="sketch=0;points=[[0,0,0],[0.25,0,0],[0.5,0,0],[0.75,0,0],[1,0,0],[0,1,0],[0.25,1,0],[0.5,1,0],[0.75,1,0],[1,1,0],[0,0.25,0],[0,0.5,0],[0,0.75,0],[1,0.25,0],[1,0.5,0],[1,0.75,0]];outlineConnect=0;fontColor=#232F3E;gradientColor=#945DF2;gradientDirection=north;fillColor=#5A30B5;strokeColor=#ffffff;dashed=0;verticalLabelPosition=bottom;verticalAlign=top;align=center;fontSize=12;fontStyle=0;aspect=fixed;shape=mxgraph.aws4.resourceIcon;resIcon=mxgraph.aws4.cloudfront;fontFamily=Rubik;fontSource=https%3A%2F%2Ffonts.googleapis.com%2Fcss%3Ffamily%3DRubik;" parent="GtGg8OWwIk_APVO-yhgV-47" vertex="1">
          <mxGeometry x="120" y="40" width="40" height="40" as="geometry" />
        </mxCell>
        <mxCell id="GtGg8OWwIk_APVO-yhgV-54" value="" style="sketch=0;points=[[0,0,0],[0.25,0,0],[0.5,0,0],[0.75,0,0],[1,0,0],[0,1,0],[0.25,1,0],[0.5,1,0],[0.75,1,0],[1,1,0],[0,0.25,0],[0,0.5,0],[0,0.75,0],[1,0.25,0],[1,0.5,0],[1,0.75,0]];outlineConnect=0;fontColor=#232F3E;gradientColor=#4D72F3;gradientDirection=north;fillColor=#3334B9;strokeColor=#ffffff;dashed=0;verticalLabelPosition=bottom;verticalAlign=top;align=center;fontSize=12;fontStyle=0;aspect=fixed;shape=mxgraph.aws4.resourceIcon;resIcon=mxgraph.aws4.rds;fontFamily=Rubik;fontSource=https%3A%2F%2Ffonts.googleapis.com%2Fcss%3Ffamily%3DRubik;" parent="GtGg8OWwIk_APVO-yhgV-47" vertex="1">
          <mxGeometry x="80" y="40" width="40" height="40" as="geometry" />
        </mxCell>
        <mxCell id="GtGg8OWwIk_APVO-yhgV-55" value="" style="sketch=0;points=[[0,0,0],[0.25,0,0],[0.5,0,0],[0.75,0,0],[1,0,0],[0,1,0],[0.25,1,0],[0.5,1,0],[0.75,1,0],[1,1,0],[0,0.25,0],[0,0.5,0],[0,0.75,0],[1,0.25,0],[1,0.5,0],[1,0.75,0]];outlineConnect=0;fontColor=#232F3E;gradientColor=#4D72F3;gradientDirection=north;fillColor=#3334B9;strokeColor=#ffffff;dashed=0;verticalLabelPosition=bottom;verticalAlign=top;align=center;fontSize=12;fontStyle=0;aspect=fixed;shape=mxgraph.aws4.resourceIcon;resIcon=mxgraph.aws4.dynamodb;fontFamily=Rubik;fontSource=https%3A%2F%2Ffonts.googleapis.com%2Fcss%3Ffamily%3DRubik;" parent="GtGg8OWwIk_APVO-yhgV-47" vertex="1">
          <mxGeometry y="40" width="40" height="40" as="geometry" />
        </mxCell>
        <mxCell id="GtGg8OWwIk_APVO-yhgV-56" value="" style="outlineConnect=0;gradientColor=none;fontSize=16;fontStyle=0;strokeColor=#21C0A5;fillColor=none;verticalAlign=top;align=center;fontColor=#90A6C2;spacingTop=3;fontFamily=Rubik;strokeWidth=2;fontSource=https%3A%2F%2Ffonts.googleapis.com%2Fcss%3Ffamily%3DRubik;" parent="GtGg8OWwIk_APVO-yhgV-42" vertex="1">
          <mxGeometry y="160" width="160" height="80" as="geometry" />
        </mxCell>
        <mxCell id="GtGg8OWwIk_APVO-yhgV-57" value="" style="group;fontFamily=Rubik;fontSource=https%3A%2F%2Ffonts.googleapis.com%2Fcss%3Ffamily%3DRubik;" parent="Ekgx-9tqe5oH1XvIg5s0-1" vertex="1" connectable="0">
          <mxGeometry x="1440" y="-260" width="160" height="240" as="geometry" />
        </mxCell>
        <mxCell id="GtGg8OWwIk_APVO-yhgV-58" value="staging" style="fontFamily=Rubik;fontSize=22;fontColor=#ffffff;strokeColor=#45A364;strokeWidth=2;fillColor=#45A364;spacingTop=8;fontSource=https%3A%2F%2Ffonts.googleapis.com%2Fcss%3Ffamily%3DRubik;" parent="GtGg8OWwIk_APVO-yhgV-57" vertex="1">
          <mxGeometry width="160" height="40" as="geometry" />
        </mxCell>
        <mxCell id="GtGg8OWwIk_APVO-yhgV-59" value="release candidate" style="fontFamily=Rubik;fontSize=16;fontColor=#FFFFFF;strokeColor=#45A364;strokeWidth=2;fillColor=#193B24;spacingBottom=1;fontStyle=2;fontSource=https%3A%2F%2Ffonts.googleapis.com%2Fcss%3Ffamily%3DRubik;" parent="GtGg8OWwIk_APVO-yhgV-57" vertex="1">
          <mxGeometry y="120" width="160" height="40" as="geometry" />
        </mxCell>
        <mxCell id="GtGg8OWwIk_APVO-yhgV-60" value="environment" style="fontFamily=Rubik;fontSize=16;fontColor=#ffffff;strokeColor=#45A364;strokeWidth=2;fillColor=#45A364;spacingBottom=16;textOpacity=50;fontSource=https%3A%2F%2Ffonts.googleapis.com%2Fcss%3Ffamily%3DRubik;" parent="GtGg8OWwIk_APVO-yhgV-57" vertex="1">
          <mxGeometry y="40" width="160" height="40" as="geometry" />
        </mxCell>
        <mxCell id="GtGg8OWwIk_APVO-yhgV-61" value="OPTIONAL" style="fontFamily=Rubik;fontSize=16;fontColor=#FFFFFF;strokeColor=#45A364;strokeWidth=2;fillColor=#193B24;spacingBottom=1;fontStyle=2;textOpacity=50;fontSource=https%3A%2F%2Ffonts.googleapis.com%2Fcss%3Ffamily%3DRubik;" parent="GtGg8OWwIk_APVO-yhgV-57" vertex="1">
          <mxGeometry y="80" width="160" height="40" as="geometry" />
        </mxCell>
        <mxCell id="GtGg8OWwIk_APVO-yhgV-62" value="" style="group;fontFamily=Rubik;fontSource=https%3A%2F%2Ffonts.googleapis.com%2Fcss%3Ffamily%3DRubik;" parent="GtGg8OWwIk_APVO-yhgV-57" vertex="1" connectable="0">
          <mxGeometry y="160" width="160" height="80" as="geometry" />
        </mxCell>
        <mxCell id="GtGg8OWwIk_APVO-yhgV-63" value="" style="sketch=0;points=[[0,0,0],[0.25,0,0],[0.5,0,0],[0.75,0,0],[1,0,0],[0,1,0],[0.25,1,0],[0.5,1,0],[0.75,1,0],[1,1,0],[0,0.25,0],[0,0.5,0],[0,0.75,0],[1,0.25,0],[1,0.5,0],[1,0.75,0]];outlineConnect=0;fontColor=#232F3E;gradientColor=#F78E04;gradientDirection=north;fillColor=#D05C17;strokeColor=#ffffff;dashed=0;verticalLabelPosition=bottom;verticalAlign=top;align=center;fontSize=12;fontStyle=0;aspect=fixed;shape=mxgraph.aws4.resourceIcon;resIcon=mxgraph.aws4.lambda;fontFamily=Rubik;fontSource=https%3A%2F%2Ffonts.googleapis.com%2Fcss%3Ffamily%3DRubik;" parent="GtGg8OWwIk_APVO-yhgV-62" vertex="1">
          <mxGeometry width="40" height="40" as="geometry" />
        </mxCell>
        <mxCell id="GtGg8OWwIk_APVO-yhgV-64" value="" style="sketch=0;points=[[0,0,0],[0.25,0,0],[0.5,0,0],[0.75,0,0],[1,0,0],[0,1,0],[0.25,1,0],[0.5,1,0],[0.75,1,0],[1,1,0],[0,0.25,0],[0,0.5,0],[0,0.75,0],[1,0.25,0],[1,0.5,0],[1,0.75,0]];outlineConnect=0;fontColor=#232F3E;gradientColor=#945DF2;gradientDirection=north;fillColor=#5A30B5;strokeColor=#ffffff;dashed=0;verticalLabelPosition=bottom;verticalAlign=top;align=center;fontSize=12;fontStyle=0;aspect=fixed;shape=mxgraph.aws4.resourceIcon;resIcon=mxgraph.aws4.api_gateway;fontFamily=Rubik;fontSource=https%3A%2F%2Ffonts.googleapis.com%2Fcss%3Ffamily%3DRubik;" parent="GtGg8OWwIk_APVO-yhgV-62" vertex="1">
          <mxGeometry x="80" width="40" height="40" as="geometry" />
        </mxCell>
        <mxCell id="GtGg8OWwIk_APVO-yhgV-65" value="" style="sketch=0;points=[[0,0,0],[0.25,0,0],[0.5,0,0],[0.75,0,0],[1,0,0],[0,1,0],[0.25,1,0],[0.5,1,0],[0.75,1,0],[1,1,0],[0,0.25,0],[0,0.5,0],[0,0.75,0],[1,0.25,0],[1,0.5,0],[1,0.75,0]];outlineConnect=0;fontColor=#232F3E;gradientColor=#FF4F8B;gradientDirection=north;fillColor=#BC1356;strokeColor=#ffffff;dashed=0;verticalLabelPosition=bottom;verticalAlign=top;align=center;fontSize=12;fontStyle=0;aspect=fixed;shape=mxgraph.aws4.resourceIcon;resIcon=mxgraph.aws4.eventbridge;fontFamily=Rubik;fontSource=https%3A%2F%2Ffonts.googleapis.com%2Fcss%3Ffamily%3DRubik;" parent="GtGg8OWwIk_APVO-yhgV-62" vertex="1">
          <mxGeometry x="40" width="40" height="40" as="geometry" />
        </mxCell>
        <mxCell id="GtGg8OWwIk_APVO-yhgV-66" value="" style="sketch=0;points=[[0,0,0],[0.25,0,0],[0.5,0,0],[0.75,0,0],[1,0,0],[0,1,0],[0.25,1,0],[0.5,1,0],[0.75,1,0],[1,1,0],[0,0.25,0],[0,0.5,0],[0,0.75,0],[1,0.25,0],[1,0.5,0],[1,0.75,0]];outlineConnect=0;fontColor=#232F3E;gradientColor=#60A337;gradientDirection=north;fillColor=#277116;strokeColor=#ffffff;dashed=0;verticalLabelPosition=bottom;verticalAlign=top;align=center;fontSize=12;fontStyle=0;aspect=fixed;shape=mxgraph.aws4.resourceIcon;resIcon=mxgraph.aws4.s3;fontFamily=Rubik;fontSource=https%3A%2F%2Ffonts.googleapis.com%2Fcss%3Ffamily%3DRubik;" parent="GtGg8OWwIk_APVO-yhgV-62" vertex="1">
          <mxGeometry x="40" y="40" width="40" height="40" as="geometry" />
        </mxCell>
        <mxCell id="GtGg8OWwIk_APVO-yhgV-67" value="" style="sketch=0;points=[[0,0,0],[0.25,0,0],[0.5,0,0],[0.75,0,0],[1,0,0],[0,1,0],[0.25,1,0],[0.5,1,0],[0.75,1,0],[1,1,0],[0,0.25,0],[0,0.5,0],[0,0.75,0],[1,0.25,0],[1,0.5,0],[1,0.75,0]];outlineConnect=0;fontColor=#232F3E;gradientColor=#F78E04;gradientDirection=north;fillColor=#D05C17;strokeColor=#ffffff;dashed=0;verticalLabelPosition=bottom;verticalAlign=top;align=center;fontSize=12;fontStyle=0;aspect=fixed;shape=mxgraph.aws4.resourceIcon;resIcon=mxgraph.aws4.fargate;fontFamily=Rubik;fontSource=https%3A%2F%2Ffonts.googleapis.com%2Fcss%3Ffamily%3DRubik;" parent="GtGg8OWwIk_APVO-yhgV-62" vertex="1">
          <mxGeometry x="120" width="40" height="40" as="geometry" />
        </mxCell>
        <mxCell id="GtGg8OWwIk_APVO-yhgV-68" value="" style="sketch=0;points=[[0,0,0],[0.25,0,0],[0.5,0,0],[0.75,0,0],[1,0,0],[0,1,0],[0.25,1,0],[0.5,1,0],[0.75,1,0],[1,1,0],[0,0.25,0],[0,0.5,0],[0,0.75,0],[1,0.25,0],[1,0.5,0],[1,0.75,0]];outlineConnect=0;fontColor=#232F3E;gradientColor=#945DF2;gradientDirection=north;fillColor=#5A30B5;strokeColor=#ffffff;dashed=0;verticalLabelPosition=bottom;verticalAlign=top;align=center;fontSize=12;fontStyle=0;aspect=fixed;shape=mxgraph.aws4.resourceIcon;resIcon=mxgraph.aws4.cloudfront;fontFamily=Rubik;fontSource=https%3A%2F%2Ffonts.googleapis.com%2Fcss%3Ffamily%3DRubik;" parent="GtGg8OWwIk_APVO-yhgV-62" vertex="1">
          <mxGeometry x="120" y="40" width="40" height="40" as="geometry" />
        </mxCell>
        <mxCell id="GtGg8OWwIk_APVO-yhgV-69" value="" style="sketch=0;points=[[0,0,0],[0.25,0,0],[0.5,0,0],[0.75,0,0],[1,0,0],[0,1,0],[0.25,1,0],[0.5,1,0],[0.75,1,0],[1,1,0],[0,0.25,0],[0,0.5,0],[0,0.75,0],[1,0.25,0],[1,0.5,0],[1,0.75,0]];outlineConnect=0;fontColor=#232F3E;gradientColor=#4D72F3;gradientDirection=north;fillColor=#3334B9;strokeColor=#ffffff;dashed=0;verticalLabelPosition=bottom;verticalAlign=top;align=center;fontSize=12;fontStyle=0;aspect=fixed;shape=mxgraph.aws4.resourceIcon;resIcon=mxgraph.aws4.rds;fontFamily=Rubik;fontSource=https%3A%2F%2Ffonts.googleapis.com%2Fcss%3Ffamily%3DRubik;" parent="GtGg8OWwIk_APVO-yhgV-62" vertex="1">
          <mxGeometry x="80" y="40" width="40" height="40" as="geometry" />
        </mxCell>
        <mxCell id="GtGg8OWwIk_APVO-yhgV-70" value="" style="sketch=0;points=[[0,0,0],[0.25,0,0],[0.5,0,0],[0.75,0,0],[1,0,0],[0,1,0],[0.25,1,0],[0.5,1,0],[0.75,1,0],[1,1,0],[0,0.25,0],[0,0.5,0],[0,0.75,0],[1,0.25,0],[1,0.5,0],[1,0.75,0]];outlineConnect=0;fontColor=#232F3E;gradientColor=#4D72F3;gradientDirection=north;fillColor=#3334B9;strokeColor=#ffffff;dashed=0;verticalLabelPosition=bottom;verticalAlign=top;align=center;fontSize=12;fontStyle=0;aspect=fixed;shape=mxgraph.aws4.resourceIcon;resIcon=mxgraph.aws4.dynamodb;fontFamily=Rubik;fontSource=https%3A%2F%2Ffonts.googleapis.com%2Fcss%3Ffamily%3DRubik;" parent="GtGg8OWwIk_APVO-yhgV-62" vertex="1">
          <mxGeometry y="40" width="40" height="40" as="geometry" />
        </mxCell>
        <mxCell id="GtGg8OWwIk_APVO-yhgV-71" value="" style="outlineConnect=0;gradientColor=none;fontSize=16;fontStyle=0;strokeColor=#45A364;fillColor=none;verticalAlign=top;align=center;fontColor=#90A6C2;spacingTop=3;fontFamily=Rubik;strokeWidth=2;fontSource=https%3A%2F%2Ffonts.googleapis.com%2Fcss%3Ffamily%3DRubik;" parent="GtGg8OWwIk_APVO-yhgV-57" vertex="1">
          <mxGeometry y="160" width="160" height="80" as="geometry" />
        </mxCell>
        <mxCell id="GtGg8OWwIk_APVO-yhgV-72" value="" style="group;fontFamily=Rubik;fontSource=https%3A%2F%2Ffonts.googleapis.com%2Fcss%3Ffamily%3DRubik;" parent="Ekgx-9tqe5oH1XvIg5s0-1" vertex="1" connectable="0">
          <mxGeometry x="1620" y="-260" width="160" height="240" as="geometry" />
        </mxCell>
        <mxCell id="GtGg8OWwIk_APVO-yhgV-73" value="preproduction" style="fontFamily=Rubik;fontSize=22;fontColor=#ffffff;strokeColor=#D86613;strokeWidth=2;fillColor=#D86613;spacingTop=8;fontSource=https%3A%2F%2Ffonts.googleapis.com%2Fcss%3Ffamily%3DRubik;" parent="GtGg8OWwIk_APVO-yhgV-72" vertex="1">
          <mxGeometry width="160" height="40" as="geometry" />
        </mxCell>
        <mxCell id="GtGg8OWwIk_APVO-yhgV-74" value="for QA purposes" style="fontFamily=Rubik;fontSize=16;fontColor=#FFFFFF;strokeColor=#D86613;strokeWidth=2;fillColor=#3D1D05;spacingBottom=1;fontStyle=2;fontSource=https%3A%2F%2Ffonts.googleapis.com%2Fcss%3Ffamily%3DRubik;" parent="GtGg8OWwIk_APVO-yhgV-72" vertex="1">
          <mxGeometry y="120" width="160" height="40" as="geometry" />
        </mxCell>
        <mxCell id="GtGg8OWwIk_APVO-yhgV-75" value="environment" style="fontFamily=Rubik;fontSize=16;fontColor=#ffffff;strokeColor=#D86613;strokeWidth=2;fillColor=#D86613;spacingBottom=16;textOpacity=50;fontSource=https%3A%2F%2Ffonts.googleapis.com%2Fcss%3Ffamily%3DRubik;" parent="GtGg8OWwIk_APVO-yhgV-72" vertex="1">
          <mxGeometry y="40" width="160" height="40" as="geometry" />
        </mxCell>
        <mxCell id="GtGg8OWwIk_APVO-yhgV-76" value="OPTIONAL" style="fontFamily=Rubik;fontSize=16;fontColor=#FFFFFF;strokeColor=#D86613;strokeWidth=2;fillColor=#3D1D05;spacingBottom=1;fontStyle=2;textOpacity=50;fontSource=https%3A%2F%2Ffonts.googleapis.com%2Fcss%3Ffamily%3DRubik;" parent="GtGg8OWwIk_APVO-yhgV-72" vertex="1">
          <mxGeometry y="80" width="160" height="40" as="geometry" />
        </mxCell>
        <mxCell id="GtGg8OWwIk_APVO-yhgV-77" value="" style="group;fontFamily=Rubik;fontSource=https%3A%2F%2Ffonts.googleapis.com%2Fcss%3Ffamily%3DRubik;" parent="GtGg8OWwIk_APVO-yhgV-72" vertex="1" connectable="0">
          <mxGeometry y="160" width="160" height="80" as="geometry" />
        </mxCell>
        <mxCell id="GtGg8OWwIk_APVO-yhgV-78" value="" style="sketch=0;points=[[0,0,0],[0.25,0,0],[0.5,0,0],[0.75,0,0],[1,0,0],[0,1,0],[0.25,1,0],[0.5,1,0],[0.75,1,0],[1,1,0],[0,0.25,0],[0,0.5,0],[0,0.75,0],[1,0.25,0],[1,0.5,0],[1,0.75,0]];outlineConnect=0;fontColor=#232F3E;gradientColor=#F78E04;gradientDirection=north;fillColor=#D05C17;strokeColor=#ffffff;dashed=0;verticalLabelPosition=bottom;verticalAlign=top;align=center;fontSize=12;fontStyle=0;aspect=fixed;shape=mxgraph.aws4.resourceIcon;resIcon=mxgraph.aws4.lambda;fontFamily=Rubik;fontSource=https%3A%2F%2Ffonts.googleapis.com%2Fcss%3Ffamily%3DRubik;" parent="GtGg8OWwIk_APVO-yhgV-77" vertex="1">
          <mxGeometry width="40" height="40" as="geometry" />
        </mxCell>
        <mxCell id="GtGg8OWwIk_APVO-yhgV-79" value="" style="sketch=0;points=[[0,0,0],[0.25,0,0],[0.5,0,0],[0.75,0,0],[1,0,0],[0,1,0],[0.25,1,0],[0.5,1,0],[0.75,1,0],[1,1,0],[0,0.25,0],[0,0.5,0],[0,0.75,0],[1,0.25,0],[1,0.5,0],[1,0.75,0]];outlineConnect=0;fontColor=#232F3E;gradientColor=#945DF2;gradientDirection=north;fillColor=#5A30B5;strokeColor=#ffffff;dashed=0;verticalLabelPosition=bottom;verticalAlign=top;align=center;fontSize=12;fontStyle=0;aspect=fixed;shape=mxgraph.aws4.resourceIcon;resIcon=mxgraph.aws4.api_gateway;fontFamily=Rubik;fontSource=https%3A%2F%2Ffonts.googleapis.com%2Fcss%3Ffamily%3DRubik;" parent="GtGg8OWwIk_APVO-yhgV-77" vertex="1">
          <mxGeometry x="80" width="40" height="40" as="geometry" />
        </mxCell>
        <mxCell id="GtGg8OWwIk_APVO-yhgV-80" value="" style="sketch=0;points=[[0,0,0],[0.25,0,0],[0.5,0,0],[0.75,0,0],[1,0,0],[0,1,0],[0.25,1,0],[0.5,1,0],[0.75,1,0],[1,1,0],[0,0.25,0],[0,0.5,0],[0,0.75,0],[1,0.25,0],[1,0.5,0],[1,0.75,0]];outlineConnect=0;fontColor=#232F3E;gradientColor=#FF4F8B;gradientDirection=north;fillColor=#BC1356;strokeColor=#ffffff;dashed=0;verticalLabelPosition=bottom;verticalAlign=top;align=center;fontSize=12;fontStyle=0;aspect=fixed;shape=mxgraph.aws4.resourceIcon;resIcon=mxgraph.aws4.eventbridge;fontFamily=Rubik;fontSource=https%3A%2F%2Ffonts.googleapis.com%2Fcss%3Ffamily%3DRubik;" parent="GtGg8OWwIk_APVO-yhgV-77" vertex="1">
          <mxGeometry x="40" width="40" height="40" as="geometry" />
        </mxCell>
        <mxCell id="GtGg8OWwIk_APVO-yhgV-81" value="" style="sketch=0;points=[[0,0,0],[0.25,0,0],[0.5,0,0],[0.75,0,0],[1,0,0],[0,1,0],[0.25,1,0],[0.5,1,0],[0.75,1,0],[1,1,0],[0,0.25,0],[0,0.5,0],[0,0.75,0],[1,0.25,0],[1,0.5,0],[1,0.75,0]];outlineConnect=0;fontColor=#232F3E;gradientColor=#60A337;gradientDirection=north;fillColor=#277116;strokeColor=#ffffff;dashed=0;verticalLabelPosition=bottom;verticalAlign=top;align=center;fontSize=12;fontStyle=0;aspect=fixed;shape=mxgraph.aws4.resourceIcon;resIcon=mxgraph.aws4.s3;fontFamily=Rubik;fontSource=https%3A%2F%2Ffonts.googleapis.com%2Fcss%3Ffamily%3DRubik;" parent="GtGg8OWwIk_APVO-yhgV-77" vertex="1">
          <mxGeometry x="40" y="40" width="40" height="40" as="geometry" />
        </mxCell>
        <mxCell id="GtGg8OWwIk_APVO-yhgV-82" value="" style="sketch=0;points=[[0,0,0],[0.25,0,0],[0.5,0,0],[0.75,0,0],[1,0,0],[0,1,0],[0.25,1,0],[0.5,1,0],[0.75,1,0],[1,1,0],[0,0.25,0],[0,0.5,0],[0,0.75,0],[1,0.25,0],[1,0.5,0],[1,0.75,0]];outlineConnect=0;fontColor=#232F3E;gradientColor=#F78E04;gradientDirection=north;fillColor=#D05C17;strokeColor=#ffffff;dashed=0;verticalLabelPosition=bottom;verticalAlign=top;align=center;fontSize=12;fontStyle=0;aspect=fixed;shape=mxgraph.aws4.resourceIcon;resIcon=mxgraph.aws4.fargate;fontFamily=Rubik;fontSource=https%3A%2F%2Ffonts.googleapis.com%2Fcss%3Ffamily%3DRubik;" parent="GtGg8OWwIk_APVO-yhgV-77" vertex="1">
          <mxGeometry x="120" width="40" height="40" as="geometry" />
        </mxCell>
        <mxCell id="GtGg8OWwIk_APVO-yhgV-83" value="" style="sketch=0;points=[[0,0,0],[0.25,0,0],[0.5,0,0],[0.75,0,0],[1,0,0],[0,1,0],[0.25,1,0],[0.5,1,0],[0.75,1,0],[1,1,0],[0,0.25,0],[0,0.5,0],[0,0.75,0],[1,0.25,0],[1,0.5,0],[1,0.75,0]];outlineConnect=0;fontColor=#232F3E;gradientColor=#945DF2;gradientDirection=north;fillColor=#5A30B5;strokeColor=#ffffff;dashed=0;verticalLabelPosition=bottom;verticalAlign=top;align=center;fontSize=12;fontStyle=0;aspect=fixed;shape=mxgraph.aws4.resourceIcon;resIcon=mxgraph.aws4.cloudfront;fontFamily=Rubik;fontSource=https%3A%2F%2Ffonts.googleapis.com%2Fcss%3Ffamily%3DRubik;" parent="GtGg8OWwIk_APVO-yhgV-77" vertex="1">
          <mxGeometry x="120" y="40" width="40" height="40" as="geometry" />
        </mxCell>
        <mxCell id="GtGg8OWwIk_APVO-yhgV-84" value="" style="sketch=0;points=[[0,0,0],[0.25,0,0],[0.5,0,0],[0.75,0,0],[1,0,0],[0,1,0],[0.25,1,0],[0.5,1,0],[0.75,1,0],[1,1,0],[0,0.25,0],[0,0.5,0],[0,0.75,0],[1,0.25,0],[1,0.5,0],[1,0.75,0]];outlineConnect=0;fontColor=#232F3E;gradientColor=#4D72F3;gradientDirection=north;fillColor=#3334B9;strokeColor=#ffffff;dashed=0;verticalLabelPosition=bottom;verticalAlign=top;align=center;fontSize=12;fontStyle=0;aspect=fixed;shape=mxgraph.aws4.resourceIcon;resIcon=mxgraph.aws4.rds;fontFamily=Rubik;fontSource=https%3A%2F%2Ffonts.googleapis.com%2Fcss%3Ffamily%3DRubik;" parent="GtGg8OWwIk_APVO-yhgV-77" vertex="1">
          <mxGeometry x="80" y="40" width="40" height="40" as="geometry" />
        </mxCell>
        <mxCell id="GtGg8OWwIk_APVO-yhgV-85" value="" style="sketch=0;points=[[0,0,0],[0.25,0,0],[0.5,0,0],[0.75,0,0],[1,0,0],[0,1,0],[0.25,1,0],[0.5,1,0],[0.75,1,0],[1,1,0],[0,0.25,0],[0,0.5,0],[0,0.75,0],[1,0.25,0],[1,0.5,0],[1,0.75,0]];outlineConnect=0;fontColor=#232F3E;gradientColor=#4D72F3;gradientDirection=north;fillColor=#3334B9;strokeColor=#ffffff;dashed=0;verticalLabelPosition=bottom;verticalAlign=top;align=center;fontSize=12;fontStyle=0;aspect=fixed;shape=mxgraph.aws4.resourceIcon;resIcon=mxgraph.aws4.dynamodb;fontFamily=Rubik;fontSource=https%3A%2F%2Ffonts.googleapis.com%2Fcss%3Ffamily%3DRubik;" parent="GtGg8OWwIk_APVO-yhgV-77" vertex="1">
          <mxGeometry y="40" width="40" height="40" as="geometry" />
        </mxCell>
        <mxCell id="GtGg8OWwIk_APVO-yhgV-86" value="" style="outlineConnect=0;gradientColor=none;fontSize=16;fontStyle=0;strokeColor=#D86613;fillColor=none;verticalAlign=top;align=center;fontColor=#90A6C2;spacingTop=3;fontFamily=Rubik;strokeWidth=2;fontSource=https%3A%2F%2Ffonts.googleapis.com%2Fcss%3Ffamily%3DRubik;" parent="GtGg8OWwIk_APVO-yhgV-72" vertex="1">
          <mxGeometry y="160" width="160" height="80" as="geometry" />
        </mxCell>
        <mxCell id="GtGg8OWwIk_APVO-yhgV-87" value="" style="group;fontFamily=Rubik;fontSource=https%3A%2F%2Ffonts.googleapis.com%2Fcss%3Ffamily%3DRubik;" parent="Ekgx-9tqe5oH1XvIg5s0-1" vertex="1" connectable="0">
          <mxGeometry x="1800" y="-260" width="160" height="240" as="geometry" />
        </mxCell>
        <mxCell id="GtGg8OWwIk_APVO-yhgV-88" value="production" style="fontFamily=Rubik;fontSize=22;fontColor=#ffffff;strokeColor=#FF0080;strokeWidth=2;fillColor=#FF0080;spacingTop=8;fontSource=https%3A%2F%2Ffonts.googleapis.com%2Fcss%3Ffamily%3DRubik;" parent="GtGg8OWwIk_APVO-yhgV-87" vertex="1">
          <mxGeometry width="160" height="40" as="geometry" />
        </mxCell>
        <mxCell id="GtGg8OWwIk_APVO-yhgV-89" value="stable release" style="fontFamily=Rubik;fontSize=16;fontColor=#F8E7F5;strokeColor=#FF0080;strokeWidth=2;fillColor=#6B0036;spacingBottom=1;fontStyle=2;fontSource=https%3A%2F%2Ffonts.googleapis.com%2Fcss%3Ffamily%3DRubik;" parent="GtGg8OWwIk_APVO-yhgV-87" vertex="1">
          <mxGeometry y="120" width="160" height="40" as="geometry" />
        </mxCell>
        <mxCell id="GtGg8OWwIk_APVO-yhgV-90" value="environment" style="fontFamily=Rubik;fontSize=16;fontColor=#ffffff;strokeColor=#FF0080;strokeWidth=2;fillColor=#FF0080;spacingBottom=16;textOpacity=50;fontSource=https%3A%2F%2Ffonts.googleapis.com%2Fcss%3Ffamily%3DRubik;" parent="GtGg8OWwIk_APVO-yhgV-87" vertex="1">
          <mxGeometry y="40" width="160" height="40" as="geometry" />
        </mxCell>
        <mxCell id="GtGg8OWwIk_APVO-yhgV-91" value="REQUIRED" style="fontFamily=Rubik;fontSize=16;fontColor=#F8E7F5;strokeColor=#FF0080;strokeWidth=2;fillColor=#6B0036;spacingBottom=1;fontStyle=3;fontSource=https%3A%2F%2Ffonts.googleapis.com%2Fcss%3Ffamily%3DRubik;" parent="GtGg8OWwIk_APVO-yhgV-87" vertex="1">
          <mxGeometry y="80" width="160" height="40" as="geometry" />
        </mxCell>
        <mxCell id="GtGg8OWwIk_APVO-yhgV-92" value="" style="group;fontFamily=Rubik;fontSource=https%3A%2F%2Ffonts.googleapis.com%2Fcss%3Ffamily%3DRubik;" parent="GtGg8OWwIk_APVO-yhgV-87" vertex="1" connectable="0">
          <mxGeometry y="160" width="160" height="80" as="geometry" />
        </mxCell>
        <mxCell id="GtGg8OWwIk_APVO-yhgV-93" value="" style="sketch=0;points=[[0,0,0],[0.25,0,0],[0.5,0,0],[0.75,0,0],[1,0,0],[0,1,0],[0.25,1,0],[0.5,1,0],[0.75,1,0],[1,1,0],[0,0.25,0],[0,0.5,0],[0,0.75,0],[1,0.25,0],[1,0.5,0],[1,0.75,0]];outlineConnect=0;fontColor=#232F3E;gradientColor=#F78E04;gradientDirection=north;fillColor=#D05C17;strokeColor=#ffffff;dashed=0;verticalLabelPosition=bottom;verticalAlign=top;align=center;fontSize=12;fontStyle=0;aspect=fixed;shape=mxgraph.aws4.resourceIcon;resIcon=mxgraph.aws4.lambda;fontFamily=Rubik;fontSource=https%3A%2F%2Ffonts.googleapis.com%2Fcss%3Ffamily%3DRubik;" parent="GtGg8OWwIk_APVO-yhgV-92" vertex="1">
          <mxGeometry width="40" height="40" as="geometry" />
        </mxCell>
        <mxCell id="GtGg8OWwIk_APVO-yhgV-94" value="" style="sketch=0;points=[[0,0,0],[0.25,0,0],[0.5,0,0],[0.75,0,0],[1,0,0],[0,1,0],[0.25,1,0],[0.5,1,0],[0.75,1,0],[1,1,0],[0,0.25,0],[0,0.5,0],[0,0.75,0],[1,0.25,0],[1,0.5,0],[1,0.75,0]];outlineConnect=0;fontColor=#232F3E;gradientColor=#945DF2;gradientDirection=north;fillColor=#5A30B5;strokeColor=#ffffff;dashed=0;verticalLabelPosition=bottom;verticalAlign=top;align=center;fontSize=12;fontStyle=0;aspect=fixed;shape=mxgraph.aws4.resourceIcon;resIcon=mxgraph.aws4.api_gateway;fontFamily=Rubik;fontSource=https%3A%2F%2Ffonts.googleapis.com%2Fcss%3Ffamily%3DRubik;" parent="GtGg8OWwIk_APVO-yhgV-92" vertex="1">
          <mxGeometry x="80" width="40" height="40" as="geometry" />
        </mxCell>
        <mxCell id="GtGg8OWwIk_APVO-yhgV-95" value="" style="sketch=0;points=[[0,0,0],[0.25,0,0],[0.5,0,0],[0.75,0,0],[1,0,0],[0,1,0],[0.25,1,0],[0.5,1,0],[0.75,1,0],[1,1,0],[0,0.25,0],[0,0.5,0],[0,0.75,0],[1,0.25,0],[1,0.5,0],[1,0.75,0]];outlineConnect=0;fontColor=#232F3E;gradientColor=#FF4F8B;gradientDirection=north;fillColor=#BC1356;strokeColor=#ffffff;dashed=0;verticalLabelPosition=bottom;verticalAlign=top;align=center;fontSize=12;fontStyle=0;aspect=fixed;shape=mxgraph.aws4.resourceIcon;resIcon=mxgraph.aws4.eventbridge;fontFamily=Rubik;fontSource=https%3A%2F%2Ffonts.googleapis.com%2Fcss%3Ffamily%3DRubik;" parent="GtGg8OWwIk_APVO-yhgV-92" vertex="1">
          <mxGeometry x="40" width="40" height="40" as="geometry" />
        </mxCell>
        <mxCell id="GtGg8OWwIk_APVO-yhgV-96" value="" style="sketch=0;points=[[0,0,0],[0.25,0,0],[0.5,0,0],[0.75,0,0],[1,0,0],[0,1,0],[0.25,1,0],[0.5,1,0],[0.75,1,0],[1,1,0],[0,0.25,0],[0,0.5,0],[0,0.75,0],[1,0.25,0],[1,0.5,0],[1,0.75,0]];outlineConnect=0;fontColor=#232F3E;gradientColor=#60A337;gradientDirection=north;fillColor=#277116;strokeColor=#ffffff;dashed=0;verticalLabelPosition=bottom;verticalAlign=top;align=center;fontSize=12;fontStyle=0;aspect=fixed;shape=mxgraph.aws4.resourceIcon;resIcon=mxgraph.aws4.s3;fontFamily=Rubik;fontSource=https%3A%2F%2Ffonts.googleapis.com%2Fcss%3Ffamily%3DRubik;" parent="GtGg8OWwIk_APVO-yhgV-92" vertex="1">
          <mxGeometry x="40" y="40" width="40" height="40" as="geometry" />
        </mxCell>
        <mxCell id="GtGg8OWwIk_APVO-yhgV-97" value="" style="sketch=0;points=[[0,0,0],[0.25,0,0],[0.5,0,0],[0.75,0,0],[1,0,0],[0,1,0],[0.25,1,0],[0.5,1,0],[0.75,1,0],[1,1,0],[0,0.25,0],[0,0.5,0],[0,0.75,0],[1,0.25,0],[1,0.5,0],[1,0.75,0]];outlineConnect=0;fontColor=#232F3E;gradientColor=#F78E04;gradientDirection=north;fillColor=#D05C17;strokeColor=#ffffff;dashed=0;verticalLabelPosition=bottom;verticalAlign=top;align=center;fontSize=12;fontStyle=0;aspect=fixed;shape=mxgraph.aws4.resourceIcon;resIcon=mxgraph.aws4.fargate;fontFamily=Rubik;fontSource=https%3A%2F%2Ffonts.googleapis.com%2Fcss%3Ffamily%3DRubik;" parent="GtGg8OWwIk_APVO-yhgV-92" vertex="1">
          <mxGeometry x="120" width="40" height="40" as="geometry" />
        </mxCell>
        <mxCell id="GtGg8OWwIk_APVO-yhgV-98" value="" style="sketch=0;points=[[0,0,0],[0.25,0,0],[0.5,0,0],[0.75,0,0],[1,0,0],[0,1,0],[0.25,1,0],[0.5,1,0],[0.75,1,0],[1,1,0],[0,0.25,0],[0,0.5,0],[0,0.75,0],[1,0.25,0],[1,0.5,0],[1,0.75,0]];outlineConnect=0;fontColor=#232F3E;gradientColor=#945DF2;gradientDirection=north;fillColor=#5A30B5;strokeColor=#ffffff;dashed=0;verticalLabelPosition=bottom;verticalAlign=top;align=center;fontSize=12;fontStyle=0;aspect=fixed;shape=mxgraph.aws4.resourceIcon;resIcon=mxgraph.aws4.cloudfront;fontFamily=Rubik;fontSource=https%3A%2F%2Ffonts.googleapis.com%2Fcss%3Ffamily%3DRubik;" parent="GtGg8OWwIk_APVO-yhgV-92" vertex="1">
          <mxGeometry x="120" y="40" width="40" height="40" as="geometry" />
        </mxCell>
        <mxCell id="GtGg8OWwIk_APVO-yhgV-99" value="" style="sketch=0;points=[[0,0,0],[0.25,0,0],[0.5,0,0],[0.75,0,0],[1,0,0],[0,1,0],[0.25,1,0],[0.5,1,0],[0.75,1,0],[1,1,0],[0,0.25,0],[0,0.5,0],[0,0.75,0],[1,0.25,0],[1,0.5,0],[1,0.75,0]];outlineConnect=0;fontColor=#232F3E;gradientColor=#4D72F3;gradientDirection=north;fillColor=#3334B9;strokeColor=#ffffff;dashed=0;verticalLabelPosition=bottom;verticalAlign=top;align=center;fontSize=12;fontStyle=0;aspect=fixed;shape=mxgraph.aws4.resourceIcon;resIcon=mxgraph.aws4.rds;fontFamily=Rubik;fontSource=https%3A%2F%2Ffonts.googleapis.com%2Fcss%3Ffamily%3DRubik;" parent="GtGg8OWwIk_APVO-yhgV-92" vertex="1">
          <mxGeometry x="80" y="40" width="40" height="40" as="geometry" />
        </mxCell>
        <mxCell id="GtGg8OWwIk_APVO-yhgV-100" value="" style="sketch=0;points=[[0,0,0],[0.25,0,0],[0.5,0,0],[0.75,0,0],[1,0,0],[0,1,0],[0.25,1,0],[0.5,1,0],[0.75,1,0],[1,1,0],[0,0.25,0],[0,0.5,0],[0,0.75,0],[1,0.25,0],[1,0.5,0],[1,0.75,0]];outlineConnect=0;fontColor=#232F3E;gradientColor=#4D72F3;gradientDirection=north;fillColor=#3334B9;strokeColor=#ffffff;dashed=0;verticalLabelPosition=bottom;verticalAlign=top;align=center;fontSize=12;fontStyle=0;aspect=fixed;shape=mxgraph.aws4.resourceIcon;resIcon=mxgraph.aws4.dynamodb;fontFamily=Rubik;fontSource=https%3A%2F%2Ffonts.googleapis.com%2Fcss%3Ffamily%3DRubik;" parent="GtGg8OWwIk_APVO-yhgV-92" vertex="1">
          <mxGeometry y="40" width="40" height="40" as="geometry" />
        </mxCell>
        <mxCell id="GtGg8OWwIk_APVO-yhgV-101" value="" style="outlineConnect=0;gradientColor=none;fontSize=16;fontStyle=0;strokeColor=#FF0080;fillColor=none;verticalAlign=top;align=center;fontColor=#90A6C2;spacingTop=3;fontFamily=Rubik;strokeWidth=2;fontSource=https%3A%2F%2Ffonts.googleapis.com%2Fcss%3Ffamily%3DRubik;" parent="GtGg8OWwIk_APVO-yhgV-87" vertex="1">
          <mxGeometry y="160" width="160" height="80" as="geometry" />
        </mxCell>
        <mxCell id="GtGg8OWwIk_APVO-yhgV-112" value="" style="endArrow=classic;rounded=0;fontFamily=Rubik;fontSize=14;fontColor=#FFFFFF;strokeColor=#E5CCFF;startArrow=baseDash;startFill=0;fontSource=https%3A%2F%2Ffonts.googleapis.com%2Fcss%3Ffamily%3DRubik;" parent="Ekgx-9tqe5oH1XvIg5s0-1" edge="1">
          <mxGeometry width="50" height="50" relative="1" as="geometry">
            <mxPoint x="1080" y="240" as="sourcePoint" />
            <mxPoint x="1960" y="240" as="targetPoint" />
          </mxGeometry>
        </mxCell>
        <mxCell id="GtGg8OWwIk_APVO-yhgV-113" value="Environment Deployment Pipeline Order" style="text;align=left;verticalAlign=middle;resizable=0;points=[];autosize=1;strokeColor=none;fillColor=none;fontSize=16;fontFamily=Rubik;fontColor=#E5CCFF;fontStyle=2;fontSource=https%3A%2F%2Ffonts.googleapis.com%2Fcss%3Ffamily%3DRubik;" parent="Ekgx-9tqe5oH1XvIg5s0-1" vertex="1">
          <mxGeometry x="1080" y="253" width="320" height="35" as="geometry" />
        </mxCell>
        <mxCell id="GtGg8OWwIk_APVO-yhgV-114" value="" style="endArrow=none;rounded=0;fontFamily=Rubik;fontSize=14;fontColor=#E5CCFF;strokeColor=#90A6C2;fontSource=https%3A%2F%2Ffonts.googleapis.com%2Fcss%3Ffamily%3DRubik;" parent="Ekgx-9tqe5oH1XvIg5s0-1" edge="1">
          <mxGeometry width="50" height="50" relative="1" as="geometry">
            <mxPoint x="880" y="-360" as="sourcePoint" />
            <mxPoint x="2060" y="-360" as="targetPoint" />
          </mxGeometry>
        </mxCell>
        <mxCell id="GtGg8OWwIk_APVO-yhgV-115" value="1x Accounts" style="text;align=left;verticalAlign=middle;resizable=0;points=[];autosize=1;strokeColor=none;fillColor=none;fontSize=23;fontFamily=Rubik;fontColor=#90A6C2;fontSource=https%3A%2F%2Ffonts.googleapis.com%2Fcss%3Ffamily%3DRubik;" parent="Ekgx-9tqe5oH1XvIg5s0-1" vertex="1">
          <mxGeometry x="880" y="-407" width="150" height="45" as="geometry" />
        </mxCell>
        <mxCell id="gqj4QXDqoSQ3i4KwjtbG-0" value="" style="group;fontFamily=Rubik;fontSource=https%3A%2F%2Ffonts.googleapis.com%2Fcss%3Ffamily%3DRubik;" parent="Ekgx-9tqe5oH1XvIg5s0-1" vertex="1" connectable="0">
          <mxGeometry x="900" y="-260" width="160" height="240" as="geometry" />
        </mxCell>
        <mxCell id="GtGg8OWwIk_APVO-yhgV-18" value="" style="group;fontFamily=Rubik;fontSource=https%3A%2F%2Ffonts.googleapis.com%2Fcss%3Ffamily%3DRubik;" parent="gqj4QXDqoSQ3i4KwjtbG-0" vertex="1" connectable="0">
          <mxGeometry y="160" width="160" height="80" as="geometry" />
        </mxCell>
        <mxCell id="GtGg8OWwIk_APVO-yhgV-19" value="" style="sketch=0;points=[[0,0,0],[0.25,0,0],[0.5,0,0],[0.75,0,0],[1,0,0],[0,1,0],[0.25,1,0],[0.5,1,0],[0.75,1,0],[1,1,0],[0,0.25,0],[0,0.5,0],[0,0.75,0],[1,0.25,0],[1,0.5,0],[1,0.75,0]];outlineConnect=0;fontColor=#232F3E;gradientColor=#F78E04;gradientDirection=north;fillColor=#D05C17;strokeColor=#ffffff;dashed=0;verticalLabelPosition=bottom;verticalAlign=top;align=center;fontSize=12;fontStyle=0;aspect=fixed;shape=mxgraph.aws4.resourceIcon;resIcon=mxgraph.aws4.lambda;fontFamily=Rubik;fontSource=https%3A%2F%2Ffonts.googleapis.com%2Fcss%3Ffamily%3DRubik;" parent="GtGg8OWwIk_APVO-yhgV-18" vertex="1">
          <mxGeometry width="40" height="40" as="geometry" />
        </mxCell>
        <mxCell id="GtGg8OWwIk_APVO-yhgV-20" value="" style="sketch=0;points=[[0,0,0],[0.25,0,0],[0.5,0,0],[0.75,0,0],[1,0,0],[0,1,0],[0.25,1,0],[0.5,1,0],[0.75,1,0],[1,1,0],[0,0.25,0],[0,0.5,0],[0,0.75,0],[1,0.25,0],[1,0.5,0],[1,0.75,0]];outlineConnect=0;fontColor=#232F3E;gradientColor=#945DF2;gradientDirection=north;fillColor=#5A30B5;strokeColor=#ffffff;dashed=0;verticalLabelPosition=bottom;verticalAlign=top;align=center;fontSize=12;fontStyle=0;aspect=fixed;shape=mxgraph.aws4.resourceIcon;resIcon=mxgraph.aws4.api_gateway;fontFamily=Rubik;fontSource=https%3A%2F%2Ffonts.googleapis.com%2Fcss%3Ffamily%3DRubik;" parent="GtGg8OWwIk_APVO-yhgV-18" vertex="1">
          <mxGeometry x="80" width="40" height="40" as="geometry" />
        </mxCell>
        <mxCell id="GtGg8OWwIk_APVO-yhgV-21" value="" style="sketch=0;points=[[0,0,0],[0.25,0,0],[0.5,0,0],[0.75,0,0],[1,0,0],[0,1,0],[0.25,1,0],[0.5,1,0],[0.75,1,0],[1,1,0],[0,0.25,0],[0,0.5,0],[0,0.75,0],[1,0.25,0],[1,0.5,0],[1,0.75,0]];outlineConnect=0;fontColor=#232F3E;gradientColor=#FF4F8B;gradientDirection=north;fillColor=#BC1356;strokeColor=#ffffff;dashed=0;verticalLabelPosition=bottom;verticalAlign=top;align=center;fontSize=12;fontStyle=0;aspect=fixed;shape=mxgraph.aws4.resourceIcon;resIcon=mxgraph.aws4.eventbridge;fontFamily=Rubik;fontSource=https%3A%2F%2Ffonts.googleapis.com%2Fcss%3Ffamily%3DRubik;" parent="GtGg8OWwIk_APVO-yhgV-18" vertex="1">
          <mxGeometry x="40" width="40" height="40" as="geometry" />
        </mxCell>
        <mxCell id="GtGg8OWwIk_APVO-yhgV-22" value="" style="sketch=0;points=[[0,0,0],[0.25,0,0],[0.5,0,0],[0.75,0,0],[1,0,0],[0,1,0],[0.25,1,0],[0.5,1,0],[0.75,1,0],[1,1,0],[0,0.25,0],[0,0.5,0],[0,0.75,0],[1,0.25,0],[1,0.5,0],[1,0.75,0]];outlineConnect=0;fontColor=#232F3E;gradientColor=#60A337;gradientDirection=north;fillColor=#277116;strokeColor=#ffffff;dashed=0;verticalLabelPosition=bottom;verticalAlign=top;align=center;fontSize=12;fontStyle=0;aspect=fixed;shape=mxgraph.aws4.resourceIcon;resIcon=mxgraph.aws4.s3;fontFamily=Rubik;fontSource=https%3A%2F%2Ffonts.googleapis.com%2Fcss%3Ffamily%3DRubik;" parent="GtGg8OWwIk_APVO-yhgV-18" vertex="1">
          <mxGeometry x="40" y="40" width="40" height="40" as="geometry" />
        </mxCell>
        <mxCell id="GtGg8OWwIk_APVO-yhgV-23" value="" style="sketch=0;points=[[0,0,0],[0.25,0,0],[0.5,0,0],[0.75,0,0],[1,0,0],[0,1,0],[0.25,1,0],[0.5,1,0],[0.75,1,0],[1,1,0],[0,0.25,0],[0,0.5,0],[0,0.75,0],[1,0.25,0],[1,0.5,0],[1,0.75,0]];outlineConnect=0;fontColor=#232F3E;gradientColor=#F78E04;gradientDirection=north;fillColor=#D05C17;strokeColor=#ffffff;dashed=0;verticalLabelPosition=bottom;verticalAlign=top;align=center;fontSize=12;fontStyle=0;aspect=fixed;shape=mxgraph.aws4.resourceIcon;resIcon=mxgraph.aws4.fargate;fontFamily=Rubik;fontSource=https%3A%2F%2Ffonts.googleapis.com%2Fcss%3Ffamily%3DRubik;" parent="GtGg8OWwIk_APVO-yhgV-18" vertex="1">
          <mxGeometry x="120" width="40" height="40" as="geometry" />
        </mxCell>
        <mxCell id="GtGg8OWwIk_APVO-yhgV-24" value="" style="sketch=0;points=[[0,0,0],[0.25,0,0],[0.5,0,0],[0.75,0,0],[1,0,0],[0,1,0],[0.25,1,0],[0.5,1,0],[0.75,1,0],[1,1,0],[0,0.25,0],[0,0.5,0],[0,0.75,0],[1,0.25,0],[1,0.5,0],[1,0.75,0]];outlineConnect=0;fontColor=#232F3E;gradientColor=#945DF2;gradientDirection=north;fillColor=#5A30B5;strokeColor=#ffffff;dashed=0;verticalLabelPosition=bottom;verticalAlign=top;align=center;fontSize=12;fontStyle=0;aspect=fixed;shape=mxgraph.aws4.resourceIcon;resIcon=mxgraph.aws4.cloudfront;fontFamily=Rubik;fontSource=https%3A%2F%2Ffonts.googleapis.com%2Fcss%3Ffamily%3DRubik;" parent="GtGg8OWwIk_APVO-yhgV-18" vertex="1">
          <mxGeometry x="120" y="40" width="40" height="40" as="geometry" />
        </mxCell>
        <mxCell id="GtGg8OWwIk_APVO-yhgV-25" value="" style="sketch=0;points=[[0,0,0],[0.25,0,0],[0.5,0,0],[0.75,0,0],[1,0,0],[0,1,0],[0.25,1,0],[0.5,1,0],[0.75,1,0],[1,1,0],[0,0.25,0],[0,0.5,0],[0,0.75,0],[1,0.25,0],[1,0.5,0],[1,0.75,0]];outlineConnect=0;fontColor=#232F3E;gradientColor=#4D72F3;gradientDirection=north;fillColor=#3334B9;strokeColor=#ffffff;dashed=0;verticalLabelPosition=bottom;verticalAlign=top;align=center;fontSize=12;fontStyle=0;aspect=fixed;shape=mxgraph.aws4.resourceIcon;resIcon=mxgraph.aws4.rds;fontFamily=Rubik;fontSource=https%3A%2F%2Ffonts.googleapis.com%2Fcss%3Ffamily%3DRubik;" parent="GtGg8OWwIk_APVO-yhgV-18" vertex="1">
          <mxGeometry x="80" y="40" width="40" height="40" as="geometry" />
        </mxCell>
        <mxCell id="GtGg8OWwIk_APVO-yhgV-26" value="" style="sketch=0;points=[[0,0,0],[0.25,0,0],[0.5,0,0],[0.75,0,0],[1,0,0],[0,1,0],[0.25,1,0],[0.5,1,0],[0.75,1,0],[1,1,0],[0,0.25,0],[0,0.5,0],[0,0.75,0],[1,0.25,0],[1,0.5,0],[1,0.75,0]];outlineConnect=0;fontColor=#232F3E;gradientColor=#4D72F3;gradientDirection=north;fillColor=#3334B9;strokeColor=#ffffff;dashed=0;verticalLabelPosition=bottom;verticalAlign=top;align=center;fontSize=12;fontStyle=0;aspect=fixed;shape=mxgraph.aws4.resourceIcon;resIcon=mxgraph.aws4.dynamodb;fontFamily=Rubik;fontSource=https%3A%2F%2Ffonts.googleapis.com%2Fcss%3Ffamily%3DRubik;" parent="GtGg8OWwIk_APVO-yhgV-18" vertex="1">
          <mxGeometry y="40" width="40" height="40" as="geometry" />
        </mxCell>
        <mxCell id="GtGg8OWwIk_APVO-yhgV-13" value="" style="outlineConnect=0;gradientColor=none;fontSize=16;fontStyle=0;strokeColor=#90A6C2;fillColor=none;verticalAlign=top;align=center;fontColor=#90A6C2;spacingTop=3;fontFamily=Rubik;strokeWidth=2;fontSource=https%3A%2F%2Ffonts.googleapis.com%2Fcss%3Ffamily%3DRubik;" parent="gqj4QXDqoSQ3i4KwjtbG-0" vertex="1">
          <mxGeometry y="160" width="160" height="80" as="geometry" />
        </mxCell>
        <mxCell id="GtGg8OWwIk_APVO-yhgV-14" value="development" style="fontFamily=Rubik;fontSize=22;fontColor=#ffffff;strokeColor=#90A6C2;strokeWidth=2;fillColor=#90A6C2;spacingTop=8;fontSource=https%3A%2F%2Ffonts.googleapis.com%2Fcss%3Ffamily%3DRubik;" parent="gqj4QXDqoSQ3i4KwjtbG-0" vertex="1">
          <mxGeometry width="160" height="40" as="geometry" />
        </mxCell>
        <mxCell id="GtGg8OWwIk_APVO-yhgV-15" value="OPTIONAL" style="fontFamily=Rubik;fontSize=16;fontColor=#FFFFFF;strokeColor=#90A6C2;strokeWidth=2;fillColor=#39414D;spacingBottom=1;fontStyle=2;textOpacity=50;fontSource=https%3A%2F%2Ffonts.googleapis.com%2Fcss%3Ffamily%3DRubik;" parent="gqj4QXDqoSQ3i4KwjtbG-0" vertex="1">
          <mxGeometry y="80" width="160" height="40" as="geometry" />
        </mxCell>
        <mxCell id="GtGg8OWwIk_APVO-yhgV-16" value="long-lived" style="fontFamily=Rubik;fontSize=16;fontColor=#FFFFFF;strokeColor=#90A6C2;strokeWidth=2;fillColor=#39414D;spacingBottom=1;fontStyle=2;fontSource=https%3A%2F%2Ffonts.googleapis.com%2Fcss%3Ffamily%3DRubik;" parent="gqj4QXDqoSQ3i4KwjtbG-0" vertex="1">
          <mxGeometry y="120" width="160" height="40" as="geometry" />
        </mxCell>
        <mxCell id="GtGg8OWwIk_APVO-yhgV-17" value="environment" style="fontFamily=Rubik;fontSize=16;fontColor=#ffffff;strokeColor=#90A6C2;strokeWidth=2;fillColor=#90A6C2;textOpacity=50;labelPosition=center;verticalLabelPosition=middle;align=center;verticalAlign=middle;spacingBottom=16;fontSource=https%3A%2F%2Ffonts.googleapis.com%2Fcss%3Ffamily%3DRubik;" parent="gqj4QXDqoSQ3i4KwjtbG-0" vertex="1">
          <mxGeometry y="40" width="160" height="40" as="geometry" />
        </mxCell>
      </root>
    </mxGraphModel>
  </diagram>
  <diagram id="Qsk9rzIUu03gKV18Ktm-" name="2x">
    <mxGraphModel dx="233" dy="1020" grid="1" gridSize="5" guides="1" tooltips="1" connect="1" arrows="1" fold="1" page="0" pageScale="1" pageWidth="2336" pageHeight="1654" math="0" shadow="0">
      <root>
        <mxCell id="0" />
        <mxCell id="1" parent="0" />
        <mxCell id="Sqw8GNEDAYzzVDHvP1Ay-1" value="dev account" style="sketch=0;outlineConnect=0;gradientColor=none;fontSize=16;fontStyle=0;shape=mxgraph.aws4.group;grIcon=mxgraph.aws4.group_aws_cloud;strokeColor=#AAB7B8;fillColor=none;verticalAlign=top;align=left;spacingLeft=30;fontColor=#AAB7B8;dashed=0;fontFamily=Rubik;" parent="1" vertex="1">
          <mxGeometry x="880" y="-300" width="740" height="520" as="geometry" />
        </mxCell>
        <mxCell id="Sqw8GNEDAYzzVDHvP1Ay-3" value="prod account" style="sketch=0;outlineConnect=0;gradientColor=none;fontSize=16;fontStyle=0;shape=mxgraph.aws4.group;grIcon=mxgraph.aws4.group_aws_cloud;strokeColor=#AAB7B8;fillColor=none;verticalAlign=top;align=left;spacingLeft=30;fontColor=#AAB7B8;dashed=0;fontFamily=Rubik;" parent="1" vertex="1">
          <mxGeometry x="1640" y="-300" width="380" height="520" as="geometry" />
        </mxCell>
        <mxCell id="Sqw8GNEDAYzzVDHvP1Ay-4" value="" style="endArrow=none;dashed=1;strokeWidth=2;rounded=0;fontFamily=Rubik;fontSize=14;fontColor=#FFFFFF;strokeColor=#5C5C5C;" parent="1" edge="1">
          <mxGeometry width="50" height="50" relative="1" as="geometry">
            <mxPoint x="900" y="20" as="sourcePoint" />
            <mxPoint x="1600" y="20" as="targetPoint" />
          </mxGeometry>
        </mxCell>
        <mxCell id="Sqw8GNEDAYzzVDHvP1Ay-30" value="" style="group" parent="1" vertex="1" connectable="0">
          <mxGeometry x="1080" y="-240" width="160" height="240" as="geometry" />
        </mxCell>
        <mxCell id="Sqw8GNEDAYzzVDHvP1Ay-31" value="feature" style="fontFamily=Rubik;fontSize=22;fontColor=#ffffff;strokeColor=#6A00FF;strokeWidth=2;fillColor=#6a00ff;spacingTop=8;" parent="Sqw8GNEDAYzzVDHvP1Ay-30" vertex="1">
          <mxGeometry width="160" height="40" as="geometry" />
        </mxCell>
        <mxCell id="Sqw8GNEDAYzzVDHvP1Ay-32" value="environment(s)" style="fontFamily=Rubik;fontSize=16;fontColor=#ffffff;strokeColor=#6A00FF;strokeWidth=2;fillColor=#6a00ff;spacingBottom=16;textOpacity=50;" parent="Sqw8GNEDAYzzVDHvP1Ay-30" vertex="1">
          <mxGeometry y="40" width="160" height="40" as="geometry" />
        </mxCell>
        <mxCell id="Sqw8GNEDAYzzVDHvP1Ay-33" value="short-lived" style="fontFamily=Rubik;fontSize=16;fontColor=#FFFFFF;strokeColor=#6A00FF;strokeWidth=2;fillColor=#1C0042;spacingBottom=1;fontStyle=2" parent="Sqw8GNEDAYzzVDHvP1Ay-30" vertex="1">
          <mxGeometry y="120" width="160" height="40" as="geometry" />
        </mxCell>
        <mxCell id="Sqw8GNEDAYzzVDHvP1Ay-34" value="OPTIONAL" style="fontFamily=Rubik;fontSize=16;fontColor=#FFFFFF;strokeColor=#6A00FF;strokeWidth=2;fillColor=#1C0042;spacingBottom=1;fontStyle=2;textOpacity=50;" parent="Sqw8GNEDAYzzVDHvP1Ay-30" vertex="1">
          <mxGeometry y="80" width="160" height="40" as="geometry" />
        </mxCell>
        <mxCell id="Sqw8GNEDAYzzVDHvP1Ay-35" value="" style="group" parent="Sqw8GNEDAYzzVDHvP1Ay-30" vertex="1" connectable="0">
          <mxGeometry y="160" width="160" height="80" as="geometry" />
        </mxCell>
        <mxCell id="Sqw8GNEDAYzzVDHvP1Ay-36" value="" style="sketch=0;points=[[0,0,0],[0.25,0,0],[0.5,0,0],[0.75,0,0],[1,0,0],[0,1,0],[0.25,1,0],[0.5,1,0],[0.75,1,0],[1,1,0],[0,0.25,0],[0,0.5,0],[0,0.75,0],[1,0.25,0],[1,0.5,0],[1,0.75,0]];outlineConnect=0;fontColor=#232F3E;gradientColor=#F78E04;gradientDirection=north;fillColor=#D05C17;strokeColor=#ffffff;dashed=0;verticalLabelPosition=bottom;verticalAlign=top;align=center;fontSize=12;fontStyle=0;aspect=fixed;shape=mxgraph.aws4.resourceIcon;resIcon=mxgraph.aws4.lambda;fontFamily=Rubik;" parent="Sqw8GNEDAYzzVDHvP1Ay-35" vertex="1">
          <mxGeometry width="40" height="40" as="geometry" />
        </mxCell>
        <mxCell id="Sqw8GNEDAYzzVDHvP1Ay-37" value="" style="sketch=0;points=[[0,0,0],[0.25,0,0],[0.5,0,0],[0.75,0,0],[1,0,0],[0,1,0],[0.25,1,0],[0.5,1,0],[0.75,1,0],[1,1,0],[0,0.25,0],[0,0.5,0],[0,0.75,0],[1,0.25,0],[1,0.5,0],[1,0.75,0]];outlineConnect=0;fontColor=#232F3E;gradientColor=#945DF2;gradientDirection=north;fillColor=#5A30B5;strokeColor=#ffffff;dashed=0;verticalLabelPosition=bottom;verticalAlign=top;align=center;fontSize=12;fontStyle=0;aspect=fixed;shape=mxgraph.aws4.resourceIcon;resIcon=mxgraph.aws4.api_gateway;fontFamily=Rubik;" parent="Sqw8GNEDAYzzVDHvP1Ay-35" vertex="1">
          <mxGeometry x="80" width="40" height="40" as="geometry" />
        </mxCell>
        <mxCell id="Sqw8GNEDAYzzVDHvP1Ay-38" value="" style="sketch=0;points=[[0,0,0],[0.25,0,0],[0.5,0,0],[0.75,0,0],[1,0,0],[0,1,0],[0.25,1,0],[0.5,1,0],[0.75,1,0],[1,1,0],[0,0.25,0],[0,0.5,0],[0,0.75,0],[1,0.25,0],[1,0.5,0],[1,0.75,0]];outlineConnect=0;fontColor=#232F3E;gradientColor=#FF4F8B;gradientDirection=north;fillColor=#BC1356;strokeColor=#ffffff;dashed=0;verticalLabelPosition=bottom;verticalAlign=top;align=center;fontSize=12;fontStyle=0;aspect=fixed;shape=mxgraph.aws4.resourceIcon;resIcon=mxgraph.aws4.eventbridge;fontFamily=Rubik;" parent="Sqw8GNEDAYzzVDHvP1Ay-35" vertex="1">
          <mxGeometry x="40" width="40" height="40" as="geometry" />
        </mxCell>
        <mxCell id="Sqw8GNEDAYzzVDHvP1Ay-39" value="" style="sketch=0;points=[[0,0,0],[0.25,0,0],[0.5,0,0],[0.75,0,0],[1,0,0],[0,1,0],[0.25,1,0],[0.5,1,0],[0.75,1,0],[1,1,0],[0,0.25,0],[0,0.5,0],[0,0.75,0],[1,0.25,0],[1,0.5,0],[1,0.75,0]];outlineConnect=0;fontColor=#232F3E;gradientColor=#60A337;gradientDirection=north;fillColor=#277116;strokeColor=#ffffff;dashed=0;verticalLabelPosition=bottom;verticalAlign=top;align=center;fontSize=12;fontStyle=0;aspect=fixed;shape=mxgraph.aws4.resourceIcon;resIcon=mxgraph.aws4.s3;fontFamily=Rubik;" parent="Sqw8GNEDAYzzVDHvP1Ay-35" vertex="1">
          <mxGeometry x="40" y="40" width="40" height="40" as="geometry" />
        </mxCell>
        <mxCell id="Sqw8GNEDAYzzVDHvP1Ay-40" value="" style="sketch=0;points=[[0,0,0],[0.25,0,0],[0.5,0,0],[0.75,0,0],[1,0,0],[0,1,0],[0.25,1,0],[0.5,1,0],[0.75,1,0],[1,1,0],[0,0.25,0],[0,0.5,0],[0,0.75,0],[1,0.25,0],[1,0.5,0],[1,0.75,0]];outlineConnect=0;fontColor=#232F3E;gradientColor=#F78E04;gradientDirection=north;fillColor=#D05C17;strokeColor=#ffffff;dashed=0;verticalLabelPosition=bottom;verticalAlign=top;align=center;fontSize=12;fontStyle=0;aspect=fixed;shape=mxgraph.aws4.resourceIcon;resIcon=mxgraph.aws4.fargate;fontFamily=Rubik;" parent="Sqw8GNEDAYzzVDHvP1Ay-35" vertex="1">
          <mxGeometry x="120" width="40" height="40" as="geometry" />
        </mxCell>
        <mxCell id="Sqw8GNEDAYzzVDHvP1Ay-41" value="" style="sketch=0;points=[[0,0,0],[0.25,0,0],[0.5,0,0],[0.75,0,0],[1,0,0],[0,1,0],[0.25,1,0],[0.5,1,0],[0.75,1,0],[1,1,0],[0,0.25,0],[0,0.5,0],[0,0.75,0],[1,0.25,0],[1,0.5,0],[1,0.75,0]];outlineConnect=0;fontColor=#232F3E;gradientColor=#945DF2;gradientDirection=north;fillColor=#5A30B5;strokeColor=#ffffff;dashed=0;verticalLabelPosition=bottom;verticalAlign=top;align=center;fontSize=12;fontStyle=0;aspect=fixed;shape=mxgraph.aws4.resourceIcon;resIcon=mxgraph.aws4.cloudfront;fontFamily=Rubik;" parent="Sqw8GNEDAYzzVDHvP1Ay-35" vertex="1">
          <mxGeometry x="120" y="40" width="40" height="40" as="geometry" />
        </mxCell>
        <mxCell id="Sqw8GNEDAYzzVDHvP1Ay-42" value="" style="sketch=0;points=[[0,0,0],[0.25,0,0],[0.5,0,0],[0.75,0,0],[1,0,0],[0,1,0],[0.25,1,0],[0.5,1,0],[0.75,1,0],[1,1,0],[0,0.25,0],[0,0.5,0],[0,0.75,0],[1,0.25,0],[1,0.5,0],[1,0.75,0]];outlineConnect=0;fontColor=#232F3E;gradientColor=#4D72F3;gradientDirection=north;fillColor=#3334B9;strokeColor=#ffffff;dashed=0;verticalLabelPosition=bottom;verticalAlign=top;align=center;fontSize=12;fontStyle=0;aspect=fixed;shape=mxgraph.aws4.resourceIcon;resIcon=mxgraph.aws4.rds;fontFamily=Rubik;" parent="Sqw8GNEDAYzzVDHvP1Ay-35" vertex="1">
          <mxGeometry x="80" y="40" width="40" height="40" as="geometry" />
        </mxCell>
        <mxCell id="Sqw8GNEDAYzzVDHvP1Ay-43" value="" style="sketch=0;points=[[0,0,0],[0.25,0,0],[0.5,0,0],[0.75,0,0],[1,0,0],[0,1,0],[0.25,1,0],[0.5,1,0],[0.75,1,0],[1,1,0],[0,0.25,0],[0,0.5,0],[0,0.75,0],[1,0.25,0],[1,0.5,0],[1,0.75,0]];outlineConnect=0;fontColor=#232F3E;gradientColor=#4D72F3;gradientDirection=north;fillColor=#3334B9;strokeColor=#ffffff;dashed=0;verticalLabelPosition=bottom;verticalAlign=top;align=center;fontSize=12;fontStyle=0;aspect=fixed;shape=mxgraph.aws4.resourceIcon;resIcon=mxgraph.aws4.dynamodb;fontFamily=Rubik;" parent="Sqw8GNEDAYzzVDHvP1Ay-35" vertex="1">
          <mxGeometry y="40" width="40" height="40" as="geometry" />
        </mxCell>
        <mxCell id="Sqw8GNEDAYzzVDHvP1Ay-44" value="" style="outlineConnect=0;gradientColor=none;fontSize=16;fontStyle=0;strokeColor=#6A00FF;fillColor=none;verticalAlign=top;align=center;fontColor=#90A6C2;spacingTop=3;fontFamily=Rubik;strokeWidth=2;" parent="Sqw8GNEDAYzzVDHvP1Ay-30" vertex="1">
          <mxGeometry y="160" width="160" height="80" as="geometry" />
        </mxCell>
        <mxCell id="Sqw8GNEDAYzzVDHvP1Ay-45" value="" style="group" parent="1" vertex="1" connectable="0">
          <mxGeometry x="1260" y="-240" width="160" height="240" as="geometry" />
        </mxCell>
        <mxCell id="Sqw8GNEDAYzzVDHvP1Ay-46" value="test" style="fontFamily=Rubik;fontSize=22;fontColor=#ffffff;strokeColor=#21C0A5;strokeWidth=2;fillColor=#21C0A5;spacingTop=8;" parent="Sqw8GNEDAYzzVDHvP1Ay-45" vertex="1">
          <mxGeometry width="160" height="40" as="geometry" />
        </mxCell>
        <mxCell id="Sqw8GNEDAYzzVDHvP1Ay-47" value="for QA purposes" style="fontFamily=Rubik;fontSize=16;fontColor=#FFFFFF;strokeColor=#21C0A5;strokeWidth=2;fillColor=#0B3D35;spacingBottom=1;fontStyle=2" parent="Sqw8GNEDAYzzVDHvP1Ay-45" vertex="1">
          <mxGeometry y="120" width="160" height="40" as="geometry" />
        </mxCell>
        <mxCell id="Sqw8GNEDAYzzVDHvP1Ay-48" value="environment" style="fontFamily=Rubik;fontSize=16;fontColor=#ffffff;strokeColor=#21C0A5;strokeWidth=2;fillColor=#21C0A5;spacingBottom=16;textOpacity=50;" parent="Sqw8GNEDAYzzVDHvP1Ay-45" vertex="1">
          <mxGeometry y="40" width="160" height="40" as="geometry" />
        </mxCell>
        <mxCell id="Sqw8GNEDAYzzVDHvP1Ay-49" value="OPTIONAL" style="fontFamily=Rubik;fontSize=16;fontColor=#FFFFFF;strokeColor=#21C0A5;strokeWidth=2;fillColor=#0B3D35;spacingBottom=1;fontStyle=2;textOpacity=50;" parent="Sqw8GNEDAYzzVDHvP1Ay-45" vertex="1">
          <mxGeometry y="80" width="160" height="40" as="geometry" />
        </mxCell>
        <mxCell id="Sqw8GNEDAYzzVDHvP1Ay-50" value="" style="group" parent="Sqw8GNEDAYzzVDHvP1Ay-45" vertex="1" connectable="0">
          <mxGeometry y="160" width="160" height="80" as="geometry" />
        </mxCell>
        <mxCell id="Sqw8GNEDAYzzVDHvP1Ay-51" value="" style="sketch=0;points=[[0,0,0],[0.25,0,0],[0.5,0,0],[0.75,0,0],[1,0,0],[0,1,0],[0.25,1,0],[0.5,1,0],[0.75,1,0],[1,1,0],[0,0.25,0],[0,0.5,0],[0,0.75,0],[1,0.25,0],[1,0.5,0],[1,0.75,0]];outlineConnect=0;fontColor=#232F3E;gradientColor=#F78E04;gradientDirection=north;fillColor=#D05C17;strokeColor=#ffffff;dashed=0;verticalLabelPosition=bottom;verticalAlign=top;align=center;fontSize=12;fontStyle=0;aspect=fixed;shape=mxgraph.aws4.resourceIcon;resIcon=mxgraph.aws4.lambda;fontFamily=Rubik;" parent="Sqw8GNEDAYzzVDHvP1Ay-50" vertex="1">
          <mxGeometry width="40" height="40" as="geometry" />
        </mxCell>
        <mxCell id="Sqw8GNEDAYzzVDHvP1Ay-52" value="" style="sketch=0;points=[[0,0,0],[0.25,0,0],[0.5,0,0],[0.75,0,0],[1,0,0],[0,1,0],[0.25,1,0],[0.5,1,0],[0.75,1,0],[1,1,0],[0,0.25,0],[0,0.5,0],[0,0.75,0],[1,0.25,0],[1,0.5,0],[1,0.75,0]];outlineConnect=0;fontColor=#232F3E;gradientColor=#945DF2;gradientDirection=north;fillColor=#5A30B5;strokeColor=#ffffff;dashed=0;verticalLabelPosition=bottom;verticalAlign=top;align=center;fontSize=12;fontStyle=0;aspect=fixed;shape=mxgraph.aws4.resourceIcon;resIcon=mxgraph.aws4.api_gateway;fontFamily=Rubik;" parent="Sqw8GNEDAYzzVDHvP1Ay-50" vertex="1">
          <mxGeometry x="80" width="40" height="40" as="geometry" />
        </mxCell>
        <mxCell id="Sqw8GNEDAYzzVDHvP1Ay-53" value="" style="sketch=0;points=[[0,0,0],[0.25,0,0],[0.5,0,0],[0.75,0,0],[1,0,0],[0,1,0],[0.25,1,0],[0.5,1,0],[0.75,1,0],[1,1,0],[0,0.25,0],[0,0.5,0],[0,0.75,0],[1,0.25,0],[1,0.5,0],[1,0.75,0]];outlineConnect=0;fontColor=#232F3E;gradientColor=#FF4F8B;gradientDirection=north;fillColor=#BC1356;strokeColor=#ffffff;dashed=0;verticalLabelPosition=bottom;verticalAlign=top;align=center;fontSize=12;fontStyle=0;aspect=fixed;shape=mxgraph.aws4.resourceIcon;resIcon=mxgraph.aws4.eventbridge;fontFamily=Rubik;" parent="Sqw8GNEDAYzzVDHvP1Ay-50" vertex="1">
          <mxGeometry x="40" width="40" height="40" as="geometry" />
        </mxCell>
        <mxCell id="Sqw8GNEDAYzzVDHvP1Ay-54" value="" style="sketch=0;points=[[0,0,0],[0.25,0,0],[0.5,0,0],[0.75,0,0],[1,0,0],[0,1,0],[0.25,1,0],[0.5,1,0],[0.75,1,0],[1,1,0],[0,0.25,0],[0,0.5,0],[0,0.75,0],[1,0.25,0],[1,0.5,0],[1,0.75,0]];outlineConnect=0;fontColor=#232F3E;gradientColor=#60A337;gradientDirection=north;fillColor=#277116;strokeColor=#ffffff;dashed=0;verticalLabelPosition=bottom;verticalAlign=top;align=center;fontSize=12;fontStyle=0;aspect=fixed;shape=mxgraph.aws4.resourceIcon;resIcon=mxgraph.aws4.s3;fontFamily=Rubik;" parent="Sqw8GNEDAYzzVDHvP1Ay-50" vertex="1">
          <mxGeometry x="40" y="40" width="40" height="40" as="geometry" />
        </mxCell>
        <mxCell id="Sqw8GNEDAYzzVDHvP1Ay-55" value="" style="sketch=0;points=[[0,0,0],[0.25,0,0],[0.5,0,0],[0.75,0,0],[1,0,0],[0,1,0],[0.25,1,0],[0.5,1,0],[0.75,1,0],[1,1,0],[0,0.25,0],[0,0.5,0],[0,0.75,0],[1,0.25,0],[1,0.5,0],[1,0.75,0]];outlineConnect=0;fontColor=#232F3E;gradientColor=#F78E04;gradientDirection=north;fillColor=#D05C17;strokeColor=#ffffff;dashed=0;verticalLabelPosition=bottom;verticalAlign=top;align=center;fontSize=12;fontStyle=0;aspect=fixed;shape=mxgraph.aws4.resourceIcon;resIcon=mxgraph.aws4.fargate;fontFamily=Rubik;" parent="Sqw8GNEDAYzzVDHvP1Ay-50" vertex="1">
          <mxGeometry x="120" width="40" height="40" as="geometry" />
        </mxCell>
        <mxCell id="Sqw8GNEDAYzzVDHvP1Ay-56" value="" style="sketch=0;points=[[0,0,0],[0.25,0,0],[0.5,0,0],[0.75,0,0],[1,0,0],[0,1,0],[0.25,1,0],[0.5,1,0],[0.75,1,0],[1,1,0],[0,0.25,0],[0,0.5,0],[0,0.75,0],[1,0.25,0],[1,0.5,0],[1,0.75,0]];outlineConnect=0;fontColor=#232F3E;gradientColor=#945DF2;gradientDirection=north;fillColor=#5A30B5;strokeColor=#ffffff;dashed=0;verticalLabelPosition=bottom;verticalAlign=top;align=center;fontSize=12;fontStyle=0;aspect=fixed;shape=mxgraph.aws4.resourceIcon;resIcon=mxgraph.aws4.cloudfront;fontFamily=Rubik;" parent="Sqw8GNEDAYzzVDHvP1Ay-50" vertex="1">
          <mxGeometry x="120" y="40" width="40" height="40" as="geometry" />
        </mxCell>
        <mxCell id="Sqw8GNEDAYzzVDHvP1Ay-57" value="" style="sketch=0;points=[[0,0,0],[0.25,0,0],[0.5,0,0],[0.75,0,0],[1,0,0],[0,1,0],[0.25,1,0],[0.5,1,0],[0.75,1,0],[1,1,0],[0,0.25,0],[0,0.5,0],[0,0.75,0],[1,0.25,0],[1,0.5,0],[1,0.75,0]];outlineConnect=0;fontColor=#232F3E;gradientColor=#4D72F3;gradientDirection=north;fillColor=#3334B9;strokeColor=#ffffff;dashed=0;verticalLabelPosition=bottom;verticalAlign=top;align=center;fontSize=12;fontStyle=0;aspect=fixed;shape=mxgraph.aws4.resourceIcon;resIcon=mxgraph.aws4.rds;fontFamily=Rubik;" parent="Sqw8GNEDAYzzVDHvP1Ay-50" vertex="1">
          <mxGeometry x="80" y="40" width="40" height="40" as="geometry" />
        </mxCell>
        <mxCell id="Sqw8GNEDAYzzVDHvP1Ay-58" value="" style="sketch=0;points=[[0,0,0],[0.25,0,0],[0.5,0,0],[0.75,0,0],[1,0,0],[0,1,0],[0.25,1,0],[0.5,1,0],[0.75,1,0],[1,1,0],[0,0.25,0],[0,0.5,0],[0,0.75,0],[1,0.25,0],[1,0.5,0],[1,0.75,0]];outlineConnect=0;fontColor=#232F3E;gradientColor=#4D72F3;gradientDirection=north;fillColor=#3334B9;strokeColor=#ffffff;dashed=0;verticalLabelPosition=bottom;verticalAlign=top;align=center;fontSize=12;fontStyle=0;aspect=fixed;shape=mxgraph.aws4.resourceIcon;resIcon=mxgraph.aws4.dynamodb;fontFamily=Rubik;" parent="Sqw8GNEDAYzzVDHvP1Ay-50" vertex="1">
          <mxGeometry y="40" width="40" height="40" as="geometry" />
        </mxCell>
        <mxCell id="Sqw8GNEDAYzzVDHvP1Ay-59" value="" style="outlineConnect=0;gradientColor=none;fontSize=16;fontStyle=0;strokeColor=#21C0A5;fillColor=none;verticalAlign=top;align=center;fontColor=#90A6C2;spacingTop=3;fontFamily=Rubik;strokeWidth=2;" parent="Sqw8GNEDAYzzVDHvP1Ay-45" vertex="1">
          <mxGeometry y="160" width="160" height="80" as="geometry" />
        </mxCell>
        <mxCell id="Sqw8GNEDAYzzVDHvP1Ay-60" value="" style="group" parent="1" vertex="1" connectable="0">
          <mxGeometry x="1440" y="-240" width="160" height="240" as="geometry" />
        </mxCell>
        <mxCell id="Sqw8GNEDAYzzVDHvP1Ay-61" value="staging" style="fontFamily=Rubik;fontSize=22;fontColor=#ffffff;strokeColor=#45A364;strokeWidth=2;fillColor=#45A364;spacingTop=8;" parent="Sqw8GNEDAYzzVDHvP1Ay-60" vertex="1">
          <mxGeometry width="160" height="40" as="geometry" />
        </mxCell>
        <mxCell id="Sqw8GNEDAYzzVDHvP1Ay-62" value="release candidate" style="fontFamily=Rubik;fontSize=16;fontColor=#FFFFFF;strokeColor=#45A364;strokeWidth=2;fillColor=#193B24;spacingBottom=1;fontStyle=2" parent="Sqw8GNEDAYzzVDHvP1Ay-60" vertex="1">
          <mxGeometry y="120" width="160" height="40" as="geometry" />
        </mxCell>
        <mxCell id="Sqw8GNEDAYzzVDHvP1Ay-63" value="environment" style="fontFamily=Rubik;fontSize=16;fontColor=#ffffff;strokeColor=#45A364;strokeWidth=2;fillColor=#45A364;spacingBottom=16;textOpacity=50;" parent="Sqw8GNEDAYzzVDHvP1Ay-60" vertex="1">
          <mxGeometry y="40" width="160" height="40" as="geometry" />
        </mxCell>
        <mxCell id="Sqw8GNEDAYzzVDHvP1Ay-64" value="REQUIRED" style="fontFamily=Rubik;fontSize=16;fontColor=#FFFFFF;strokeColor=#45A364;strokeWidth=2;fillColor=#193B24;spacingBottom=1;fontStyle=3" parent="Sqw8GNEDAYzzVDHvP1Ay-60" vertex="1">
          <mxGeometry y="80" width="160" height="40" as="geometry" />
        </mxCell>
        <mxCell id="Sqw8GNEDAYzzVDHvP1Ay-65" value="" style="group" parent="Sqw8GNEDAYzzVDHvP1Ay-60" vertex="1" connectable="0">
          <mxGeometry y="160" width="160" height="80" as="geometry" />
        </mxCell>
        <mxCell id="Sqw8GNEDAYzzVDHvP1Ay-66" value="" style="sketch=0;points=[[0,0,0],[0.25,0,0],[0.5,0,0],[0.75,0,0],[1,0,0],[0,1,0],[0.25,1,0],[0.5,1,0],[0.75,1,0],[1,1,0],[0,0.25,0],[0,0.5,0],[0,0.75,0],[1,0.25,0],[1,0.5,0],[1,0.75,0]];outlineConnect=0;fontColor=#232F3E;gradientColor=#F78E04;gradientDirection=north;fillColor=#D05C17;strokeColor=#ffffff;dashed=0;verticalLabelPosition=bottom;verticalAlign=top;align=center;fontSize=12;fontStyle=0;aspect=fixed;shape=mxgraph.aws4.resourceIcon;resIcon=mxgraph.aws4.lambda;fontFamily=Rubik;" parent="Sqw8GNEDAYzzVDHvP1Ay-65" vertex="1">
          <mxGeometry width="40" height="40" as="geometry" />
        </mxCell>
        <mxCell id="Sqw8GNEDAYzzVDHvP1Ay-67" value="" style="sketch=0;points=[[0,0,0],[0.25,0,0],[0.5,0,0],[0.75,0,0],[1,0,0],[0,1,0],[0.25,1,0],[0.5,1,0],[0.75,1,0],[1,1,0],[0,0.25,0],[0,0.5,0],[0,0.75,0],[1,0.25,0],[1,0.5,0],[1,0.75,0]];outlineConnect=0;fontColor=#232F3E;gradientColor=#945DF2;gradientDirection=north;fillColor=#5A30B5;strokeColor=#ffffff;dashed=0;verticalLabelPosition=bottom;verticalAlign=top;align=center;fontSize=12;fontStyle=0;aspect=fixed;shape=mxgraph.aws4.resourceIcon;resIcon=mxgraph.aws4.api_gateway;fontFamily=Rubik;" parent="Sqw8GNEDAYzzVDHvP1Ay-65" vertex="1">
          <mxGeometry x="80" width="40" height="40" as="geometry" />
        </mxCell>
        <mxCell id="Sqw8GNEDAYzzVDHvP1Ay-68" value="" style="sketch=0;points=[[0,0,0],[0.25,0,0],[0.5,0,0],[0.75,0,0],[1,0,0],[0,1,0],[0.25,1,0],[0.5,1,0],[0.75,1,0],[1,1,0],[0,0.25,0],[0,0.5,0],[0,0.75,0],[1,0.25,0],[1,0.5,0],[1,0.75,0]];outlineConnect=0;fontColor=#232F3E;gradientColor=#FF4F8B;gradientDirection=north;fillColor=#BC1356;strokeColor=#ffffff;dashed=0;verticalLabelPosition=bottom;verticalAlign=top;align=center;fontSize=12;fontStyle=0;aspect=fixed;shape=mxgraph.aws4.resourceIcon;resIcon=mxgraph.aws4.eventbridge;fontFamily=Rubik;" parent="Sqw8GNEDAYzzVDHvP1Ay-65" vertex="1">
          <mxGeometry x="40" width="40" height="40" as="geometry" />
        </mxCell>
        <mxCell id="Sqw8GNEDAYzzVDHvP1Ay-69" value="" style="sketch=0;points=[[0,0,0],[0.25,0,0],[0.5,0,0],[0.75,0,0],[1,0,0],[0,1,0],[0.25,1,0],[0.5,1,0],[0.75,1,0],[1,1,0],[0,0.25,0],[0,0.5,0],[0,0.75,0],[1,0.25,0],[1,0.5,0],[1,0.75,0]];outlineConnect=0;fontColor=#232F3E;gradientColor=#60A337;gradientDirection=north;fillColor=#277116;strokeColor=#ffffff;dashed=0;verticalLabelPosition=bottom;verticalAlign=top;align=center;fontSize=12;fontStyle=0;aspect=fixed;shape=mxgraph.aws4.resourceIcon;resIcon=mxgraph.aws4.s3;fontFamily=Rubik;" parent="Sqw8GNEDAYzzVDHvP1Ay-65" vertex="1">
          <mxGeometry x="40" y="40" width="40" height="40" as="geometry" />
        </mxCell>
        <mxCell id="Sqw8GNEDAYzzVDHvP1Ay-70" value="" style="sketch=0;points=[[0,0,0],[0.25,0,0],[0.5,0,0],[0.75,0,0],[1,0,0],[0,1,0],[0.25,1,0],[0.5,1,0],[0.75,1,0],[1,1,0],[0,0.25,0],[0,0.5,0],[0,0.75,0],[1,0.25,0],[1,0.5,0],[1,0.75,0]];outlineConnect=0;fontColor=#232F3E;gradientColor=#F78E04;gradientDirection=north;fillColor=#D05C17;strokeColor=#ffffff;dashed=0;verticalLabelPosition=bottom;verticalAlign=top;align=center;fontSize=12;fontStyle=0;aspect=fixed;shape=mxgraph.aws4.resourceIcon;resIcon=mxgraph.aws4.fargate;fontFamily=Rubik;" parent="Sqw8GNEDAYzzVDHvP1Ay-65" vertex="1">
          <mxGeometry x="120" width="40" height="40" as="geometry" />
        </mxCell>
        <mxCell id="Sqw8GNEDAYzzVDHvP1Ay-71" value="" style="sketch=0;points=[[0,0,0],[0.25,0,0],[0.5,0,0],[0.75,0,0],[1,0,0],[0,1,0],[0.25,1,0],[0.5,1,0],[0.75,1,0],[1,1,0],[0,0.25,0],[0,0.5,0],[0,0.75,0],[1,0.25,0],[1,0.5,0],[1,0.75,0]];outlineConnect=0;fontColor=#232F3E;gradientColor=#945DF2;gradientDirection=north;fillColor=#5A30B5;strokeColor=#ffffff;dashed=0;verticalLabelPosition=bottom;verticalAlign=top;align=center;fontSize=12;fontStyle=0;aspect=fixed;shape=mxgraph.aws4.resourceIcon;resIcon=mxgraph.aws4.cloudfront;fontFamily=Rubik;" parent="Sqw8GNEDAYzzVDHvP1Ay-65" vertex="1">
          <mxGeometry x="120" y="40" width="40" height="40" as="geometry" />
        </mxCell>
        <mxCell id="Sqw8GNEDAYzzVDHvP1Ay-72" value="" style="sketch=0;points=[[0,0,0],[0.25,0,0],[0.5,0,0],[0.75,0,0],[1,0,0],[0,1,0],[0.25,1,0],[0.5,1,0],[0.75,1,0],[1,1,0],[0,0.25,0],[0,0.5,0],[0,0.75,0],[1,0.25,0],[1,0.5,0],[1,0.75,0]];outlineConnect=0;fontColor=#232F3E;gradientColor=#4D72F3;gradientDirection=north;fillColor=#3334B9;strokeColor=#ffffff;dashed=0;verticalLabelPosition=bottom;verticalAlign=top;align=center;fontSize=12;fontStyle=0;aspect=fixed;shape=mxgraph.aws4.resourceIcon;resIcon=mxgraph.aws4.rds;fontFamily=Rubik;" parent="Sqw8GNEDAYzzVDHvP1Ay-65" vertex="1">
          <mxGeometry x="80" y="40" width="40" height="40" as="geometry" />
        </mxCell>
        <mxCell id="Sqw8GNEDAYzzVDHvP1Ay-73" value="" style="sketch=0;points=[[0,0,0],[0.25,0,0],[0.5,0,0],[0.75,0,0],[1,0,0],[0,1,0],[0.25,1,0],[0.5,1,0],[0.75,1,0],[1,1,0],[0,0.25,0],[0,0.5,0],[0,0.75,0],[1,0.25,0],[1,0.5,0],[1,0.75,0]];outlineConnect=0;fontColor=#232F3E;gradientColor=#4D72F3;gradientDirection=north;fillColor=#3334B9;strokeColor=#ffffff;dashed=0;verticalLabelPosition=bottom;verticalAlign=top;align=center;fontSize=12;fontStyle=0;aspect=fixed;shape=mxgraph.aws4.resourceIcon;resIcon=mxgraph.aws4.dynamodb;fontFamily=Rubik;" parent="Sqw8GNEDAYzzVDHvP1Ay-65" vertex="1">
          <mxGeometry y="40" width="40" height="40" as="geometry" />
        </mxCell>
        <mxCell id="Sqw8GNEDAYzzVDHvP1Ay-74" value="" style="outlineConnect=0;gradientColor=none;fontSize=16;fontStyle=0;strokeColor=#45A364;fillColor=none;verticalAlign=top;align=center;fontColor=#90A6C2;spacingTop=3;fontFamily=Rubik;strokeWidth=2;" parent="Sqw8GNEDAYzzVDHvP1Ay-60" vertex="1">
          <mxGeometry y="160" width="160" height="80" as="geometry" />
        </mxCell>
        <mxCell id="Sqw8GNEDAYzzVDHvP1Ay-75" value="" style="group" parent="1" vertex="1" connectable="0">
          <mxGeometry x="1660" y="-240" width="160" height="240" as="geometry" />
        </mxCell>
        <mxCell id="Sqw8GNEDAYzzVDHvP1Ay-76" value="preproduction" style="fontFamily=Rubik;fontSize=22;fontColor=#ffffff;strokeColor=#D86613;strokeWidth=2;fillColor=#D86613;spacingTop=8;" parent="Sqw8GNEDAYzzVDHvP1Ay-75" vertex="1">
          <mxGeometry width="160" height="40" as="geometry" />
        </mxCell>
        <mxCell id="Sqw8GNEDAYzzVDHvP1Ay-77" value="for QA purposes" style="fontFamily=Rubik;fontSize=16;fontColor=#FFFFFF;strokeColor=#D86613;strokeWidth=2;fillColor=#3D1D05;spacingBottom=1;fontStyle=2" parent="Sqw8GNEDAYzzVDHvP1Ay-75" vertex="1">
          <mxGeometry y="120" width="160" height="40" as="geometry" />
        </mxCell>
        <mxCell id="Sqw8GNEDAYzzVDHvP1Ay-78" value="environment" style="fontFamily=Rubik;fontSize=16;fontColor=#ffffff;strokeColor=#D86613;strokeWidth=2;fillColor=#D86613;spacingBottom=16;textOpacity=50;" parent="Sqw8GNEDAYzzVDHvP1Ay-75" vertex="1">
          <mxGeometry y="40" width="160" height="40" as="geometry" />
        </mxCell>
        <mxCell id="Sqw8GNEDAYzzVDHvP1Ay-79" value="OPTIONAL" style="fontFamily=Rubik;fontSize=16;fontColor=#FFFFFF;strokeColor=#D86613;strokeWidth=2;fillColor=#3D1D05;spacingBottom=1;fontStyle=2;textOpacity=50;" parent="Sqw8GNEDAYzzVDHvP1Ay-75" vertex="1">
          <mxGeometry y="80" width="160" height="40" as="geometry" />
        </mxCell>
        <mxCell id="Sqw8GNEDAYzzVDHvP1Ay-80" value="" style="group" parent="Sqw8GNEDAYzzVDHvP1Ay-75" vertex="1" connectable="0">
          <mxGeometry y="160" width="160" height="80" as="geometry" />
        </mxCell>
        <mxCell id="Sqw8GNEDAYzzVDHvP1Ay-81" value="" style="sketch=0;points=[[0,0,0],[0.25,0,0],[0.5,0,0],[0.75,0,0],[1,0,0],[0,1,0],[0.25,1,0],[0.5,1,0],[0.75,1,0],[1,1,0],[0,0.25,0],[0,0.5,0],[0,0.75,0],[1,0.25,0],[1,0.5,0],[1,0.75,0]];outlineConnect=0;fontColor=#232F3E;gradientColor=#F78E04;gradientDirection=north;fillColor=#D05C17;strokeColor=#ffffff;dashed=0;verticalLabelPosition=bottom;verticalAlign=top;align=center;fontSize=12;fontStyle=0;aspect=fixed;shape=mxgraph.aws4.resourceIcon;resIcon=mxgraph.aws4.lambda;fontFamily=Rubik;" parent="Sqw8GNEDAYzzVDHvP1Ay-80" vertex="1">
          <mxGeometry width="40" height="40" as="geometry" />
        </mxCell>
        <mxCell id="Sqw8GNEDAYzzVDHvP1Ay-82" value="" style="sketch=0;points=[[0,0,0],[0.25,0,0],[0.5,0,0],[0.75,0,0],[1,0,0],[0,1,0],[0.25,1,0],[0.5,1,0],[0.75,1,0],[1,1,0],[0,0.25,0],[0,0.5,0],[0,0.75,0],[1,0.25,0],[1,0.5,0],[1,0.75,0]];outlineConnect=0;fontColor=#232F3E;gradientColor=#945DF2;gradientDirection=north;fillColor=#5A30B5;strokeColor=#ffffff;dashed=0;verticalLabelPosition=bottom;verticalAlign=top;align=center;fontSize=12;fontStyle=0;aspect=fixed;shape=mxgraph.aws4.resourceIcon;resIcon=mxgraph.aws4.api_gateway;fontFamily=Rubik;" parent="Sqw8GNEDAYzzVDHvP1Ay-80" vertex="1">
          <mxGeometry x="80" width="40" height="40" as="geometry" />
        </mxCell>
        <mxCell id="Sqw8GNEDAYzzVDHvP1Ay-83" value="" style="sketch=0;points=[[0,0,0],[0.25,0,0],[0.5,0,0],[0.75,0,0],[1,0,0],[0,1,0],[0.25,1,0],[0.5,1,0],[0.75,1,0],[1,1,0],[0,0.25,0],[0,0.5,0],[0,0.75,0],[1,0.25,0],[1,0.5,0],[1,0.75,0]];outlineConnect=0;fontColor=#232F3E;gradientColor=#FF4F8B;gradientDirection=north;fillColor=#BC1356;strokeColor=#ffffff;dashed=0;verticalLabelPosition=bottom;verticalAlign=top;align=center;fontSize=12;fontStyle=0;aspect=fixed;shape=mxgraph.aws4.resourceIcon;resIcon=mxgraph.aws4.eventbridge;fontFamily=Rubik;" parent="Sqw8GNEDAYzzVDHvP1Ay-80" vertex="1">
          <mxGeometry x="40" width="40" height="40" as="geometry" />
        </mxCell>
        <mxCell id="Sqw8GNEDAYzzVDHvP1Ay-84" value="" style="sketch=0;points=[[0,0,0],[0.25,0,0],[0.5,0,0],[0.75,0,0],[1,0,0],[0,1,0],[0.25,1,0],[0.5,1,0],[0.75,1,0],[1,1,0],[0,0.25,0],[0,0.5,0],[0,0.75,0],[1,0.25,0],[1,0.5,0],[1,0.75,0]];outlineConnect=0;fontColor=#232F3E;gradientColor=#60A337;gradientDirection=north;fillColor=#277116;strokeColor=#ffffff;dashed=0;verticalLabelPosition=bottom;verticalAlign=top;align=center;fontSize=12;fontStyle=0;aspect=fixed;shape=mxgraph.aws4.resourceIcon;resIcon=mxgraph.aws4.s3;fontFamily=Rubik;" parent="Sqw8GNEDAYzzVDHvP1Ay-80" vertex="1">
          <mxGeometry x="40" y="40" width="40" height="40" as="geometry" />
        </mxCell>
        <mxCell id="Sqw8GNEDAYzzVDHvP1Ay-85" value="" style="sketch=0;points=[[0,0,0],[0.25,0,0],[0.5,0,0],[0.75,0,0],[1,0,0],[0,1,0],[0.25,1,0],[0.5,1,0],[0.75,1,0],[1,1,0],[0,0.25,0],[0,0.5,0],[0,0.75,0],[1,0.25,0],[1,0.5,0],[1,0.75,0]];outlineConnect=0;fontColor=#232F3E;gradientColor=#F78E04;gradientDirection=north;fillColor=#D05C17;strokeColor=#ffffff;dashed=0;verticalLabelPosition=bottom;verticalAlign=top;align=center;fontSize=12;fontStyle=0;aspect=fixed;shape=mxgraph.aws4.resourceIcon;resIcon=mxgraph.aws4.fargate;fontFamily=Rubik;" parent="Sqw8GNEDAYzzVDHvP1Ay-80" vertex="1">
          <mxGeometry x="120" width="40" height="40" as="geometry" />
        </mxCell>
        <mxCell id="Sqw8GNEDAYzzVDHvP1Ay-86" value="" style="sketch=0;points=[[0,0,0],[0.25,0,0],[0.5,0,0],[0.75,0,0],[1,0,0],[0,1,0],[0.25,1,0],[0.5,1,0],[0.75,1,0],[1,1,0],[0,0.25,0],[0,0.5,0],[0,0.75,0],[1,0.25,0],[1,0.5,0],[1,0.75,0]];outlineConnect=0;fontColor=#232F3E;gradientColor=#945DF2;gradientDirection=north;fillColor=#5A30B5;strokeColor=#ffffff;dashed=0;verticalLabelPosition=bottom;verticalAlign=top;align=center;fontSize=12;fontStyle=0;aspect=fixed;shape=mxgraph.aws4.resourceIcon;resIcon=mxgraph.aws4.cloudfront;fontFamily=Rubik;" parent="Sqw8GNEDAYzzVDHvP1Ay-80" vertex="1">
          <mxGeometry x="120" y="40" width="40" height="40" as="geometry" />
        </mxCell>
        <mxCell id="Sqw8GNEDAYzzVDHvP1Ay-87" value="" style="sketch=0;points=[[0,0,0],[0.25,0,0],[0.5,0,0],[0.75,0,0],[1,0,0],[0,1,0],[0.25,1,0],[0.5,1,0],[0.75,1,0],[1,1,0],[0,0.25,0],[0,0.5,0],[0,0.75,0],[1,0.25,0],[1,0.5,0],[1,0.75,0]];outlineConnect=0;fontColor=#232F3E;gradientColor=#4D72F3;gradientDirection=north;fillColor=#3334B9;strokeColor=#ffffff;dashed=0;verticalLabelPosition=bottom;verticalAlign=top;align=center;fontSize=12;fontStyle=0;aspect=fixed;shape=mxgraph.aws4.resourceIcon;resIcon=mxgraph.aws4.rds;fontFamily=Rubik;" parent="Sqw8GNEDAYzzVDHvP1Ay-80" vertex="1">
          <mxGeometry x="80" y="40" width="40" height="40" as="geometry" />
        </mxCell>
        <mxCell id="Sqw8GNEDAYzzVDHvP1Ay-88" value="" style="sketch=0;points=[[0,0,0],[0.25,0,0],[0.5,0,0],[0.75,0,0],[1,0,0],[0,1,0],[0.25,1,0],[0.5,1,0],[0.75,1,0],[1,1,0],[0,0.25,0],[0,0.5,0],[0,0.75,0],[1,0.25,0],[1,0.5,0],[1,0.75,0]];outlineConnect=0;fontColor=#232F3E;gradientColor=#4D72F3;gradientDirection=north;fillColor=#3334B9;strokeColor=#ffffff;dashed=0;verticalLabelPosition=bottom;verticalAlign=top;align=center;fontSize=12;fontStyle=0;aspect=fixed;shape=mxgraph.aws4.resourceIcon;resIcon=mxgraph.aws4.dynamodb;fontFamily=Rubik;" parent="Sqw8GNEDAYzzVDHvP1Ay-80" vertex="1">
          <mxGeometry y="40" width="40" height="40" as="geometry" />
        </mxCell>
        <mxCell id="Sqw8GNEDAYzzVDHvP1Ay-89" value="" style="outlineConnect=0;gradientColor=none;fontSize=16;fontStyle=0;strokeColor=#D86613;fillColor=none;verticalAlign=top;align=center;fontColor=#90A6C2;spacingTop=3;fontFamily=Rubik;strokeWidth=2;" parent="Sqw8GNEDAYzzVDHvP1Ay-75" vertex="1">
          <mxGeometry y="160" width="160" height="80" as="geometry" />
        </mxCell>
        <mxCell id="Sqw8GNEDAYzzVDHvP1Ay-90" value="" style="group" parent="1" vertex="1" connectable="0">
          <mxGeometry x="1840" y="-240" width="160" height="240" as="geometry" />
        </mxCell>
        <mxCell id="Sqw8GNEDAYzzVDHvP1Ay-91" value="production" style="fontFamily=Rubik;fontSize=22;fontColor=#ffffff;strokeColor=#FF0080;strokeWidth=2;fillColor=#FF0080;spacingTop=8;" parent="Sqw8GNEDAYzzVDHvP1Ay-90" vertex="1">
          <mxGeometry width="160" height="40" as="geometry" />
        </mxCell>
        <mxCell id="Sqw8GNEDAYzzVDHvP1Ay-92" value="stable release" style="fontFamily=Rubik;fontSize=16;fontColor=#F8E7F5;strokeColor=#FF0080;strokeWidth=2;fillColor=#6B0036;spacingBottom=1;fontStyle=2" parent="Sqw8GNEDAYzzVDHvP1Ay-90" vertex="1">
          <mxGeometry y="120" width="160" height="40" as="geometry" />
        </mxCell>
        <mxCell id="Sqw8GNEDAYzzVDHvP1Ay-93" value="environment" style="fontFamily=Rubik;fontSize=16;fontColor=#ffffff;strokeColor=#FF0080;strokeWidth=2;fillColor=#FF0080;spacingBottom=16;textOpacity=50;" parent="Sqw8GNEDAYzzVDHvP1Ay-90" vertex="1">
          <mxGeometry y="40" width="160" height="40" as="geometry" />
        </mxCell>
        <mxCell id="Sqw8GNEDAYzzVDHvP1Ay-94" value="REQUIRED" style="fontFamily=Rubik;fontSize=16;fontColor=#F8E7F5;strokeColor=#FF0080;strokeWidth=2;fillColor=#6B0036;spacingBottom=1;fontStyle=3" parent="Sqw8GNEDAYzzVDHvP1Ay-90" vertex="1">
          <mxGeometry y="80" width="160" height="40" as="geometry" />
        </mxCell>
        <mxCell id="Sqw8GNEDAYzzVDHvP1Ay-95" value="" style="group" parent="Sqw8GNEDAYzzVDHvP1Ay-90" vertex="1" connectable="0">
          <mxGeometry y="160" width="160" height="80" as="geometry" />
        </mxCell>
        <mxCell id="Sqw8GNEDAYzzVDHvP1Ay-96" value="" style="sketch=0;points=[[0,0,0],[0.25,0,0],[0.5,0,0],[0.75,0,0],[1,0,0],[0,1,0],[0.25,1,0],[0.5,1,0],[0.75,1,0],[1,1,0],[0,0.25,0],[0,0.5,0],[0,0.75,0],[1,0.25,0],[1,0.5,0],[1,0.75,0]];outlineConnect=0;fontColor=#232F3E;gradientColor=#F78E04;gradientDirection=north;fillColor=#D05C17;strokeColor=#ffffff;dashed=0;verticalLabelPosition=bottom;verticalAlign=top;align=center;fontSize=12;fontStyle=0;aspect=fixed;shape=mxgraph.aws4.resourceIcon;resIcon=mxgraph.aws4.lambda;fontFamily=Rubik;" parent="Sqw8GNEDAYzzVDHvP1Ay-95" vertex="1">
          <mxGeometry width="40" height="40" as="geometry" />
        </mxCell>
        <mxCell id="Sqw8GNEDAYzzVDHvP1Ay-97" value="" style="sketch=0;points=[[0,0,0],[0.25,0,0],[0.5,0,0],[0.75,0,0],[1,0,0],[0,1,0],[0.25,1,0],[0.5,1,0],[0.75,1,0],[1,1,0],[0,0.25,0],[0,0.5,0],[0,0.75,0],[1,0.25,0],[1,0.5,0],[1,0.75,0]];outlineConnect=0;fontColor=#232F3E;gradientColor=#945DF2;gradientDirection=north;fillColor=#5A30B5;strokeColor=#ffffff;dashed=0;verticalLabelPosition=bottom;verticalAlign=top;align=center;fontSize=12;fontStyle=0;aspect=fixed;shape=mxgraph.aws4.resourceIcon;resIcon=mxgraph.aws4.api_gateway;fontFamily=Rubik;" parent="Sqw8GNEDAYzzVDHvP1Ay-95" vertex="1">
          <mxGeometry x="80" width="40" height="40" as="geometry" />
        </mxCell>
        <mxCell id="Sqw8GNEDAYzzVDHvP1Ay-98" value="" style="sketch=0;points=[[0,0,0],[0.25,0,0],[0.5,0,0],[0.75,0,0],[1,0,0],[0,1,0],[0.25,1,0],[0.5,1,0],[0.75,1,0],[1,1,0],[0,0.25,0],[0,0.5,0],[0,0.75,0],[1,0.25,0],[1,0.5,0],[1,0.75,0]];outlineConnect=0;fontColor=#232F3E;gradientColor=#FF4F8B;gradientDirection=north;fillColor=#BC1356;strokeColor=#ffffff;dashed=0;verticalLabelPosition=bottom;verticalAlign=top;align=center;fontSize=12;fontStyle=0;aspect=fixed;shape=mxgraph.aws4.resourceIcon;resIcon=mxgraph.aws4.eventbridge;fontFamily=Rubik;" parent="Sqw8GNEDAYzzVDHvP1Ay-95" vertex="1">
          <mxGeometry x="40" width="40" height="40" as="geometry" />
        </mxCell>
        <mxCell id="Sqw8GNEDAYzzVDHvP1Ay-99" value="" style="sketch=0;points=[[0,0,0],[0.25,0,0],[0.5,0,0],[0.75,0,0],[1,0,0],[0,1,0],[0.25,1,0],[0.5,1,0],[0.75,1,0],[1,1,0],[0,0.25,0],[0,0.5,0],[0,0.75,0],[1,0.25,0],[1,0.5,0],[1,0.75,0]];outlineConnect=0;fontColor=#232F3E;gradientColor=#60A337;gradientDirection=north;fillColor=#277116;strokeColor=#ffffff;dashed=0;verticalLabelPosition=bottom;verticalAlign=top;align=center;fontSize=12;fontStyle=0;aspect=fixed;shape=mxgraph.aws4.resourceIcon;resIcon=mxgraph.aws4.s3;fontFamily=Rubik;" parent="Sqw8GNEDAYzzVDHvP1Ay-95" vertex="1">
          <mxGeometry x="40" y="40" width="40" height="40" as="geometry" />
        </mxCell>
        <mxCell id="Sqw8GNEDAYzzVDHvP1Ay-100" value="" style="sketch=0;points=[[0,0,0],[0.25,0,0],[0.5,0,0],[0.75,0,0],[1,0,0],[0,1,0],[0.25,1,0],[0.5,1,0],[0.75,1,0],[1,1,0],[0,0.25,0],[0,0.5,0],[0,0.75,0],[1,0.25,0],[1,0.5,0],[1,0.75,0]];outlineConnect=0;fontColor=#232F3E;gradientColor=#F78E04;gradientDirection=north;fillColor=#D05C17;strokeColor=#ffffff;dashed=0;verticalLabelPosition=bottom;verticalAlign=top;align=center;fontSize=12;fontStyle=0;aspect=fixed;shape=mxgraph.aws4.resourceIcon;resIcon=mxgraph.aws4.fargate;fontFamily=Rubik;" parent="Sqw8GNEDAYzzVDHvP1Ay-95" vertex="1">
          <mxGeometry x="120" width="40" height="40" as="geometry" />
        </mxCell>
        <mxCell id="Sqw8GNEDAYzzVDHvP1Ay-101" value="" style="sketch=0;points=[[0,0,0],[0.25,0,0],[0.5,0,0],[0.75,0,0],[1,0,0],[0,1,0],[0.25,1,0],[0.5,1,0],[0.75,1,0],[1,1,0],[0,0.25,0],[0,0.5,0],[0,0.75,0],[1,0.25,0],[1,0.5,0],[1,0.75,0]];outlineConnect=0;fontColor=#232F3E;gradientColor=#945DF2;gradientDirection=north;fillColor=#5A30B5;strokeColor=#ffffff;dashed=0;verticalLabelPosition=bottom;verticalAlign=top;align=center;fontSize=12;fontStyle=0;aspect=fixed;shape=mxgraph.aws4.resourceIcon;resIcon=mxgraph.aws4.cloudfront;fontFamily=Rubik;" parent="Sqw8GNEDAYzzVDHvP1Ay-95" vertex="1">
          <mxGeometry x="120" y="40" width="40" height="40" as="geometry" />
        </mxCell>
        <mxCell id="Sqw8GNEDAYzzVDHvP1Ay-102" value="" style="sketch=0;points=[[0,0,0],[0.25,0,0],[0.5,0,0],[0.75,0,0],[1,0,0],[0,1,0],[0.25,1,0],[0.5,1,0],[0.75,1,0],[1,1,0],[0,0.25,0],[0,0.5,0],[0,0.75,0],[1,0.25,0],[1,0.5,0],[1,0.75,0]];outlineConnect=0;fontColor=#232F3E;gradientColor=#4D72F3;gradientDirection=north;fillColor=#3334B9;strokeColor=#ffffff;dashed=0;verticalLabelPosition=bottom;verticalAlign=top;align=center;fontSize=12;fontStyle=0;aspect=fixed;shape=mxgraph.aws4.resourceIcon;resIcon=mxgraph.aws4.rds;fontFamily=Rubik;" parent="Sqw8GNEDAYzzVDHvP1Ay-95" vertex="1">
          <mxGeometry x="80" y="40" width="40" height="40" as="geometry" />
        </mxCell>
        <mxCell id="Sqw8GNEDAYzzVDHvP1Ay-103" value="" style="sketch=0;points=[[0,0,0],[0.25,0,0],[0.5,0,0],[0.75,0,0],[1,0,0],[0,1,0],[0.25,1,0],[0.5,1,0],[0.75,1,0],[1,1,0],[0,0.25,0],[0,0.5,0],[0,0.75,0],[1,0.25,0],[1,0.5,0],[1,0.75,0]];outlineConnect=0;fontColor=#232F3E;gradientColor=#4D72F3;gradientDirection=north;fillColor=#3334B9;strokeColor=#ffffff;dashed=0;verticalLabelPosition=bottom;verticalAlign=top;align=center;fontSize=12;fontStyle=0;aspect=fixed;shape=mxgraph.aws4.resourceIcon;resIcon=mxgraph.aws4.dynamodb;fontFamily=Rubik;" parent="Sqw8GNEDAYzzVDHvP1Ay-95" vertex="1">
          <mxGeometry y="40" width="40" height="40" as="geometry" />
        </mxCell>
        <mxCell id="Sqw8GNEDAYzzVDHvP1Ay-104" value="" style="outlineConnect=0;gradientColor=none;fontSize=16;fontStyle=0;strokeColor=#FF0080;fillColor=none;verticalAlign=top;align=center;fontColor=#90A6C2;spacingTop=3;fontFamily=Rubik;strokeWidth=2;" parent="Sqw8GNEDAYzzVDHvP1Ay-90" vertex="1">
          <mxGeometry y="160" width="160" height="80" as="geometry" />
        </mxCell>
        <mxCell id="Sqw8GNEDAYzzVDHvP1Ay-105" value="" style="endArrow=none;dashed=1;strokeWidth=2;rounded=0;fontFamily=Rubik;fontSize=14;fontColor=#FFFFFF;strokeColor=#5C5C5C;" parent="1" edge="1">
          <mxGeometry width="50" height="50" relative="1" as="geometry">
            <mxPoint x="1660" y="20" as="sourcePoint" />
            <mxPoint x="2000" y="20" as="targetPoint" />
          </mxGeometry>
        </mxCell>
        <mxCell id="Sqw8GNEDAYzzVDHvP1Ay-124" value="" style="endArrow=classic;rounded=0;fontFamily=Rubik;fontSize=14;fontColor=#FFFFFF;strokeColor=#E5CCFF;startArrow=baseDash;startFill=0;" parent="1" edge="1">
          <mxGeometry width="50" height="50" relative="1" as="geometry">
            <mxPoint x="1080" y="260" as="sourcePoint" />
            <mxPoint x="2000" y="260" as="targetPoint" />
          </mxGeometry>
        </mxCell>
        <mxCell id="Sqw8GNEDAYzzVDHvP1Ay-125" value="Environment Deployment Pipeline Order" style="text;align=left;verticalAlign=middle;resizable=0;points=[];autosize=1;strokeColor=none;fillColor=none;fontSize=16;fontFamily=Rubik;fontColor=#E5CCFF;fontStyle=2" parent="1" vertex="1">
          <mxGeometry x="1080" y="278" width="310" height="25" as="geometry" />
        </mxCell>
        <mxCell id="Sqw8GNEDAYzzVDHvP1Ay-126" value="" style="endArrow=none;rounded=0;fontFamily=Rubik;fontSize=14;fontColor=#E5CCFF;strokeColor=#90A6C2;" parent="1" edge="1">
          <mxGeometry width="50" height="50" relative="1" as="geometry">
            <mxPoint x="880" y="-340" as="sourcePoint" />
            <mxPoint x="2060" y="-340" as="targetPoint" />
          </mxGeometry>
        </mxCell>
        <mxCell id="Sqw8GNEDAYzzVDHvP1Ay-127" value="2x Accounts" style="text;align=left;verticalAlign=middle;resizable=0;points=[];autosize=1;strokeColor=none;fillColor=none;fontSize=23;fontFamily=Rubik;fontColor=#90A6C2;" parent="1" vertex="1">
          <mxGeometry x="880" y="-380" width="150" height="30" as="geometry" />
        </mxCell>
        <mxCell id="pJz5sZYTZmMOX3vUFx7K-1" value="" style="group" parent="1" vertex="1" connectable="0">
          <mxGeometry x="900" y="-240" width="160" height="240" as="geometry" />
        </mxCell>
        <mxCell id="Sqw8GNEDAYzzVDHvP1Ay-21" value="" style="group" parent="pJz5sZYTZmMOX3vUFx7K-1" vertex="1" connectable="0">
          <mxGeometry y="160" width="160" height="80" as="geometry" />
        </mxCell>
        <mxCell id="Sqw8GNEDAYzzVDHvP1Ay-22" value="" style="sketch=0;points=[[0,0,0],[0.25,0,0],[0.5,0,0],[0.75,0,0],[1,0,0],[0,1,0],[0.25,1,0],[0.5,1,0],[0.75,1,0],[1,1,0],[0,0.25,0],[0,0.5,0],[0,0.75,0],[1,0.25,0],[1,0.5,0],[1,0.75,0]];outlineConnect=0;fontColor=#232F3E;gradientColor=#F78E04;gradientDirection=north;fillColor=#D05C17;strokeColor=#ffffff;dashed=0;verticalLabelPosition=bottom;verticalAlign=top;align=center;fontSize=12;fontStyle=0;aspect=fixed;shape=mxgraph.aws4.resourceIcon;resIcon=mxgraph.aws4.lambda;fontFamily=Rubik;" parent="Sqw8GNEDAYzzVDHvP1Ay-21" vertex="1">
          <mxGeometry width="40" height="40" as="geometry" />
        </mxCell>
        <mxCell id="Sqw8GNEDAYzzVDHvP1Ay-23" value="" style="sketch=0;points=[[0,0,0],[0.25,0,0],[0.5,0,0],[0.75,0,0],[1,0,0],[0,1,0],[0.25,1,0],[0.5,1,0],[0.75,1,0],[1,1,0],[0,0.25,0],[0,0.5,0],[0,0.75,0],[1,0.25,0],[1,0.5,0],[1,0.75,0]];outlineConnect=0;fontColor=#232F3E;gradientColor=#945DF2;gradientDirection=north;fillColor=#5A30B5;strokeColor=#ffffff;dashed=0;verticalLabelPosition=bottom;verticalAlign=top;align=center;fontSize=12;fontStyle=0;aspect=fixed;shape=mxgraph.aws4.resourceIcon;resIcon=mxgraph.aws4.api_gateway;fontFamily=Rubik;" parent="Sqw8GNEDAYzzVDHvP1Ay-21" vertex="1">
          <mxGeometry x="80" width="40" height="40" as="geometry" />
        </mxCell>
        <mxCell id="Sqw8GNEDAYzzVDHvP1Ay-24" value="" style="sketch=0;points=[[0,0,0],[0.25,0,0],[0.5,0,0],[0.75,0,0],[1,0,0],[0,1,0],[0.25,1,0],[0.5,1,0],[0.75,1,0],[1,1,0],[0,0.25,0],[0,0.5,0],[0,0.75,0],[1,0.25,0],[1,0.5,0],[1,0.75,0]];outlineConnect=0;fontColor=#232F3E;gradientColor=#FF4F8B;gradientDirection=north;fillColor=#BC1356;strokeColor=#ffffff;dashed=0;verticalLabelPosition=bottom;verticalAlign=top;align=center;fontSize=12;fontStyle=0;aspect=fixed;shape=mxgraph.aws4.resourceIcon;resIcon=mxgraph.aws4.eventbridge;fontFamily=Rubik;" parent="Sqw8GNEDAYzzVDHvP1Ay-21" vertex="1">
          <mxGeometry x="40" width="40" height="40" as="geometry" />
        </mxCell>
        <mxCell id="Sqw8GNEDAYzzVDHvP1Ay-25" value="" style="sketch=0;points=[[0,0,0],[0.25,0,0],[0.5,0,0],[0.75,0,0],[1,0,0],[0,1,0],[0.25,1,0],[0.5,1,0],[0.75,1,0],[1,1,0],[0,0.25,0],[0,0.5,0],[0,0.75,0],[1,0.25,0],[1,0.5,0],[1,0.75,0]];outlineConnect=0;fontColor=#232F3E;gradientColor=#60A337;gradientDirection=north;fillColor=#277116;strokeColor=#ffffff;dashed=0;verticalLabelPosition=bottom;verticalAlign=top;align=center;fontSize=12;fontStyle=0;aspect=fixed;shape=mxgraph.aws4.resourceIcon;resIcon=mxgraph.aws4.s3;fontFamily=Rubik;" parent="Sqw8GNEDAYzzVDHvP1Ay-21" vertex="1">
          <mxGeometry x="40" y="40" width="40" height="40" as="geometry" />
        </mxCell>
        <mxCell id="Sqw8GNEDAYzzVDHvP1Ay-26" value="" style="sketch=0;points=[[0,0,0],[0.25,0,0],[0.5,0,0],[0.75,0,0],[1,0,0],[0,1,0],[0.25,1,0],[0.5,1,0],[0.75,1,0],[1,1,0],[0,0.25,0],[0,0.5,0],[0,0.75,0],[1,0.25,0],[1,0.5,0],[1,0.75,0]];outlineConnect=0;fontColor=#232F3E;gradientColor=#F78E04;gradientDirection=north;fillColor=#D05C17;strokeColor=#ffffff;dashed=0;verticalLabelPosition=bottom;verticalAlign=top;align=center;fontSize=12;fontStyle=0;aspect=fixed;shape=mxgraph.aws4.resourceIcon;resIcon=mxgraph.aws4.fargate;fontFamily=Rubik;" parent="Sqw8GNEDAYzzVDHvP1Ay-21" vertex="1">
          <mxGeometry x="120" width="40" height="40" as="geometry" />
        </mxCell>
        <mxCell id="Sqw8GNEDAYzzVDHvP1Ay-27" value="" style="sketch=0;points=[[0,0,0],[0.25,0,0],[0.5,0,0],[0.75,0,0],[1,0,0],[0,1,0],[0.25,1,0],[0.5,1,0],[0.75,1,0],[1,1,0],[0,0.25,0],[0,0.5,0],[0,0.75,0],[1,0.25,0],[1,0.5,0],[1,0.75,0]];outlineConnect=0;fontColor=#232F3E;gradientColor=#945DF2;gradientDirection=north;fillColor=#5A30B5;strokeColor=#ffffff;dashed=0;verticalLabelPosition=bottom;verticalAlign=top;align=center;fontSize=12;fontStyle=0;aspect=fixed;shape=mxgraph.aws4.resourceIcon;resIcon=mxgraph.aws4.cloudfront;fontFamily=Rubik;" parent="Sqw8GNEDAYzzVDHvP1Ay-21" vertex="1">
          <mxGeometry x="120" y="40" width="40" height="40" as="geometry" />
        </mxCell>
        <mxCell id="Sqw8GNEDAYzzVDHvP1Ay-28" value="" style="sketch=0;points=[[0,0,0],[0.25,0,0],[0.5,0,0],[0.75,0,0],[1,0,0],[0,1,0],[0.25,1,0],[0.5,1,0],[0.75,1,0],[1,1,0],[0,0.25,0],[0,0.5,0],[0,0.75,0],[1,0.25,0],[1,0.5,0],[1,0.75,0]];outlineConnect=0;fontColor=#232F3E;gradientColor=#4D72F3;gradientDirection=north;fillColor=#3334B9;strokeColor=#ffffff;dashed=0;verticalLabelPosition=bottom;verticalAlign=top;align=center;fontSize=12;fontStyle=0;aspect=fixed;shape=mxgraph.aws4.resourceIcon;resIcon=mxgraph.aws4.rds;fontFamily=Rubik;" parent="Sqw8GNEDAYzzVDHvP1Ay-21" vertex="1">
          <mxGeometry x="80" y="40" width="40" height="40" as="geometry" />
        </mxCell>
        <mxCell id="Sqw8GNEDAYzzVDHvP1Ay-29" value="" style="sketch=0;points=[[0,0,0],[0.25,0,0],[0.5,0,0],[0.75,0,0],[1,0,0],[0,1,0],[0.25,1,0],[0.5,1,0],[0.75,1,0],[1,1,0],[0,0.25,0],[0,0.5,0],[0,0.75,0],[1,0.25,0],[1,0.5,0],[1,0.75,0]];outlineConnect=0;fontColor=#232F3E;gradientColor=#4D72F3;gradientDirection=north;fillColor=#3334B9;strokeColor=#ffffff;dashed=0;verticalLabelPosition=bottom;verticalAlign=top;align=center;fontSize=12;fontStyle=0;aspect=fixed;shape=mxgraph.aws4.resourceIcon;resIcon=mxgraph.aws4.dynamodb;fontFamily=Rubik;" parent="Sqw8GNEDAYzzVDHvP1Ay-21" vertex="1">
          <mxGeometry y="40" width="40" height="40" as="geometry" />
        </mxCell>
        <mxCell id="Sqw8GNEDAYzzVDHvP1Ay-16" value="" style="outlineConnect=0;gradientColor=none;fontSize=16;fontStyle=0;strokeColor=#90A6C2;fillColor=none;verticalAlign=top;align=center;fontColor=#90A6C2;spacingTop=3;fontFamily=Rubik;strokeWidth=2;" parent="pJz5sZYTZmMOX3vUFx7K-1" vertex="1">
          <mxGeometry y="160" width="160" height="80" as="geometry" />
        </mxCell>
        <mxCell id="Sqw8GNEDAYzzVDHvP1Ay-17" value="development" style="fontFamily=Rubik;fontSize=22;fontColor=#ffffff;strokeColor=#90A6C2;strokeWidth=2;fillColor=#90A6C2;spacingTop=8;" parent="pJz5sZYTZmMOX3vUFx7K-1" vertex="1">
          <mxGeometry width="160" height="40" as="geometry" />
        </mxCell>
        <mxCell id="Sqw8GNEDAYzzVDHvP1Ay-18" value="OPTIONAL" style="fontFamily=Rubik;fontSize=16;fontColor=#FFFFFF;strokeColor=#90A6C2;strokeWidth=2;fillColor=#39414D;spacingBottom=1;fontStyle=2;textOpacity=50;" parent="pJz5sZYTZmMOX3vUFx7K-1" vertex="1">
          <mxGeometry y="80" width="160" height="40" as="geometry" />
        </mxCell>
        <mxCell id="Sqw8GNEDAYzzVDHvP1Ay-19" value="long-lived" style="fontFamily=Rubik;fontSize=16;fontColor=#FFFFFF;strokeColor=#90A6C2;strokeWidth=2;fillColor=#39414D;spacingBottom=1;fontStyle=2" parent="pJz5sZYTZmMOX3vUFx7K-1" vertex="1">
          <mxGeometry y="120" width="160" height="40" as="geometry" />
        </mxCell>
        <mxCell id="Sqw8GNEDAYzzVDHvP1Ay-20" value="environment" style="fontFamily=Rubik;fontSize=16;fontColor=#ffffff;strokeColor=#90A6C2;strokeWidth=2;fillColor=#90A6C2;textOpacity=50;labelPosition=center;verticalLabelPosition=middle;align=center;verticalAlign=middle;spacingBottom=16;" parent="pJz5sZYTZmMOX3vUFx7K-1" vertex="1">
          <mxGeometry y="40" width="160" height="40" as="geometry" />
        </mxCell>
        <mxCell id="7wABmlJz4RPOn1fioP3n-1" value="" style="group" vertex="1" connectable="0" parent="1">
          <mxGeometry x="1170" y="40" width="160" height="160" as="geometry" />
        </mxCell>
        <mxCell id="7wABmlJz4RPOn1fioP3n-2" value="Account Resources" style="fontFamily=Rubik;fontSize=16;fontColor=#ffffff;strokeColor=#5C5C5C;strokeWidth=2;fillColor=#5C5C5C;" vertex="1" parent="7wABmlJz4RPOn1fioP3n-1">
          <mxGeometry width="160" height="40" as="geometry" />
        </mxCell>
        <mxCell id="7wABmlJz4RPOn1fioP3n-3" value="shared between envs" style="fontFamily=Rubik;fontSize=14;fontColor=#F8E7F5;strokeColor=#5C5C5C;strokeWidth=2;fillColor=#333333;spacingBottom=1;fontStyle=2" vertex="1" parent="7wABmlJz4RPOn1fioP3n-1">
          <mxGeometry y="80" width="160" height="40" as="geometry" />
        </mxCell>
        <mxCell id="7wABmlJz4RPOn1fioP3n-4" value="" style="sketch=0;points=[[0,0,0],[0.25,0,0],[0.5,0,0],[0.75,0,0],[1,0,0],[0,1,0],[0.25,1,0],[0.5,1,0],[0.75,1,0],[1,1,0],[0,0.25,0],[0,0.5,0],[0,0.75,0],[1,0.25,0],[1,0.5,0],[1,0.75,0]];outlineConnect=0;fontColor=#232F3E;gradientColor=#945DF2;gradientDirection=north;fillColor=#5A30B5;strokeColor=#ffffff;dashed=0;verticalLabelPosition=bottom;verticalAlign=top;align=center;fontSize=12;fontStyle=0;aspect=fixed;shape=mxgraph.aws4.resourceIcon;resIcon=mxgraph.aws4.vpc;" vertex="1" parent="7wABmlJz4RPOn1fioP3n-1">
          <mxGeometry y="120" width="40" height="40" as="geometry" />
        </mxCell>
        <mxCell id="7wABmlJz4RPOn1fioP3n-5" value="" style="sketch=0;points=[[0,0,0],[0.25,0,0],[0.5,0,0],[0.75,0,0],[1,0,0],[0,1,0],[0.25,1,0],[0.5,1,0],[0.75,1,0],[1,1,0],[0,0.25,0],[0,0.5,0],[0,0.75,0],[1,0.25,0],[1,0.5,0],[1,0.75,0]];outlineConnect=0;fontColor=#232F3E;gradientColor=#945DF2;gradientDirection=north;fillColor=#5A30B5;strokeColor=#ffffff;dashed=0;verticalLabelPosition=bottom;verticalAlign=top;align=center;fontSize=12;fontStyle=0;aspect=fixed;shape=mxgraph.aws4.resourceIcon;resIcon=mxgraph.aws4.direct_connect;" vertex="1" parent="7wABmlJz4RPOn1fioP3n-1">
          <mxGeometry x="80" y="120" width="40" height="40" as="geometry" />
        </mxCell>
        <mxCell id="7wABmlJz4RPOn1fioP3n-6" value="" style="sketch=0;points=[[0,0,0],[0.25,0,0],[0.5,0,0],[0.75,0,0],[1,0,0],[0,1,0],[0.25,1,0],[0.5,1,0],[0.75,1,0],[1,1,0],[0,0.25,0],[0,0.5,0],[0,0.75,0],[1,0.25,0],[1,0.5,0],[1,0.75,0]];outlineConnect=0;fontColor=#232F3E;gradientColor=#945DF2;gradientDirection=north;fillColor=#5A30B5;strokeColor=#ffffff;dashed=0;verticalLabelPosition=bottom;verticalAlign=top;align=center;fontSize=12;fontStyle=0;aspect=fixed;shape=mxgraph.aws4.resourceIcon;resIcon=mxgraph.aws4.route_53;" vertex="1" parent="7wABmlJz4RPOn1fioP3n-1">
          <mxGeometry x="40" y="120" width="40" height="40" as="geometry" />
        </mxCell>
        <mxCell id="7wABmlJz4RPOn1fioP3n-7" value="" style="sketch=0;points=[[0,0,0],[0.25,0,0],[0.5,0,0],[0.75,0,0],[1,0,0],[0,1,0],[0.25,1,0],[0.5,1,0],[0.75,1,0],[1,1,0],[0,0.25,0],[0,0.5,0],[0,0.75,0],[1,0.25,0],[1,0.5,0],[1,0.75,0]];points=[[0,0,0],[0.25,0,0],[0.5,0,0],[0.75,0,0],[1,0,0],[0,1,0],[0.25,1,0],[0.5,1,0],[0.75,1,0],[1,1,0],[0,0.25,0],[0,0.5,0],[0,0.75,0],[1,0.25,0],[1,0.5,0],[1,0.75,0]];outlineConnect=0;fontColor=#232F3E;gradientColor=#F34482;gradientDirection=north;fillColor=#BC1356;strokeColor=#ffffff;dashed=0;verticalLabelPosition=bottom;verticalAlign=top;align=center;fontSize=12;fontStyle=0;aspect=fixed;shape=mxgraph.aws4.resourceIcon;resIcon=mxgraph.aws4.chatbot;fontFamily=Rubik;" vertex="1" parent="7wABmlJz4RPOn1fioP3n-1">
          <mxGeometry x="120" y="120" width="40" height="40" as="geometry" />
        </mxCell>
        <mxCell id="7wABmlJz4RPOn1fioP3n-8" value="" style="outlineConnect=0;gradientColor=none;fontSize=16;fontStyle=0;strokeColor=#5C5C5C;fillColor=none;verticalAlign=top;align=center;fontColor=#90A6C2;spacingTop=3;fontFamily=Rubik;strokeWidth=2;" vertex="1" parent="7wABmlJz4RPOn1fioP3n-1">
          <mxGeometry y="120" width="160" height="40" as="geometry" />
        </mxCell>
        <mxCell id="7wABmlJz4RPOn1fioP3n-9" value="own deploy lifecycle" style="fontFamily=Rubik;fontSize=14;fontColor=#F8E7F5;strokeColor=#5C5C5C;strokeWidth=2;fillColor=#333333;spacingBottom=1;fontStyle=2" vertex="1" parent="7wABmlJz4RPOn1fioP3n-1">
          <mxGeometry y="40" width="160" height="40" as="geometry" />
        </mxCell>
        <mxCell id="7wABmlJz4RPOn1fioP3n-10" value="" style="group" vertex="1" connectable="0" parent="1">
          <mxGeometry x="1750" y="40" width="160" height="160" as="geometry" />
        </mxCell>
        <mxCell id="7wABmlJz4RPOn1fioP3n-11" value="Account Resources" style="fontFamily=Rubik;fontSize=16;fontColor=#ffffff;strokeColor=#5C5C5C;strokeWidth=2;fillColor=#5C5C5C;" vertex="1" parent="7wABmlJz4RPOn1fioP3n-10">
          <mxGeometry width="160" height="40" as="geometry" />
        </mxCell>
        <mxCell id="7wABmlJz4RPOn1fioP3n-12" value="shared between envs" style="fontFamily=Rubik;fontSize=14;fontColor=#F8E7F5;strokeColor=#5C5C5C;strokeWidth=2;fillColor=#333333;spacingBottom=1;fontStyle=2" vertex="1" parent="7wABmlJz4RPOn1fioP3n-10">
          <mxGeometry y="80" width="160" height="40" as="geometry" />
        </mxCell>
        <mxCell id="7wABmlJz4RPOn1fioP3n-13" value="" style="sketch=0;points=[[0,0,0],[0.25,0,0],[0.5,0,0],[0.75,0,0],[1,0,0],[0,1,0],[0.25,1,0],[0.5,1,0],[0.75,1,0],[1,1,0],[0,0.25,0],[0,0.5,0],[0,0.75,0],[1,0.25,0],[1,0.5,0],[1,0.75,0]];outlineConnect=0;fontColor=#232F3E;gradientColor=#945DF2;gradientDirection=north;fillColor=#5A30B5;strokeColor=#ffffff;dashed=0;verticalLabelPosition=bottom;verticalAlign=top;align=center;fontSize=12;fontStyle=0;aspect=fixed;shape=mxgraph.aws4.resourceIcon;resIcon=mxgraph.aws4.vpc;" vertex="1" parent="7wABmlJz4RPOn1fioP3n-10">
          <mxGeometry y="120" width="40" height="40" as="geometry" />
        </mxCell>
        <mxCell id="7wABmlJz4RPOn1fioP3n-14" value="" style="sketch=0;points=[[0,0,0],[0.25,0,0],[0.5,0,0],[0.75,0,0],[1,0,0],[0,1,0],[0.25,1,0],[0.5,1,0],[0.75,1,0],[1,1,0],[0,0.25,0],[0,0.5,0],[0,0.75,0],[1,0.25,0],[1,0.5,0],[1,0.75,0]];outlineConnect=0;fontColor=#232F3E;gradientColor=#945DF2;gradientDirection=north;fillColor=#5A30B5;strokeColor=#ffffff;dashed=0;verticalLabelPosition=bottom;verticalAlign=top;align=center;fontSize=12;fontStyle=0;aspect=fixed;shape=mxgraph.aws4.resourceIcon;resIcon=mxgraph.aws4.direct_connect;" vertex="1" parent="7wABmlJz4RPOn1fioP3n-10">
          <mxGeometry x="80" y="120" width="40" height="40" as="geometry" />
        </mxCell>
        <mxCell id="7wABmlJz4RPOn1fioP3n-15" value="" style="sketch=0;points=[[0,0,0],[0.25,0,0],[0.5,0,0],[0.75,0,0],[1,0,0],[0,1,0],[0.25,1,0],[0.5,1,0],[0.75,1,0],[1,1,0],[0,0.25,0],[0,0.5,0],[0,0.75,0],[1,0.25,0],[1,0.5,0],[1,0.75,0]];outlineConnect=0;fontColor=#232F3E;gradientColor=#945DF2;gradientDirection=north;fillColor=#5A30B5;strokeColor=#ffffff;dashed=0;verticalLabelPosition=bottom;verticalAlign=top;align=center;fontSize=12;fontStyle=0;aspect=fixed;shape=mxgraph.aws4.resourceIcon;resIcon=mxgraph.aws4.route_53;" vertex="1" parent="7wABmlJz4RPOn1fioP3n-10">
          <mxGeometry x="40" y="120" width="40" height="40" as="geometry" />
        </mxCell>
        <mxCell id="7wABmlJz4RPOn1fioP3n-16" value="" style="sketch=0;points=[[0,0,0],[0.25,0,0],[0.5,0,0],[0.75,0,0],[1,0,0],[0,1,0],[0.25,1,0],[0.5,1,0],[0.75,1,0],[1,1,0],[0,0.25,0],[0,0.5,0],[0,0.75,0],[1,0.25,0],[1,0.5,0],[1,0.75,0]];points=[[0,0,0],[0.25,0,0],[0.5,0,0],[0.75,0,0],[1,0,0],[0,1,0],[0.25,1,0],[0.5,1,0],[0.75,1,0],[1,1,0],[0,0.25,0],[0,0.5,0],[0,0.75,0],[1,0.25,0],[1,0.5,0],[1,0.75,0]];outlineConnect=0;fontColor=#232F3E;gradientColor=#F34482;gradientDirection=north;fillColor=#BC1356;strokeColor=#ffffff;dashed=0;verticalLabelPosition=bottom;verticalAlign=top;align=center;fontSize=12;fontStyle=0;aspect=fixed;shape=mxgraph.aws4.resourceIcon;resIcon=mxgraph.aws4.chatbot;fontFamily=Rubik;" vertex="1" parent="7wABmlJz4RPOn1fioP3n-10">
          <mxGeometry x="120" y="120" width="40" height="40" as="geometry" />
        </mxCell>
        <mxCell id="7wABmlJz4RPOn1fioP3n-17" value="" style="outlineConnect=0;gradientColor=none;fontSize=16;fontStyle=0;strokeColor=#5C5C5C;fillColor=none;verticalAlign=top;align=center;fontColor=#90A6C2;spacingTop=3;fontFamily=Rubik;strokeWidth=2;" vertex="1" parent="7wABmlJz4RPOn1fioP3n-10">
          <mxGeometry y="120" width="160" height="40" as="geometry" />
        </mxCell>
        <mxCell id="7wABmlJz4RPOn1fioP3n-18" value="own deploy lifecycle" style="fontFamily=Rubik;fontSize=14;fontColor=#F8E7F5;strokeColor=#5C5C5C;strokeWidth=2;fillColor=#333333;spacingBottom=1;fontStyle=2" vertex="1" parent="7wABmlJz4RPOn1fioP3n-10">
          <mxGeometry y="40" width="160" height="40" as="geometry" />
        </mxCell>
      </root>
    </mxGraphModel>
  </diagram>
  <diagram name="3x" id="wg3zOe1cu7gEPdYx5Pz-">
    <mxGraphModel dx="233" dy="1020" grid="1" gridSize="5" guides="1" tooltips="1" connect="1" arrows="1" fold="1" page="0" pageScale="1" pageWidth="2336" pageHeight="1654" math="0" shadow="0">
      <root>
        <mxCell id="iEEl2lX3LwRMDJczbpHo-0" />
        <mxCell id="iEEl2lX3LwRMDJczbpHo-1" parent="iEEl2lX3LwRMDJczbpHo-0" />
        <mxCell id="iEEl2lX3LwRMDJczbpHo-2" value="dev account" style="sketch=0;outlineConnect=0;gradientColor=none;fontSize=16;fontStyle=0;shape=mxgraph.aws4.group;grIcon=mxgraph.aws4.group_aws_cloud;strokeColor=#AAB7B8;fillColor=none;verticalAlign=top;align=left;spacingLeft=30;fontColor=#AAB7B8;dashed=0;fontFamily=Rubik;" parent="iEEl2lX3LwRMDJczbpHo-1" vertex="1">
          <mxGeometry x="880" y="-300" width="740" height="520" as="geometry" />
        </mxCell>
        <mxCell id="iEEl2lX3LwRMDJczbpHo-3" value="preprod account" style="sketch=0;outlineConnect=0;gradientColor=none;fontSize=16;fontStyle=0;shape=mxgraph.aws4.group;grIcon=mxgraph.aws4.group_aws_cloud;strokeColor=#AAB7B8;fillColor=none;verticalAlign=top;align=left;spacingLeft=30;fontColor=#AAB7B8;dashed=0;fontFamily=Rubik;" parent="iEEl2lX3LwRMDJczbpHo-1" vertex="1">
          <mxGeometry x="1640" y="-300" width="200" height="520" as="geometry" />
        </mxCell>
        <mxCell id="iEEl2lX3LwRMDJczbpHo-112" value="prod account" style="sketch=0;outlineConnect=0;gradientColor=none;fontSize=16;fontStyle=0;shape=mxgraph.aws4.group;grIcon=mxgraph.aws4.group_aws_cloud;strokeColor=#AAB7B8;fillColor=none;verticalAlign=top;align=left;spacingLeft=30;fontColor=#AAB7B8;dashed=0;fontFamily=Rubik;" parent="iEEl2lX3LwRMDJczbpHo-1" vertex="1">
          <mxGeometry x="1860" y="-300" width="200" height="520" as="geometry" />
        </mxCell>
        <mxCell id="cWOlrO8j39qTAGrySwNN-1" value="" style="endArrow=none;dashed=1;strokeWidth=2;rounded=0;fontFamily=Rubik;fontSize=14;fontColor=#FFFFFF;strokeColor=#5C5C5C;" parent="iEEl2lX3LwRMDJczbpHo-1" edge="1">
          <mxGeometry width="50" height="50" relative="1" as="geometry">
            <mxPoint x="900" y="20" as="sourcePoint" />
            <mxPoint x="1600" y="20" as="targetPoint" />
          </mxGeometry>
        </mxCell>
        <mxCell id="cWOlrO8j39qTAGrySwNN-2" value="" style="endArrow=none;dashed=1;strokeWidth=2;rounded=0;fontFamily=Rubik;fontSize=14;fontColor=#FFFFFF;strokeColor=#5C5C5C;" parent="iEEl2lX3LwRMDJczbpHo-1" edge="1">
          <mxGeometry width="50" height="50" relative="1" as="geometry">
            <mxPoint x="1660" y="20" as="sourcePoint" />
            <mxPoint x="1820" y="20" as="targetPoint" />
          </mxGeometry>
        </mxCell>
        <mxCell id="jDzYOtCuPPy5X8dbppVo-62" value="" style="group" parent="iEEl2lX3LwRMDJczbpHo-1" vertex="1" connectable="0">
          <mxGeometry x="1080" y="-240" width="160" height="240" as="geometry" />
        </mxCell>
        <mxCell id="iEEl2lX3LwRMDJczbpHo-80" value="feature" style="fontFamily=Rubik;fontSize=22;fontColor=#ffffff;strokeColor=#6A00FF;strokeWidth=2;fillColor=#6a00ff;spacingTop=8;" parent="jDzYOtCuPPy5X8dbppVo-62" vertex="1">
          <mxGeometry width="160" height="40" as="geometry" />
        </mxCell>
        <mxCell id="jDzYOtCuPPy5X8dbppVo-2" value="environment(s)" style="fontFamily=Rubik;fontSize=16;fontColor=#ffffff;strokeColor=#6A00FF;strokeWidth=2;fillColor=#6a00ff;spacingBottom=16;textOpacity=50;" parent="jDzYOtCuPPy5X8dbppVo-62" vertex="1">
          <mxGeometry y="40" width="160" height="40" as="geometry" />
        </mxCell>
        <mxCell id="iEEl2lX3LwRMDJczbpHo-81" value="short-lived" style="fontFamily=Rubik;fontSize=16;fontColor=#FFFFFF;strokeColor=#6A00FF;strokeWidth=2;fillColor=#1C0042;spacingBottom=1;fontStyle=2" parent="jDzYOtCuPPy5X8dbppVo-62" vertex="1">
          <mxGeometry y="120" width="160" height="40" as="geometry" />
        </mxCell>
        <mxCell id="jDzYOtCuPPy5X8dbppVo-7" value="OPTIONAL" style="fontFamily=Rubik;fontSize=16;fontColor=#FFFFFF;strokeColor=#6A00FF;strokeWidth=2;fillColor=#1C0042;spacingBottom=1;fontStyle=2;textOpacity=50;" parent="jDzYOtCuPPy5X8dbppVo-62" vertex="1">
          <mxGeometry y="80" width="160" height="40" as="geometry" />
        </mxCell>
        <mxCell id="jDzYOtCuPPy5X8dbppVo-13" value="" style="group" parent="jDzYOtCuPPy5X8dbppVo-62" vertex="1" connectable="0">
          <mxGeometry y="160" width="160" height="80" as="geometry" />
        </mxCell>
        <mxCell id="jDzYOtCuPPy5X8dbppVo-14" value="" style="sketch=0;points=[[0,0,0],[0.25,0,0],[0.5,0,0],[0.75,0,0],[1,0,0],[0,1,0],[0.25,1,0],[0.5,1,0],[0.75,1,0],[1,1,0],[0,0.25,0],[0,0.5,0],[0,0.75,0],[1,0.25,0],[1,0.5,0],[1,0.75,0]];outlineConnect=0;fontColor=#232F3E;gradientColor=#F78E04;gradientDirection=north;fillColor=#D05C17;strokeColor=#ffffff;dashed=0;verticalLabelPosition=bottom;verticalAlign=top;align=center;fontSize=12;fontStyle=0;aspect=fixed;shape=mxgraph.aws4.resourceIcon;resIcon=mxgraph.aws4.lambda;fontFamily=Rubik;" parent="jDzYOtCuPPy5X8dbppVo-13" vertex="1">
          <mxGeometry width="40" height="40" as="geometry" />
        </mxCell>
        <mxCell id="jDzYOtCuPPy5X8dbppVo-15" value="" style="sketch=0;points=[[0,0,0],[0.25,0,0],[0.5,0,0],[0.75,0,0],[1,0,0],[0,1,0],[0.25,1,0],[0.5,1,0],[0.75,1,0],[1,1,0],[0,0.25,0],[0,0.5,0],[0,0.75,0],[1,0.25,0],[1,0.5,0],[1,0.75,0]];outlineConnect=0;fontColor=#232F3E;gradientColor=#945DF2;gradientDirection=north;fillColor=#5A30B5;strokeColor=#ffffff;dashed=0;verticalLabelPosition=bottom;verticalAlign=top;align=center;fontSize=12;fontStyle=0;aspect=fixed;shape=mxgraph.aws4.resourceIcon;resIcon=mxgraph.aws4.api_gateway;fontFamily=Rubik;" parent="jDzYOtCuPPy5X8dbppVo-13" vertex="1">
          <mxGeometry x="80" width="40" height="40" as="geometry" />
        </mxCell>
        <mxCell id="jDzYOtCuPPy5X8dbppVo-16" value="" style="sketch=0;points=[[0,0,0],[0.25,0,0],[0.5,0,0],[0.75,0,0],[1,0,0],[0,1,0],[0.25,1,0],[0.5,1,0],[0.75,1,0],[1,1,0],[0,0.25,0],[0,0.5,0],[0,0.75,0],[1,0.25,0],[1,0.5,0],[1,0.75,0]];outlineConnect=0;fontColor=#232F3E;gradientColor=#FF4F8B;gradientDirection=north;fillColor=#BC1356;strokeColor=#ffffff;dashed=0;verticalLabelPosition=bottom;verticalAlign=top;align=center;fontSize=12;fontStyle=0;aspect=fixed;shape=mxgraph.aws4.resourceIcon;resIcon=mxgraph.aws4.eventbridge;fontFamily=Rubik;" parent="jDzYOtCuPPy5X8dbppVo-13" vertex="1">
          <mxGeometry x="40" width="40" height="40" as="geometry" />
        </mxCell>
        <mxCell id="jDzYOtCuPPy5X8dbppVo-17" value="" style="sketch=0;points=[[0,0,0],[0.25,0,0],[0.5,0,0],[0.75,0,0],[1,0,0],[0,1,0],[0.25,1,0],[0.5,1,0],[0.75,1,0],[1,1,0],[0,0.25,0],[0,0.5,0],[0,0.75,0],[1,0.25,0],[1,0.5,0],[1,0.75,0]];outlineConnect=0;fontColor=#232F3E;gradientColor=#60A337;gradientDirection=north;fillColor=#277116;strokeColor=#ffffff;dashed=0;verticalLabelPosition=bottom;verticalAlign=top;align=center;fontSize=12;fontStyle=0;aspect=fixed;shape=mxgraph.aws4.resourceIcon;resIcon=mxgraph.aws4.s3;fontFamily=Rubik;" parent="jDzYOtCuPPy5X8dbppVo-13" vertex="1">
          <mxGeometry x="40" y="40" width="40" height="40" as="geometry" />
        </mxCell>
        <mxCell id="jDzYOtCuPPy5X8dbppVo-18" value="" style="sketch=0;points=[[0,0,0],[0.25,0,0],[0.5,0,0],[0.75,0,0],[1,0,0],[0,1,0],[0.25,1,0],[0.5,1,0],[0.75,1,0],[1,1,0],[0,0.25,0],[0,0.5,0],[0,0.75,0],[1,0.25,0],[1,0.5,0],[1,0.75,0]];outlineConnect=0;fontColor=#232F3E;gradientColor=#F78E04;gradientDirection=north;fillColor=#D05C17;strokeColor=#ffffff;dashed=0;verticalLabelPosition=bottom;verticalAlign=top;align=center;fontSize=12;fontStyle=0;aspect=fixed;shape=mxgraph.aws4.resourceIcon;resIcon=mxgraph.aws4.fargate;fontFamily=Rubik;" parent="jDzYOtCuPPy5X8dbppVo-13" vertex="1">
          <mxGeometry x="120" width="40" height="40" as="geometry" />
        </mxCell>
        <mxCell id="jDzYOtCuPPy5X8dbppVo-19" value="" style="sketch=0;points=[[0,0,0],[0.25,0,0],[0.5,0,0],[0.75,0,0],[1,0,0],[0,1,0],[0.25,1,0],[0.5,1,0],[0.75,1,0],[1,1,0],[0,0.25,0],[0,0.5,0],[0,0.75,0],[1,0.25,0],[1,0.5,0],[1,0.75,0]];outlineConnect=0;fontColor=#232F3E;gradientColor=#945DF2;gradientDirection=north;fillColor=#5A30B5;strokeColor=#ffffff;dashed=0;verticalLabelPosition=bottom;verticalAlign=top;align=center;fontSize=12;fontStyle=0;aspect=fixed;shape=mxgraph.aws4.resourceIcon;resIcon=mxgraph.aws4.cloudfront;fontFamily=Rubik;" parent="jDzYOtCuPPy5X8dbppVo-13" vertex="1">
          <mxGeometry x="120" y="40" width="40" height="40" as="geometry" />
        </mxCell>
        <mxCell id="jDzYOtCuPPy5X8dbppVo-20" value="" style="sketch=0;points=[[0,0,0],[0.25,0,0],[0.5,0,0],[0.75,0,0],[1,0,0],[0,1,0],[0.25,1,0],[0.5,1,0],[0.75,1,0],[1,1,0],[0,0.25,0],[0,0.5,0],[0,0.75,0],[1,0.25,0],[1,0.5,0],[1,0.75,0]];outlineConnect=0;fontColor=#232F3E;gradientColor=#4D72F3;gradientDirection=north;fillColor=#3334B9;strokeColor=#ffffff;dashed=0;verticalLabelPosition=bottom;verticalAlign=top;align=center;fontSize=12;fontStyle=0;aspect=fixed;shape=mxgraph.aws4.resourceIcon;resIcon=mxgraph.aws4.rds;fontFamily=Rubik;" parent="jDzYOtCuPPy5X8dbppVo-13" vertex="1">
          <mxGeometry x="80" y="40" width="40" height="40" as="geometry" />
        </mxCell>
        <mxCell id="jDzYOtCuPPy5X8dbppVo-21" value="" style="sketch=0;points=[[0,0,0],[0.25,0,0],[0.5,0,0],[0.75,0,0],[1,0,0],[0,1,0],[0.25,1,0],[0.5,1,0],[0.75,1,0],[1,1,0],[0,0.25,0],[0,0.5,0],[0,0.75,0],[1,0.25,0],[1,0.5,0],[1,0.75,0]];outlineConnect=0;fontColor=#232F3E;gradientColor=#4D72F3;gradientDirection=north;fillColor=#3334B9;strokeColor=#ffffff;dashed=0;verticalLabelPosition=bottom;verticalAlign=top;align=center;fontSize=12;fontStyle=0;aspect=fixed;shape=mxgraph.aws4.resourceIcon;resIcon=mxgraph.aws4.dynamodb;fontFamily=Rubik;" parent="jDzYOtCuPPy5X8dbppVo-13" vertex="1">
          <mxGeometry y="40" width="40" height="40" as="geometry" />
        </mxCell>
        <mxCell id="iEEl2lX3LwRMDJczbpHo-93" value="" style="outlineConnect=0;gradientColor=none;fontSize=16;fontStyle=0;strokeColor=#6A00FF;fillColor=none;verticalAlign=top;align=center;fontColor=#90A6C2;spacingTop=3;fontFamily=Rubik;strokeWidth=2;" parent="jDzYOtCuPPy5X8dbppVo-62" vertex="1">
          <mxGeometry y="160" width="160" height="80" as="geometry" />
        </mxCell>
        <mxCell id="jDzYOtCuPPy5X8dbppVo-63" value="" style="group" parent="iEEl2lX3LwRMDJczbpHo-1" vertex="1" connectable="0">
          <mxGeometry x="1260" y="-240" width="160" height="240" as="geometry" />
        </mxCell>
        <mxCell id="iEEl2lX3LwRMDJczbpHo-50" value="test" style="fontFamily=Rubik;fontSize=22;fontColor=#ffffff;strokeColor=#21C0A5;strokeWidth=2;fillColor=#21C0A5;spacingTop=8;" parent="jDzYOtCuPPy5X8dbppVo-63" vertex="1">
          <mxGeometry width="160" height="40" as="geometry" />
        </mxCell>
        <mxCell id="iEEl2lX3LwRMDJczbpHo-51" value="for QA purposes" style="fontFamily=Rubik;fontSize=16;fontColor=#FFFFFF;strokeColor=#21C0A5;strokeWidth=2;fillColor=#0B3D35;spacingBottom=1;fontStyle=2" parent="jDzYOtCuPPy5X8dbppVo-63" vertex="1">
          <mxGeometry y="120" width="160" height="40" as="geometry" />
        </mxCell>
        <mxCell id="jDzYOtCuPPy5X8dbppVo-3" value="environment" style="fontFamily=Rubik;fontSize=16;fontColor=#ffffff;strokeColor=#21C0A5;strokeWidth=2;fillColor=#21C0A5;spacingBottom=16;textOpacity=50;" parent="jDzYOtCuPPy5X8dbppVo-63" vertex="1">
          <mxGeometry y="40" width="160" height="40" as="geometry" />
        </mxCell>
        <mxCell id="jDzYOtCuPPy5X8dbppVo-8" value="OPTIONAL" style="fontFamily=Rubik;fontSize=16;fontColor=#FFFFFF;strokeColor=#21C0A5;strokeWidth=2;fillColor=#0B3D35;spacingBottom=1;fontStyle=2;textOpacity=50;" parent="jDzYOtCuPPy5X8dbppVo-63" vertex="1">
          <mxGeometry y="80" width="160" height="40" as="geometry" />
        </mxCell>
        <mxCell id="jDzYOtCuPPy5X8dbppVo-23" value="" style="group" parent="jDzYOtCuPPy5X8dbppVo-63" vertex="1" connectable="0">
          <mxGeometry y="160" width="160" height="80" as="geometry" />
        </mxCell>
        <mxCell id="jDzYOtCuPPy5X8dbppVo-24" value="" style="sketch=0;points=[[0,0,0],[0.25,0,0],[0.5,0,0],[0.75,0,0],[1,0,0],[0,1,0],[0.25,1,0],[0.5,1,0],[0.75,1,0],[1,1,0],[0,0.25,0],[0,0.5,0],[0,0.75,0],[1,0.25,0],[1,0.5,0],[1,0.75,0]];outlineConnect=0;fontColor=#232F3E;gradientColor=#F78E04;gradientDirection=north;fillColor=#D05C17;strokeColor=#ffffff;dashed=0;verticalLabelPosition=bottom;verticalAlign=top;align=center;fontSize=12;fontStyle=0;aspect=fixed;shape=mxgraph.aws4.resourceIcon;resIcon=mxgraph.aws4.lambda;fontFamily=Rubik;" parent="jDzYOtCuPPy5X8dbppVo-23" vertex="1">
          <mxGeometry width="40" height="40" as="geometry" />
        </mxCell>
        <mxCell id="jDzYOtCuPPy5X8dbppVo-25" value="" style="sketch=0;points=[[0,0,0],[0.25,0,0],[0.5,0,0],[0.75,0,0],[1,0,0],[0,1,0],[0.25,1,0],[0.5,1,0],[0.75,1,0],[1,1,0],[0,0.25,0],[0,0.5,0],[0,0.75,0],[1,0.25,0],[1,0.5,0],[1,0.75,0]];outlineConnect=0;fontColor=#232F3E;gradientColor=#945DF2;gradientDirection=north;fillColor=#5A30B5;strokeColor=#ffffff;dashed=0;verticalLabelPosition=bottom;verticalAlign=top;align=center;fontSize=12;fontStyle=0;aspect=fixed;shape=mxgraph.aws4.resourceIcon;resIcon=mxgraph.aws4.api_gateway;fontFamily=Rubik;" parent="jDzYOtCuPPy5X8dbppVo-23" vertex="1">
          <mxGeometry x="80" width="40" height="40" as="geometry" />
        </mxCell>
        <mxCell id="jDzYOtCuPPy5X8dbppVo-26" value="" style="sketch=0;points=[[0,0,0],[0.25,0,0],[0.5,0,0],[0.75,0,0],[1,0,0],[0,1,0],[0.25,1,0],[0.5,1,0],[0.75,1,0],[1,1,0],[0,0.25,0],[0,0.5,0],[0,0.75,0],[1,0.25,0],[1,0.5,0],[1,0.75,0]];outlineConnect=0;fontColor=#232F3E;gradientColor=#FF4F8B;gradientDirection=north;fillColor=#BC1356;strokeColor=#ffffff;dashed=0;verticalLabelPosition=bottom;verticalAlign=top;align=center;fontSize=12;fontStyle=0;aspect=fixed;shape=mxgraph.aws4.resourceIcon;resIcon=mxgraph.aws4.eventbridge;fontFamily=Rubik;" parent="jDzYOtCuPPy5X8dbppVo-23" vertex="1">
          <mxGeometry x="40" width="40" height="40" as="geometry" />
        </mxCell>
        <mxCell id="jDzYOtCuPPy5X8dbppVo-27" value="" style="sketch=0;points=[[0,0,0],[0.25,0,0],[0.5,0,0],[0.75,0,0],[1,0,0],[0,1,0],[0.25,1,0],[0.5,1,0],[0.75,1,0],[1,1,0],[0,0.25,0],[0,0.5,0],[0,0.75,0],[1,0.25,0],[1,0.5,0],[1,0.75,0]];outlineConnect=0;fontColor=#232F3E;gradientColor=#60A337;gradientDirection=north;fillColor=#277116;strokeColor=#ffffff;dashed=0;verticalLabelPosition=bottom;verticalAlign=top;align=center;fontSize=12;fontStyle=0;aspect=fixed;shape=mxgraph.aws4.resourceIcon;resIcon=mxgraph.aws4.s3;fontFamily=Rubik;" parent="jDzYOtCuPPy5X8dbppVo-23" vertex="1">
          <mxGeometry x="40" y="40" width="40" height="40" as="geometry" />
        </mxCell>
        <mxCell id="jDzYOtCuPPy5X8dbppVo-28" value="" style="sketch=0;points=[[0,0,0],[0.25,0,0],[0.5,0,0],[0.75,0,0],[1,0,0],[0,1,0],[0.25,1,0],[0.5,1,0],[0.75,1,0],[1,1,0],[0,0.25,0],[0,0.5,0],[0,0.75,0],[1,0.25,0],[1,0.5,0],[1,0.75,0]];outlineConnect=0;fontColor=#232F3E;gradientColor=#F78E04;gradientDirection=north;fillColor=#D05C17;strokeColor=#ffffff;dashed=0;verticalLabelPosition=bottom;verticalAlign=top;align=center;fontSize=12;fontStyle=0;aspect=fixed;shape=mxgraph.aws4.resourceIcon;resIcon=mxgraph.aws4.fargate;fontFamily=Rubik;" parent="jDzYOtCuPPy5X8dbppVo-23" vertex="1">
          <mxGeometry x="120" width="40" height="40" as="geometry" />
        </mxCell>
        <mxCell id="jDzYOtCuPPy5X8dbppVo-29" value="" style="sketch=0;points=[[0,0,0],[0.25,0,0],[0.5,0,0],[0.75,0,0],[1,0,0],[0,1,0],[0.25,1,0],[0.5,1,0],[0.75,1,0],[1,1,0],[0,0.25,0],[0,0.5,0],[0,0.75,0],[1,0.25,0],[1,0.5,0],[1,0.75,0]];outlineConnect=0;fontColor=#232F3E;gradientColor=#945DF2;gradientDirection=north;fillColor=#5A30B5;strokeColor=#ffffff;dashed=0;verticalLabelPosition=bottom;verticalAlign=top;align=center;fontSize=12;fontStyle=0;aspect=fixed;shape=mxgraph.aws4.resourceIcon;resIcon=mxgraph.aws4.cloudfront;fontFamily=Rubik;" parent="jDzYOtCuPPy5X8dbppVo-23" vertex="1">
          <mxGeometry x="120" y="40" width="40" height="40" as="geometry" />
        </mxCell>
        <mxCell id="jDzYOtCuPPy5X8dbppVo-30" value="" style="sketch=0;points=[[0,0,0],[0.25,0,0],[0.5,0,0],[0.75,0,0],[1,0,0],[0,1,0],[0.25,1,0],[0.5,1,0],[0.75,1,0],[1,1,0],[0,0.25,0],[0,0.5,0],[0,0.75,0],[1,0.25,0],[1,0.5,0],[1,0.75,0]];outlineConnect=0;fontColor=#232F3E;gradientColor=#4D72F3;gradientDirection=north;fillColor=#3334B9;strokeColor=#ffffff;dashed=0;verticalLabelPosition=bottom;verticalAlign=top;align=center;fontSize=12;fontStyle=0;aspect=fixed;shape=mxgraph.aws4.resourceIcon;resIcon=mxgraph.aws4.rds;fontFamily=Rubik;" parent="jDzYOtCuPPy5X8dbppVo-23" vertex="1">
          <mxGeometry x="80" y="40" width="40" height="40" as="geometry" />
        </mxCell>
        <mxCell id="jDzYOtCuPPy5X8dbppVo-31" value="" style="sketch=0;points=[[0,0,0],[0.25,0,0],[0.5,0,0],[0.75,0,0],[1,0,0],[0,1,0],[0.25,1,0],[0.5,1,0],[0.75,1,0],[1,1,0],[0,0.25,0],[0,0.5,0],[0,0.75,0],[1,0.25,0],[1,0.5,0],[1,0.75,0]];outlineConnect=0;fontColor=#232F3E;gradientColor=#4D72F3;gradientDirection=north;fillColor=#3334B9;strokeColor=#ffffff;dashed=0;verticalLabelPosition=bottom;verticalAlign=top;align=center;fontSize=12;fontStyle=0;aspect=fixed;shape=mxgraph.aws4.resourceIcon;resIcon=mxgraph.aws4.dynamodb;fontFamily=Rubik;" parent="jDzYOtCuPPy5X8dbppVo-23" vertex="1">
          <mxGeometry y="40" width="40" height="40" as="geometry" />
        </mxCell>
        <mxCell id="iEEl2lX3LwRMDJczbpHo-63" value="" style="outlineConnect=0;gradientColor=none;fontSize=16;fontStyle=0;strokeColor=#21C0A5;fillColor=none;verticalAlign=top;align=center;fontColor=#90A6C2;spacingTop=3;fontFamily=Rubik;strokeWidth=2;" parent="jDzYOtCuPPy5X8dbppVo-63" vertex="1">
          <mxGeometry y="160" width="160" height="80" as="geometry" />
        </mxCell>
        <mxCell id="jDzYOtCuPPy5X8dbppVo-64" value="" style="group" parent="iEEl2lX3LwRMDJczbpHo-1" vertex="1" connectable="0">
          <mxGeometry x="1440" y="-240" width="160" height="240" as="geometry" />
        </mxCell>
        <mxCell id="iEEl2lX3LwRMDJczbpHo-35" value="staging" style="fontFamily=Rubik;fontSize=22;fontColor=#ffffff;strokeColor=#45A364;strokeWidth=2;fillColor=#45A364;spacingTop=8;" parent="jDzYOtCuPPy5X8dbppVo-64" vertex="1">
          <mxGeometry width="160" height="40" as="geometry" />
        </mxCell>
        <mxCell id="iEEl2lX3LwRMDJczbpHo-36" value="release candidate" style="fontFamily=Rubik;fontSize=16;fontColor=#FFFFFF;strokeColor=#45A364;strokeWidth=2;fillColor=#193B24;spacingBottom=1;fontStyle=2" parent="jDzYOtCuPPy5X8dbppVo-64" vertex="1">
          <mxGeometry y="120" width="160" height="40" as="geometry" />
        </mxCell>
        <mxCell id="jDzYOtCuPPy5X8dbppVo-4" value="environment" style="fontFamily=Rubik;fontSize=16;fontColor=#ffffff;strokeColor=#45A364;strokeWidth=2;fillColor=#45A364;spacingBottom=16;textOpacity=50;" parent="jDzYOtCuPPy5X8dbppVo-64" vertex="1">
          <mxGeometry y="40" width="160" height="40" as="geometry" />
        </mxCell>
        <mxCell id="jDzYOtCuPPy5X8dbppVo-9" value="REQUIRED" style="fontFamily=Rubik;fontSize=16;fontColor=#FFFFFF;strokeColor=#45A364;strokeWidth=2;fillColor=#193B24;spacingBottom=1;fontStyle=3" parent="jDzYOtCuPPy5X8dbppVo-64" vertex="1">
          <mxGeometry y="80" width="160" height="40" as="geometry" />
        </mxCell>
        <mxCell id="jDzYOtCuPPy5X8dbppVo-32" value="" style="group" parent="jDzYOtCuPPy5X8dbppVo-64" vertex="1" connectable="0">
          <mxGeometry y="160" width="160" height="80" as="geometry" />
        </mxCell>
        <mxCell id="jDzYOtCuPPy5X8dbppVo-33" value="" style="sketch=0;points=[[0,0,0],[0.25,0,0],[0.5,0,0],[0.75,0,0],[1,0,0],[0,1,0],[0.25,1,0],[0.5,1,0],[0.75,1,0],[1,1,0],[0,0.25,0],[0,0.5,0],[0,0.75,0],[1,0.25,0],[1,0.5,0],[1,0.75,0]];outlineConnect=0;fontColor=#232F3E;gradientColor=#F78E04;gradientDirection=north;fillColor=#D05C17;strokeColor=#ffffff;dashed=0;verticalLabelPosition=bottom;verticalAlign=top;align=center;fontSize=12;fontStyle=0;aspect=fixed;shape=mxgraph.aws4.resourceIcon;resIcon=mxgraph.aws4.lambda;fontFamily=Rubik;" parent="jDzYOtCuPPy5X8dbppVo-32" vertex="1">
          <mxGeometry width="40" height="40" as="geometry" />
        </mxCell>
        <mxCell id="jDzYOtCuPPy5X8dbppVo-34" value="" style="sketch=0;points=[[0,0,0],[0.25,0,0],[0.5,0,0],[0.75,0,0],[1,0,0],[0,1,0],[0.25,1,0],[0.5,1,0],[0.75,1,0],[1,1,0],[0,0.25,0],[0,0.5,0],[0,0.75,0],[1,0.25,0],[1,0.5,0],[1,0.75,0]];outlineConnect=0;fontColor=#232F3E;gradientColor=#945DF2;gradientDirection=north;fillColor=#5A30B5;strokeColor=#ffffff;dashed=0;verticalLabelPosition=bottom;verticalAlign=top;align=center;fontSize=12;fontStyle=0;aspect=fixed;shape=mxgraph.aws4.resourceIcon;resIcon=mxgraph.aws4.api_gateway;fontFamily=Rubik;" parent="jDzYOtCuPPy5X8dbppVo-32" vertex="1">
          <mxGeometry x="80" width="40" height="40" as="geometry" />
        </mxCell>
        <mxCell id="jDzYOtCuPPy5X8dbppVo-35" value="" style="sketch=0;points=[[0,0,0],[0.25,0,0],[0.5,0,0],[0.75,0,0],[1,0,0],[0,1,0],[0.25,1,0],[0.5,1,0],[0.75,1,0],[1,1,0],[0,0.25,0],[0,0.5,0],[0,0.75,0],[1,0.25,0],[1,0.5,0],[1,0.75,0]];outlineConnect=0;fontColor=#232F3E;gradientColor=#FF4F8B;gradientDirection=north;fillColor=#BC1356;strokeColor=#ffffff;dashed=0;verticalLabelPosition=bottom;verticalAlign=top;align=center;fontSize=12;fontStyle=0;aspect=fixed;shape=mxgraph.aws4.resourceIcon;resIcon=mxgraph.aws4.eventbridge;fontFamily=Rubik;" parent="jDzYOtCuPPy5X8dbppVo-32" vertex="1">
          <mxGeometry x="40" width="40" height="40" as="geometry" />
        </mxCell>
        <mxCell id="jDzYOtCuPPy5X8dbppVo-36" value="" style="sketch=0;points=[[0,0,0],[0.25,0,0],[0.5,0,0],[0.75,0,0],[1,0,0],[0,1,0],[0.25,1,0],[0.5,1,0],[0.75,1,0],[1,1,0],[0,0.25,0],[0,0.5,0],[0,0.75,0],[1,0.25,0],[1,0.5,0],[1,0.75,0]];outlineConnect=0;fontColor=#232F3E;gradientColor=#60A337;gradientDirection=north;fillColor=#277116;strokeColor=#ffffff;dashed=0;verticalLabelPosition=bottom;verticalAlign=top;align=center;fontSize=12;fontStyle=0;aspect=fixed;shape=mxgraph.aws4.resourceIcon;resIcon=mxgraph.aws4.s3;fontFamily=Rubik;" parent="jDzYOtCuPPy5X8dbppVo-32" vertex="1">
          <mxGeometry x="40" y="40" width="40" height="40" as="geometry" />
        </mxCell>
        <mxCell id="jDzYOtCuPPy5X8dbppVo-37" value="" style="sketch=0;points=[[0,0,0],[0.25,0,0],[0.5,0,0],[0.75,0,0],[1,0,0],[0,1,0],[0.25,1,0],[0.5,1,0],[0.75,1,0],[1,1,0],[0,0.25,0],[0,0.5,0],[0,0.75,0],[1,0.25,0],[1,0.5,0],[1,0.75,0]];outlineConnect=0;fontColor=#232F3E;gradientColor=#F78E04;gradientDirection=north;fillColor=#D05C17;strokeColor=#ffffff;dashed=0;verticalLabelPosition=bottom;verticalAlign=top;align=center;fontSize=12;fontStyle=0;aspect=fixed;shape=mxgraph.aws4.resourceIcon;resIcon=mxgraph.aws4.fargate;fontFamily=Rubik;" parent="jDzYOtCuPPy5X8dbppVo-32" vertex="1">
          <mxGeometry x="120" width="40" height="40" as="geometry" />
        </mxCell>
        <mxCell id="jDzYOtCuPPy5X8dbppVo-38" value="" style="sketch=0;points=[[0,0,0],[0.25,0,0],[0.5,0,0],[0.75,0,0],[1,0,0],[0,1,0],[0.25,1,0],[0.5,1,0],[0.75,1,0],[1,1,0],[0,0.25,0],[0,0.5,0],[0,0.75,0],[1,0.25,0],[1,0.5,0],[1,0.75,0]];outlineConnect=0;fontColor=#232F3E;gradientColor=#945DF2;gradientDirection=north;fillColor=#5A30B5;strokeColor=#ffffff;dashed=0;verticalLabelPosition=bottom;verticalAlign=top;align=center;fontSize=12;fontStyle=0;aspect=fixed;shape=mxgraph.aws4.resourceIcon;resIcon=mxgraph.aws4.cloudfront;fontFamily=Rubik;" parent="jDzYOtCuPPy5X8dbppVo-32" vertex="1">
          <mxGeometry x="120" y="40" width="40" height="40" as="geometry" />
        </mxCell>
        <mxCell id="jDzYOtCuPPy5X8dbppVo-39" value="" style="sketch=0;points=[[0,0,0],[0.25,0,0],[0.5,0,0],[0.75,0,0],[1,0,0],[0,1,0],[0.25,1,0],[0.5,1,0],[0.75,1,0],[1,1,0],[0,0.25,0],[0,0.5,0],[0,0.75,0],[1,0.25,0],[1,0.5,0],[1,0.75,0]];outlineConnect=0;fontColor=#232F3E;gradientColor=#4D72F3;gradientDirection=north;fillColor=#3334B9;strokeColor=#ffffff;dashed=0;verticalLabelPosition=bottom;verticalAlign=top;align=center;fontSize=12;fontStyle=0;aspect=fixed;shape=mxgraph.aws4.resourceIcon;resIcon=mxgraph.aws4.rds;fontFamily=Rubik;" parent="jDzYOtCuPPy5X8dbppVo-32" vertex="1">
          <mxGeometry x="80" y="40" width="40" height="40" as="geometry" />
        </mxCell>
        <mxCell id="jDzYOtCuPPy5X8dbppVo-40" value="" style="sketch=0;points=[[0,0,0],[0.25,0,0],[0.5,0,0],[0.75,0,0],[1,0,0],[0,1,0],[0.25,1,0],[0.5,1,0],[0.75,1,0],[1,1,0],[0,0.25,0],[0,0.5,0],[0,0.75,0],[1,0.25,0],[1,0.5,0],[1,0.75,0]];outlineConnect=0;fontColor=#232F3E;gradientColor=#4D72F3;gradientDirection=north;fillColor=#3334B9;strokeColor=#ffffff;dashed=0;verticalLabelPosition=bottom;verticalAlign=top;align=center;fontSize=12;fontStyle=0;aspect=fixed;shape=mxgraph.aws4.resourceIcon;resIcon=mxgraph.aws4.dynamodb;fontFamily=Rubik;" parent="jDzYOtCuPPy5X8dbppVo-32" vertex="1">
          <mxGeometry y="40" width="40" height="40" as="geometry" />
        </mxCell>
        <mxCell id="iEEl2lX3LwRMDJczbpHo-48" value="" style="outlineConnect=0;gradientColor=none;fontSize=16;fontStyle=0;strokeColor=#45A364;fillColor=none;verticalAlign=top;align=center;fontColor=#90A6C2;spacingTop=3;fontFamily=Rubik;strokeWidth=2;" parent="jDzYOtCuPPy5X8dbppVo-64" vertex="1">
          <mxGeometry y="160" width="160" height="80" as="geometry" />
        </mxCell>
        <mxCell id="jDzYOtCuPPy5X8dbppVo-65" value="" style="group" parent="iEEl2lX3LwRMDJczbpHo-1" vertex="1" connectable="0">
          <mxGeometry x="1660" y="-240" width="160" height="240" as="geometry" />
        </mxCell>
        <mxCell id="iEEl2lX3LwRMDJczbpHo-5" value="preproduction" style="fontFamily=Rubik;fontSize=22;fontColor=#ffffff;strokeColor=#D86613;strokeWidth=2;fillColor=#D86613;spacingTop=8;" parent="jDzYOtCuPPy5X8dbppVo-65" vertex="1">
          <mxGeometry width="160" height="40" as="geometry" />
        </mxCell>
        <mxCell id="iEEl2lX3LwRMDJczbpHo-6" value="for QA purposes" style="fontFamily=Rubik;fontSize=16;fontColor=#FFFFFF;strokeColor=#D86613;strokeWidth=2;fillColor=#3D1D05;spacingBottom=1;fontStyle=2" parent="jDzYOtCuPPy5X8dbppVo-65" vertex="1">
          <mxGeometry y="120" width="160" height="40" as="geometry" />
        </mxCell>
        <mxCell id="jDzYOtCuPPy5X8dbppVo-5" value="environment" style="fontFamily=Rubik;fontSize=16;fontColor=#ffffff;strokeColor=#D86613;strokeWidth=2;fillColor=#D86613;spacingBottom=16;textOpacity=50;" parent="jDzYOtCuPPy5X8dbppVo-65" vertex="1">
          <mxGeometry y="40" width="160" height="40" as="geometry" />
        </mxCell>
        <mxCell id="jDzYOtCuPPy5X8dbppVo-10" value="REQUIRED" style="fontFamily=Rubik;fontSize=16;fontColor=#FFFFFF;strokeColor=#D86613;strokeWidth=2;fillColor=#3D1D05;spacingBottom=1;fontStyle=3;" parent="jDzYOtCuPPy5X8dbppVo-65" vertex="1">
          <mxGeometry y="80" width="160" height="40" as="geometry" />
        </mxCell>
        <mxCell id="jDzYOtCuPPy5X8dbppVo-41" value="" style="group" parent="jDzYOtCuPPy5X8dbppVo-65" vertex="1" connectable="0">
          <mxGeometry y="160" width="160" height="80" as="geometry" />
        </mxCell>
        <mxCell id="jDzYOtCuPPy5X8dbppVo-42" value="" style="sketch=0;points=[[0,0,0],[0.25,0,0],[0.5,0,0],[0.75,0,0],[1,0,0],[0,1,0],[0.25,1,0],[0.5,1,0],[0.75,1,0],[1,1,0],[0,0.25,0],[0,0.5,0],[0,0.75,0],[1,0.25,0],[1,0.5,0],[1,0.75,0]];outlineConnect=0;fontColor=#232F3E;gradientColor=#F78E04;gradientDirection=north;fillColor=#D05C17;strokeColor=#ffffff;dashed=0;verticalLabelPosition=bottom;verticalAlign=top;align=center;fontSize=12;fontStyle=0;aspect=fixed;shape=mxgraph.aws4.resourceIcon;resIcon=mxgraph.aws4.lambda;fontFamily=Rubik;" parent="jDzYOtCuPPy5X8dbppVo-41" vertex="1">
          <mxGeometry width="40" height="40" as="geometry" />
        </mxCell>
        <mxCell id="jDzYOtCuPPy5X8dbppVo-43" value="" style="sketch=0;points=[[0,0,0],[0.25,0,0],[0.5,0,0],[0.75,0,0],[1,0,0],[0,1,0],[0.25,1,0],[0.5,1,0],[0.75,1,0],[1,1,0],[0,0.25,0],[0,0.5,0],[0,0.75,0],[1,0.25,0],[1,0.5,0],[1,0.75,0]];outlineConnect=0;fontColor=#232F3E;gradientColor=#945DF2;gradientDirection=north;fillColor=#5A30B5;strokeColor=#ffffff;dashed=0;verticalLabelPosition=bottom;verticalAlign=top;align=center;fontSize=12;fontStyle=0;aspect=fixed;shape=mxgraph.aws4.resourceIcon;resIcon=mxgraph.aws4.api_gateway;fontFamily=Rubik;" parent="jDzYOtCuPPy5X8dbppVo-41" vertex="1">
          <mxGeometry x="80" width="40" height="40" as="geometry" />
        </mxCell>
        <mxCell id="jDzYOtCuPPy5X8dbppVo-44" value="" style="sketch=0;points=[[0,0,0],[0.25,0,0],[0.5,0,0],[0.75,0,0],[1,0,0],[0,1,0],[0.25,1,0],[0.5,1,0],[0.75,1,0],[1,1,0],[0,0.25,0],[0,0.5,0],[0,0.75,0],[1,0.25,0],[1,0.5,0],[1,0.75,0]];outlineConnect=0;fontColor=#232F3E;gradientColor=#FF4F8B;gradientDirection=north;fillColor=#BC1356;strokeColor=#ffffff;dashed=0;verticalLabelPosition=bottom;verticalAlign=top;align=center;fontSize=12;fontStyle=0;aspect=fixed;shape=mxgraph.aws4.resourceIcon;resIcon=mxgraph.aws4.eventbridge;fontFamily=Rubik;" parent="jDzYOtCuPPy5X8dbppVo-41" vertex="1">
          <mxGeometry x="40" width="40" height="40" as="geometry" />
        </mxCell>
        <mxCell id="jDzYOtCuPPy5X8dbppVo-45" value="" style="sketch=0;points=[[0,0,0],[0.25,0,0],[0.5,0,0],[0.75,0,0],[1,0,0],[0,1,0],[0.25,1,0],[0.5,1,0],[0.75,1,0],[1,1,0],[0,0.25,0],[0,0.5,0],[0,0.75,0],[1,0.25,0],[1,0.5,0],[1,0.75,0]];outlineConnect=0;fontColor=#232F3E;gradientColor=#60A337;gradientDirection=north;fillColor=#277116;strokeColor=#ffffff;dashed=0;verticalLabelPosition=bottom;verticalAlign=top;align=center;fontSize=12;fontStyle=0;aspect=fixed;shape=mxgraph.aws4.resourceIcon;resIcon=mxgraph.aws4.s3;fontFamily=Rubik;" parent="jDzYOtCuPPy5X8dbppVo-41" vertex="1">
          <mxGeometry x="40" y="40" width="40" height="40" as="geometry" />
        </mxCell>
        <mxCell id="jDzYOtCuPPy5X8dbppVo-46" value="" style="sketch=0;points=[[0,0,0],[0.25,0,0],[0.5,0,0],[0.75,0,0],[1,0,0],[0,1,0],[0.25,1,0],[0.5,1,0],[0.75,1,0],[1,1,0],[0,0.25,0],[0,0.5,0],[0,0.75,0],[1,0.25,0],[1,0.5,0],[1,0.75,0]];outlineConnect=0;fontColor=#232F3E;gradientColor=#F78E04;gradientDirection=north;fillColor=#D05C17;strokeColor=#ffffff;dashed=0;verticalLabelPosition=bottom;verticalAlign=top;align=center;fontSize=12;fontStyle=0;aspect=fixed;shape=mxgraph.aws4.resourceIcon;resIcon=mxgraph.aws4.fargate;fontFamily=Rubik;" parent="jDzYOtCuPPy5X8dbppVo-41" vertex="1">
          <mxGeometry x="120" width="40" height="40" as="geometry" />
        </mxCell>
        <mxCell id="jDzYOtCuPPy5X8dbppVo-47" value="" style="sketch=0;points=[[0,0,0],[0.25,0,0],[0.5,0,0],[0.75,0,0],[1,0,0],[0,1,0],[0.25,1,0],[0.5,1,0],[0.75,1,0],[1,1,0],[0,0.25,0],[0,0.5,0],[0,0.75,0],[1,0.25,0],[1,0.5,0],[1,0.75,0]];outlineConnect=0;fontColor=#232F3E;gradientColor=#945DF2;gradientDirection=north;fillColor=#5A30B5;strokeColor=#ffffff;dashed=0;verticalLabelPosition=bottom;verticalAlign=top;align=center;fontSize=12;fontStyle=0;aspect=fixed;shape=mxgraph.aws4.resourceIcon;resIcon=mxgraph.aws4.cloudfront;fontFamily=Rubik;" parent="jDzYOtCuPPy5X8dbppVo-41" vertex="1">
          <mxGeometry x="120" y="40" width="40" height="40" as="geometry" />
        </mxCell>
        <mxCell id="jDzYOtCuPPy5X8dbppVo-48" value="" style="sketch=0;points=[[0,0,0],[0.25,0,0],[0.5,0,0],[0.75,0,0],[1,0,0],[0,1,0],[0.25,1,0],[0.5,1,0],[0.75,1,0],[1,1,0],[0,0.25,0],[0,0.5,0],[0,0.75,0],[1,0.25,0],[1,0.5,0],[1,0.75,0]];outlineConnect=0;fontColor=#232F3E;gradientColor=#4D72F3;gradientDirection=north;fillColor=#3334B9;strokeColor=#ffffff;dashed=0;verticalLabelPosition=bottom;verticalAlign=top;align=center;fontSize=12;fontStyle=0;aspect=fixed;shape=mxgraph.aws4.resourceIcon;resIcon=mxgraph.aws4.rds;fontFamily=Rubik;" parent="jDzYOtCuPPy5X8dbppVo-41" vertex="1">
          <mxGeometry x="80" y="40" width="40" height="40" as="geometry" />
        </mxCell>
        <mxCell id="jDzYOtCuPPy5X8dbppVo-49" value="" style="sketch=0;points=[[0,0,0],[0.25,0,0],[0.5,0,0],[0.75,0,0],[1,0,0],[0,1,0],[0.25,1,0],[0.5,1,0],[0.75,1,0],[1,1,0],[0,0.25,0],[0,0.5,0],[0,0.75,0],[1,0.25,0],[1,0.5,0],[1,0.75,0]];outlineConnect=0;fontColor=#232F3E;gradientColor=#4D72F3;gradientDirection=north;fillColor=#3334B9;strokeColor=#ffffff;dashed=0;verticalLabelPosition=bottom;verticalAlign=top;align=center;fontSize=12;fontStyle=0;aspect=fixed;shape=mxgraph.aws4.resourceIcon;resIcon=mxgraph.aws4.dynamodb;fontFamily=Rubik;" parent="jDzYOtCuPPy5X8dbppVo-41" vertex="1">
          <mxGeometry y="40" width="40" height="40" as="geometry" />
        </mxCell>
        <mxCell id="iEEl2lX3LwRMDJczbpHo-18" value="" style="outlineConnect=0;gradientColor=none;fontSize=16;fontStyle=0;strokeColor=#D86613;fillColor=none;verticalAlign=top;align=center;fontColor=#90A6C2;spacingTop=3;fontFamily=Rubik;strokeWidth=2;" parent="jDzYOtCuPPy5X8dbppVo-65" vertex="1">
          <mxGeometry y="160" width="160" height="80" as="geometry" />
        </mxCell>
        <mxCell id="jDzYOtCuPPy5X8dbppVo-66" value="" style="group" parent="iEEl2lX3LwRMDJczbpHo-1" vertex="1" connectable="0">
          <mxGeometry x="1880" y="-240" width="160" height="240" as="geometry" />
        </mxCell>
        <mxCell id="iEEl2lX3LwRMDJczbpHo-129" value="production" style="fontFamily=Rubik;fontSize=22;fontColor=#ffffff;strokeColor=#FF0080;strokeWidth=2;fillColor=#FF0080;spacingTop=8;" parent="jDzYOtCuPPy5X8dbppVo-66" vertex="1">
          <mxGeometry width="160" height="40" as="geometry" />
        </mxCell>
        <mxCell id="iEEl2lX3LwRMDJczbpHo-130" value="stable release" style="fontFamily=Rubik;fontSize=16;fontColor=#F8E7F5;strokeColor=#FF0080;strokeWidth=2;fillColor=#6B0036;spacingBottom=1;fontStyle=2" parent="jDzYOtCuPPy5X8dbppVo-66" vertex="1">
          <mxGeometry y="120" width="160" height="40" as="geometry" />
        </mxCell>
        <mxCell id="jDzYOtCuPPy5X8dbppVo-6" value="environment" style="fontFamily=Rubik;fontSize=16;fontColor=#ffffff;strokeColor=#FF0080;strokeWidth=2;fillColor=#FF0080;spacingBottom=16;textOpacity=50;" parent="jDzYOtCuPPy5X8dbppVo-66" vertex="1">
          <mxGeometry y="40" width="160" height="40" as="geometry" />
        </mxCell>
        <mxCell id="jDzYOtCuPPy5X8dbppVo-11" value="REQUIRED" style="fontFamily=Rubik;fontSize=16;fontColor=#F8E7F5;strokeColor=#FF0080;strokeWidth=2;fillColor=#6B0036;spacingBottom=1;fontStyle=3" parent="jDzYOtCuPPy5X8dbppVo-66" vertex="1">
          <mxGeometry y="80" width="160" height="40" as="geometry" />
        </mxCell>
        <mxCell id="jDzYOtCuPPy5X8dbppVo-50" value="" style="group" parent="jDzYOtCuPPy5X8dbppVo-66" vertex="1" connectable="0">
          <mxGeometry y="160" width="160" height="80" as="geometry" />
        </mxCell>
        <mxCell id="jDzYOtCuPPy5X8dbppVo-51" value="" style="sketch=0;points=[[0,0,0],[0.25,0,0],[0.5,0,0],[0.75,0,0],[1,0,0],[0,1,0],[0.25,1,0],[0.5,1,0],[0.75,1,0],[1,1,0],[0,0.25,0],[0,0.5,0],[0,0.75,0],[1,0.25,0],[1,0.5,0],[1,0.75,0]];outlineConnect=0;fontColor=#232F3E;gradientColor=#F78E04;gradientDirection=north;fillColor=#D05C17;strokeColor=#ffffff;dashed=0;verticalLabelPosition=bottom;verticalAlign=top;align=center;fontSize=12;fontStyle=0;aspect=fixed;shape=mxgraph.aws4.resourceIcon;resIcon=mxgraph.aws4.lambda;fontFamily=Rubik;" parent="jDzYOtCuPPy5X8dbppVo-50" vertex="1">
          <mxGeometry width="40" height="40" as="geometry" />
        </mxCell>
        <mxCell id="jDzYOtCuPPy5X8dbppVo-52" value="" style="sketch=0;points=[[0,0,0],[0.25,0,0],[0.5,0,0],[0.75,0,0],[1,0,0],[0,1,0],[0.25,1,0],[0.5,1,0],[0.75,1,0],[1,1,0],[0,0.25,0],[0,0.5,0],[0,0.75,0],[1,0.25,0],[1,0.5,0],[1,0.75,0]];outlineConnect=0;fontColor=#232F3E;gradientColor=#945DF2;gradientDirection=north;fillColor=#5A30B5;strokeColor=#ffffff;dashed=0;verticalLabelPosition=bottom;verticalAlign=top;align=center;fontSize=12;fontStyle=0;aspect=fixed;shape=mxgraph.aws4.resourceIcon;resIcon=mxgraph.aws4.api_gateway;fontFamily=Rubik;" parent="jDzYOtCuPPy5X8dbppVo-50" vertex="1">
          <mxGeometry x="80" width="40" height="40" as="geometry" />
        </mxCell>
        <mxCell id="jDzYOtCuPPy5X8dbppVo-53" value="" style="sketch=0;points=[[0,0,0],[0.25,0,0],[0.5,0,0],[0.75,0,0],[1,0,0],[0,1,0],[0.25,1,0],[0.5,1,0],[0.75,1,0],[1,1,0],[0,0.25,0],[0,0.5,0],[0,0.75,0],[1,0.25,0],[1,0.5,0],[1,0.75,0]];outlineConnect=0;fontColor=#232F3E;gradientColor=#FF4F8B;gradientDirection=north;fillColor=#BC1356;strokeColor=#ffffff;dashed=0;verticalLabelPosition=bottom;verticalAlign=top;align=center;fontSize=12;fontStyle=0;aspect=fixed;shape=mxgraph.aws4.resourceIcon;resIcon=mxgraph.aws4.eventbridge;fontFamily=Rubik;" parent="jDzYOtCuPPy5X8dbppVo-50" vertex="1">
          <mxGeometry x="40" width="40" height="40" as="geometry" />
        </mxCell>
        <mxCell id="jDzYOtCuPPy5X8dbppVo-54" value="" style="sketch=0;points=[[0,0,0],[0.25,0,0],[0.5,0,0],[0.75,0,0],[1,0,0],[0,1,0],[0.25,1,0],[0.5,1,0],[0.75,1,0],[1,1,0],[0,0.25,0],[0,0.5,0],[0,0.75,0],[1,0.25,0],[1,0.5,0],[1,0.75,0]];outlineConnect=0;fontColor=#232F3E;gradientColor=#60A337;gradientDirection=north;fillColor=#277116;strokeColor=#ffffff;dashed=0;verticalLabelPosition=bottom;verticalAlign=top;align=center;fontSize=12;fontStyle=0;aspect=fixed;shape=mxgraph.aws4.resourceIcon;resIcon=mxgraph.aws4.s3;fontFamily=Rubik;" parent="jDzYOtCuPPy5X8dbppVo-50" vertex="1">
          <mxGeometry x="40" y="40" width="40" height="40" as="geometry" />
        </mxCell>
        <mxCell id="jDzYOtCuPPy5X8dbppVo-55" value="" style="sketch=0;points=[[0,0,0],[0.25,0,0],[0.5,0,0],[0.75,0,0],[1,0,0],[0,1,0],[0.25,1,0],[0.5,1,0],[0.75,1,0],[1,1,0],[0,0.25,0],[0,0.5,0],[0,0.75,0],[1,0.25,0],[1,0.5,0],[1,0.75,0]];outlineConnect=0;fontColor=#232F3E;gradientColor=#F78E04;gradientDirection=north;fillColor=#D05C17;strokeColor=#ffffff;dashed=0;verticalLabelPosition=bottom;verticalAlign=top;align=center;fontSize=12;fontStyle=0;aspect=fixed;shape=mxgraph.aws4.resourceIcon;resIcon=mxgraph.aws4.fargate;fontFamily=Rubik;" parent="jDzYOtCuPPy5X8dbppVo-50" vertex="1">
          <mxGeometry x="120" width="40" height="40" as="geometry" />
        </mxCell>
        <mxCell id="jDzYOtCuPPy5X8dbppVo-56" value="" style="sketch=0;points=[[0,0,0],[0.25,0,0],[0.5,0,0],[0.75,0,0],[1,0,0],[0,1,0],[0.25,1,0],[0.5,1,0],[0.75,1,0],[1,1,0],[0,0.25,0],[0,0.5,0],[0,0.75,0],[1,0.25,0],[1,0.5,0],[1,0.75,0]];outlineConnect=0;fontColor=#232F3E;gradientColor=#945DF2;gradientDirection=north;fillColor=#5A30B5;strokeColor=#ffffff;dashed=0;verticalLabelPosition=bottom;verticalAlign=top;align=center;fontSize=12;fontStyle=0;aspect=fixed;shape=mxgraph.aws4.resourceIcon;resIcon=mxgraph.aws4.cloudfront;fontFamily=Rubik;" parent="jDzYOtCuPPy5X8dbppVo-50" vertex="1">
          <mxGeometry x="120" y="40" width="40" height="40" as="geometry" />
        </mxCell>
        <mxCell id="jDzYOtCuPPy5X8dbppVo-57" value="" style="sketch=0;points=[[0,0,0],[0.25,0,0],[0.5,0,0],[0.75,0,0],[1,0,0],[0,1,0],[0.25,1,0],[0.5,1,0],[0.75,1,0],[1,1,0],[0,0.25,0],[0,0.5,0],[0,0.75,0],[1,0.25,0],[1,0.5,0],[1,0.75,0]];outlineConnect=0;fontColor=#232F3E;gradientColor=#4D72F3;gradientDirection=north;fillColor=#3334B9;strokeColor=#ffffff;dashed=0;verticalLabelPosition=bottom;verticalAlign=top;align=center;fontSize=12;fontStyle=0;aspect=fixed;shape=mxgraph.aws4.resourceIcon;resIcon=mxgraph.aws4.rds;fontFamily=Rubik;" parent="jDzYOtCuPPy5X8dbppVo-50" vertex="1">
          <mxGeometry x="80" y="40" width="40" height="40" as="geometry" />
        </mxCell>
        <mxCell id="jDzYOtCuPPy5X8dbppVo-58" value="" style="sketch=0;points=[[0,0,0],[0.25,0,0],[0.5,0,0],[0.75,0,0],[1,0,0],[0,1,0],[0.25,1,0],[0.5,1,0],[0.75,1,0],[1,1,0],[0,0.25,0],[0,0.5,0],[0,0.75,0],[1,0.25,0],[1,0.5,0],[1,0.75,0]];outlineConnect=0;fontColor=#232F3E;gradientColor=#4D72F3;gradientDirection=north;fillColor=#3334B9;strokeColor=#ffffff;dashed=0;verticalLabelPosition=bottom;verticalAlign=top;align=center;fontSize=12;fontStyle=0;aspect=fixed;shape=mxgraph.aws4.resourceIcon;resIcon=mxgraph.aws4.dynamodb;fontFamily=Rubik;" parent="jDzYOtCuPPy5X8dbppVo-50" vertex="1">
          <mxGeometry y="40" width="40" height="40" as="geometry" />
        </mxCell>
        <mxCell id="iEEl2lX3LwRMDJczbpHo-142" value="" style="outlineConnect=0;gradientColor=none;fontSize=16;fontStyle=0;strokeColor=#FF0080;fillColor=none;verticalAlign=top;align=center;fontColor=#90A6C2;spacingTop=3;fontFamily=Rubik;strokeWidth=2;" parent="jDzYOtCuPPy5X8dbppVo-66" vertex="1">
          <mxGeometry y="160" width="160" height="80" as="geometry" />
        </mxCell>
        <mxCell id="jDzYOtCuPPy5X8dbppVo-67" value="" style="endArrow=none;dashed=1;strokeWidth=2;rounded=0;fontFamily=Rubik;fontSize=14;fontColor=#FFFFFF;strokeColor=#5C5C5C;" parent="iEEl2lX3LwRMDJczbpHo-1" edge="1">
          <mxGeometry width="50" height="50" relative="1" as="geometry">
            <mxPoint x="1880" y="20" as="sourcePoint" />
            <mxPoint x="2040" y="20" as="targetPoint" />
          </mxGeometry>
        </mxCell>
        <mxCell id="uCKOhsi1hvzL-vFIMH2B-0" value="" style="endArrow=classic;rounded=0;fontFamily=Rubik;fontSize=14;fontColor=#FFFFFF;strokeColor=#E5CCFF;startArrow=baseDash;startFill=0;" parent="iEEl2lX3LwRMDJczbpHo-1" edge="1">
          <mxGeometry width="50" height="50" relative="1" as="geometry">
            <mxPoint x="1080" y="260" as="sourcePoint" />
            <mxPoint x="2040" y="260" as="targetPoint" />
          </mxGeometry>
        </mxCell>
        <mxCell id="uCKOhsi1hvzL-vFIMH2B-1" value="Environment Deployment Pipeline Order" style="text;align=left;verticalAlign=middle;resizable=0;points=[];autosize=1;strokeColor=none;fillColor=none;fontSize=16;fontFamily=Rubik;fontColor=#E5CCFF;fontStyle=2" parent="iEEl2lX3LwRMDJczbpHo-1" vertex="1">
          <mxGeometry x="1080" y="278" width="310" height="25" as="geometry" />
        </mxCell>
        <mxCell id="uCKOhsi1hvzL-vFIMH2B-2" value="" style="endArrow=none;rounded=0;fontFamily=Rubik;fontSize=14;fontColor=#E5CCFF;strokeColor=#90A6C2;" parent="iEEl2lX3LwRMDJczbpHo-1" edge="1">
          <mxGeometry width="50" height="50" relative="1" as="geometry">
            <mxPoint x="880" y="-340" as="sourcePoint" />
            <mxPoint x="2060" y="-340" as="targetPoint" />
          </mxGeometry>
        </mxCell>
        <mxCell id="uCKOhsi1hvzL-vFIMH2B-5" value="3x Accounts" style="text;align=left;verticalAlign=middle;resizable=0;points=[];autosize=1;strokeColor=none;fillColor=none;fontSize=23;fontFamily=Rubik;fontColor=#90A6C2;" parent="iEEl2lX3LwRMDJczbpHo-1" vertex="1">
          <mxGeometry x="880" y="-380" width="150" height="30" as="geometry" />
        </mxCell>
        <mxCell id="m0aHIGWKdUDE8WCqkjZz-0" value="" style="group" parent="iEEl2lX3LwRMDJczbpHo-1" vertex="1" connectable="0">
          <mxGeometry x="900" y="-240" width="160" height="240" as="geometry" />
        </mxCell>
        <mxCell id="jDzYOtCuPPy5X8dbppVo-12" value="" style="group" parent="m0aHIGWKdUDE8WCqkjZz-0" vertex="1" connectable="0">
          <mxGeometry y="160" width="160" height="80" as="geometry" />
        </mxCell>
        <mxCell id="iEEl2lX3LwRMDJczbpHo-68" value="" style="sketch=0;points=[[0,0,0],[0.25,0,0],[0.5,0,0],[0.75,0,0],[1,0,0],[0,1,0],[0.25,1,0],[0.5,1,0],[0.75,1,0],[1,1,0],[0,0.25,0],[0,0.5,0],[0,0.75,0],[1,0.25,0],[1,0.5,0],[1,0.75,0]];outlineConnect=0;fontColor=#232F3E;gradientColor=#F78E04;gradientDirection=north;fillColor=#D05C17;strokeColor=#ffffff;dashed=0;verticalLabelPosition=bottom;verticalAlign=top;align=center;fontSize=12;fontStyle=0;aspect=fixed;shape=mxgraph.aws4.resourceIcon;resIcon=mxgraph.aws4.lambda;fontFamily=Rubik;" parent="jDzYOtCuPPy5X8dbppVo-12" vertex="1">
          <mxGeometry width="40" height="40" as="geometry" />
        </mxCell>
        <mxCell id="iEEl2lX3LwRMDJczbpHo-69" value="" style="sketch=0;points=[[0,0,0],[0.25,0,0],[0.5,0,0],[0.75,0,0],[1,0,0],[0,1,0],[0.25,1,0],[0.5,1,0],[0.75,1,0],[1,1,0],[0,0.25,0],[0,0.5,0],[0,0.75,0],[1,0.25,0],[1,0.5,0],[1,0.75,0]];outlineConnect=0;fontColor=#232F3E;gradientColor=#945DF2;gradientDirection=north;fillColor=#5A30B5;strokeColor=#ffffff;dashed=0;verticalLabelPosition=bottom;verticalAlign=top;align=center;fontSize=12;fontStyle=0;aspect=fixed;shape=mxgraph.aws4.resourceIcon;resIcon=mxgraph.aws4.api_gateway;fontFamily=Rubik;" parent="jDzYOtCuPPy5X8dbppVo-12" vertex="1">
          <mxGeometry x="80" width="40" height="40" as="geometry" />
        </mxCell>
        <mxCell id="iEEl2lX3LwRMDJczbpHo-70" value="" style="sketch=0;points=[[0,0,0],[0.25,0,0],[0.5,0,0],[0.75,0,0],[1,0,0],[0,1,0],[0.25,1,0],[0.5,1,0],[0.75,1,0],[1,1,0],[0,0.25,0],[0,0.5,0],[0,0.75,0],[1,0.25,0],[1,0.5,0],[1,0.75,0]];outlineConnect=0;fontColor=#232F3E;gradientColor=#FF4F8B;gradientDirection=north;fillColor=#BC1356;strokeColor=#ffffff;dashed=0;verticalLabelPosition=bottom;verticalAlign=top;align=center;fontSize=12;fontStyle=0;aspect=fixed;shape=mxgraph.aws4.resourceIcon;resIcon=mxgraph.aws4.eventbridge;fontFamily=Rubik;" parent="jDzYOtCuPPy5X8dbppVo-12" vertex="1">
          <mxGeometry x="40" width="40" height="40" as="geometry" />
        </mxCell>
        <mxCell id="iEEl2lX3LwRMDJczbpHo-71" value="" style="sketch=0;points=[[0,0,0],[0.25,0,0],[0.5,0,0],[0.75,0,0],[1,0,0],[0,1,0],[0.25,1,0],[0.5,1,0],[0.75,1,0],[1,1,0],[0,0.25,0],[0,0.5,0],[0,0.75,0],[1,0.25,0],[1,0.5,0],[1,0.75,0]];outlineConnect=0;fontColor=#232F3E;gradientColor=#60A337;gradientDirection=north;fillColor=#277116;strokeColor=#ffffff;dashed=0;verticalLabelPosition=bottom;verticalAlign=top;align=center;fontSize=12;fontStyle=0;aspect=fixed;shape=mxgraph.aws4.resourceIcon;resIcon=mxgraph.aws4.s3;fontFamily=Rubik;" parent="jDzYOtCuPPy5X8dbppVo-12" vertex="1">
          <mxGeometry x="40" y="40" width="40" height="40" as="geometry" />
        </mxCell>
        <mxCell id="iEEl2lX3LwRMDJczbpHo-72" value="" style="sketch=0;points=[[0,0,0],[0.25,0,0],[0.5,0,0],[0.75,0,0],[1,0,0],[0,1,0],[0.25,1,0],[0.5,1,0],[0.75,1,0],[1,1,0],[0,0.25,0],[0,0.5,0],[0,0.75,0],[1,0.25,0],[1,0.5,0],[1,0.75,0]];outlineConnect=0;fontColor=#232F3E;gradientColor=#F78E04;gradientDirection=north;fillColor=#D05C17;strokeColor=#ffffff;dashed=0;verticalLabelPosition=bottom;verticalAlign=top;align=center;fontSize=12;fontStyle=0;aspect=fixed;shape=mxgraph.aws4.resourceIcon;resIcon=mxgraph.aws4.fargate;fontFamily=Rubik;" parent="jDzYOtCuPPy5X8dbppVo-12" vertex="1">
          <mxGeometry x="120" width="40" height="40" as="geometry" />
        </mxCell>
        <mxCell id="iEEl2lX3LwRMDJczbpHo-73" value="" style="sketch=0;points=[[0,0,0],[0.25,0,0],[0.5,0,0],[0.75,0,0],[1,0,0],[0,1,0],[0.25,1,0],[0.5,1,0],[0.75,1,0],[1,1,0],[0,0.25,0],[0,0.5,0],[0,0.75,0],[1,0.25,0],[1,0.5,0],[1,0.75,0]];outlineConnect=0;fontColor=#232F3E;gradientColor=#945DF2;gradientDirection=north;fillColor=#5A30B5;strokeColor=#ffffff;dashed=0;verticalLabelPosition=bottom;verticalAlign=top;align=center;fontSize=12;fontStyle=0;aspect=fixed;shape=mxgraph.aws4.resourceIcon;resIcon=mxgraph.aws4.cloudfront;fontFamily=Rubik;" parent="jDzYOtCuPPy5X8dbppVo-12" vertex="1">
          <mxGeometry x="120" y="40" width="40" height="40" as="geometry" />
        </mxCell>
        <mxCell id="iEEl2lX3LwRMDJczbpHo-74" value="" style="sketch=0;points=[[0,0,0],[0.25,0,0],[0.5,0,0],[0.75,0,0],[1,0,0],[0,1,0],[0.25,1,0],[0.5,1,0],[0.75,1,0],[1,1,0],[0,0.25,0],[0,0.5,0],[0,0.75,0],[1,0.25,0],[1,0.5,0],[1,0.75,0]];outlineConnect=0;fontColor=#232F3E;gradientColor=#4D72F3;gradientDirection=north;fillColor=#3334B9;strokeColor=#ffffff;dashed=0;verticalLabelPosition=bottom;verticalAlign=top;align=center;fontSize=12;fontStyle=0;aspect=fixed;shape=mxgraph.aws4.resourceIcon;resIcon=mxgraph.aws4.rds;fontFamily=Rubik;" parent="jDzYOtCuPPy5X8dbppVo-12" vertex="1">
          <mxGeometry x="80" y="40" width="40" height="40" as="geometry" />
        </mxCell>
        <mxCell id="iEEl2lX3LwRMDJczbpHo-75" value="" style="sketch=0;points=[[0,0,0],[0.25,0,0],[0.5,0,0],[0.75,0,0],[1,0,0],[0,1,0],[0.25,1,0],[0.5,1,0],[0.75,1,0],[1,1,0],[0,0.25,0],[0,0.5,0],[0,0.75,0],[1,0.25,0],[1,0.5,0],[1,0.75,0]];outlineConnect=0;fontColor=#232F3E;gradientColor=#4D72F3;gradientDirection=north;fillColor=#3334B9;strokeColor=#ffffff;dashed=0;verticalLabelPosition=bottom;verticalAlign=top;align=center;fontSize=12;fontStyle=0;aspect=fixed;shape=mxgraph.aws4.resourceIcon;resIcon=mxgraph.aws4.dynamodb;fontFamily=Rubik;" parent="jDzYOtCuPPy5X8dbppVo-12" vertex="1">
          <mxGeometry y="40" width="40" height="40" as="geometry" />
        </mxCell>
        <mxCell id="iEEl2lX3LwRMDJczbpHo-78" value="" style="outlineConnect=0;gradientColor=none;fontSize=16;fontStyle=0;strokeColor=#90A6C2;fillColor=none;verticalAlign=top;align=center;fontColor=#90A6C2;spacingTop=3;fontFamily=Rubik;strokeWidth=2;" parent="m0aHIGWKdUDE8WCqkjZz-0" vertex="1">
          <mxGeometry y="160" width="160" height="80" as="geometry" />
        </mxCell>
        <mxCell id="iEEl2lX3LwRMDJczbpHo-65" value="development" style="fontFamily=Rubik;fontSize=22;fontColor=#ffffff;strokeColor=#90A6C2;strokeWidth=2;fillColor=#90A6C2;spacingTop=8;spacing=3;" parent="m0aHIGWKdUDE8WCqkjZz-0" vertex="1">
          <mxGeometry width="160" height="40" as="geometry" />
        </mxCell>
        <mxCell id="iEEl2lX3LwRMDJczbpHo-66" value="OPTIONAL" style="fontFamily=Rubik;fontSize=16;fontColor=#FFFFFF;strokeColor=#90A6C2;strokeWidth=2;fillColor=#39414D;spacingBottom=1;fontStyle=2;textOpacity=50;" parent="m0aHIGWKdUDE8WCqkjZz-0" vertex="1">
          <mxGeometry y="80" width="160" height="40" as="geometry" />
        </mxCell>
        <mxCell id="jDzYOtCuPPy5X8dbppVo-0" value="long-lived" style="fontFamily=Rubik;fontSize=16;fontColor=#FFFFFF;strokeColor=#90A6C2;strokeWidth=2;fillColor=#39414D;spacingBottom=1;fontStyle=2" parent="m0aHIGWKdUDE8WCqkjZz-0" vertex="1">
          <mxGeometry y="120" width="160" height="40" as="geometry" />
        </mxCell>
        <mxCell id="jDzYOtCuPPy5X8dbppVo-1" value="environment" style="fontFamily=Rubik;fontSize=16;fontColor=#ffffff;strokeColor=#90A6C2;strokeWidth=2;fillColor=#90A6C2;textOpacity=50;labelPosition=center;verticalLabelPosition=middle;align=center;verticalAlign=middle;spacingBottom=16;" parent="m0aHIGWKdUDE8WCqkjZz-0" vertex="1">
          <mxGeometry y="40" width="160" height="40" as="geometry" />
        </mxCell>
        <mxCell id="VLgdbDGSNy6urQGDQPwP-0" value="" style="group" vertex="1" connectable="0" parent="iEEl2lX3LwRMDJczbpHo-1">
          <mxGeometry x="1170" y="40" width="160" height="160" as="geometry" />
        </mxCell>
        <mxCell id="VLgdbDGSNy6urQGDQPwP-1" value="Account Resources" style="fontFamily=Rubik;fontSize=16;fontColor=#ffffff;strokeColor=#5C5C5C;strokeWidth=2;fillColor=#5C5C5C;" vertex="1" parent="VLgdbDGSNy6urQGDQPwP-0">
          <mxGeometry width="160" height="40" as="geometry" />
        </mxCell>
        <mxCell id="VLgdbDGSNy6urQGDQPwP-2" value="shared between envs" style="fontFamily=Rubik;fontSize=14;fontColor=#F8E7F5;strokeColor=#5C5C5C;strokeWidth=2;fillColor=#333333;spacingBottom=1;fontStyle=2" vertex="1" parent="VLgdbDGSNy6urQGDQPwP-0">
          <mxGeometry y="80" width="160" height="40" as="geometry" />
        </mxCell>
        <mxCell id="VLgdbDGSNy6urQGDQPwP-3" value="" style="sketch=0;points=[[0,0,0],[0.25,0,0],[0.5,0,0],[0.75,0,0],[1,0,0],[0,1,0],[0.25,1,0],[0.5,1,0],[0.75,1,0],[1,1,0],[0,0.25,0],[0,0.5,0],[0,0.75,0],[1,0.25,0],[1,0.5,0],[1,0.75,0]];outlineConnect=0;fontColor=#232F3E;gradientColor=#945DF2;gradientDirection=north;fillColor=#5A30B5;strokeColor=#ffffff;dashed=0;verticalLabelPosition=bottom;verticalAlign=top;align=center;fontSize=12;fontStyle=0;aspect=fixed;shape=mxgraph.aws4.resourceIcon;resIcon=mxgraph.aws4.vpc;" vertex="1" parent="VLgdbDGSNy6urQGDQPwP-0">
          <mxGeometry y="120" width="40" height="40" as="geometry" />
        </mxCell>
        <mxCell id="VLgdbDGSNy6urQGDQPwP-4" value="" style="sketch=0;points=[[0,0,0],[0.25,0,0],[0.5,0,0],[0.75,0,0],[1,0,0],[0,1,0],[0.25,1,0],[0.5,1,0],[0.75,1,0],[1,1,0],[0,0.25,0],[0,0.5,0],[0,0.75,0],[1,0.25,0],[1,0.5,0],[1,0.75,0]];outlineConnect=0;fontColor=#232F3E;gradientColor=#945DF2;gradientDirection=north;fillColor=#5A30B5;strokeColor=#ffffff;dashed=0;verticalLabelPosition=bottom;verticalAlign=top;align=center;fontSize=12;fontStyle=0;aspect=fixed;shape=mxgraph.aws4.resourceIcon;resIcon=mxgraph.aws4.direct_connect;" vertex="1" parent="VLgdbDGSNy6urQGDQPwP-0">
          <mxGeometry x="80" y="120" width="40" height="40" as="geometry" />
        </mxCell>
        <mxCell id="VLgdbDGSNy6urQGDQPwP-5" value="" style="sketch=0;points=[[0,0,0],[0.25,0,0],[0.5,0,0],[0.75,0,0],[1,0,0],[0,1,0],[0.25,1,0],[0.5,1,0],[0.75,1,0],[1,1,0],[0,0.25,0],[0,0.5,0],[0,0.75,0],[1,0.25,0],[1,0.5,0],[1,0.75,0]];outlineConnect=0;fontColor=#232F3E;gradientColor=#945DF2;gradientDirection=north;fillColor=#5A30B5;strokeColor=#ffffff;dashed=0;verticalLabelPosition=bottom;verticalAlign=top;align=center;fontSize=12;fontStyle=0;aspect=fixed;shape=mxgraph.aws4.resourceIcon;resIcon=mxgraph.aws4.route_53;" vertex="1" parent="VLgdbDGSNy6urQGDQPwP-0">
          <mxGeometry x="40" y="120" width="40" height="40" as="geometry" />
        </mxCell>
        <mxCell id="VLgdbDGSNy6urQGDQPwP-6" value="" style="sketch=0;points=[[0,0,0],[0.25,0,0],[0.5,0,0],[0.75,0,0],[1,0,0],[0,1,0],[0.25,1,0],[0.5,1,0],[0.75,1,0],[1,1,0],[0,0.25,0],[0,0.5,0],[0,0.75,0],[1,0.25,0],[1,0.5,0],[1,0.75,0]];points=[[0,0,0],[0.25,0,0],[0.5,0,0],[0.75,0,0],[1,0,0],[0,1,0],[0.25,1,0],[0.5,1,0],[0.75,1,0],[1,1,0],[0,0.25,0],[0,0.5,0],[0,0.75,0],[1,0.25,0],[1,0.5,0],[1,0.75,0]];outlineConnect=0;fontColor=#232F3E;gradientColor=#F34482;gradientDirection=north;fillColor=#BC1356;strokeColor=#ffffff;dashed=0;verticalLabelPosition=bottom;verticalAlign=top;align=center;fontSize=12;fontStyle=0;aspect=fixed;shape=mxgraph.aws4.resourceIcon;resIcon=mxgraph.aws4.chatbot;fontFamily=Rubik;" vertex="1" parent="VLgdbDGSNy6urQGDQPwP-0">
          <mxGeometry x="120" y="120" width="40" height="40" as="geometry" />
        </mxCell>
        <mxCell id="VLgdbDGSNy6urQGDQPwP-7" value="" style="outlineConnect=0;gradientColor=none;fontSize=16;fontStyle=0;strokeColor=#5C5C5C;fillColor=none;verticalAlign=top;align=center;fontColor=#90A6C2;spacingTop=3;fontFamily=Rubik;strokeWidth=2;" vertex="1" parent="VLgdbDGSNy6urQGDQPwP-0">
          <mxGeometry y="120" width="160" height="40" as="geometry" />
        </mxCell>
        <mxCell id="VLgdbDGSNy6urQGDQPwP-8" value="own deploy lifecycle" style="fontFamily=Rubik;fontSize=14;fontColor=#F8E7F5;strokeColor=#5C5C5C;strokeWidth=2;fillColor=#333333;spacingBottom=1;fontStyle=2" vertex="1" parent="VLgdbDGSNy6urQGDQPwP-0">
          <mxGeometry y="40" width="160" height="40" as="geometry" />
        </mxCell>
        <mxCell id="VLgdbDGSNy6urQGDQPwP-9" value="" style="group" vertex="1" connectable="0" parent="iEEl2lX3LwRMDJczbpHo-1">
          <mxGeometry x="1660" y="40" width="160" height="160" as="geometry" />
        </mxCell>
        <mxCell id="VLgdbDGSNy6urQGDQPwP-10" value="Account Resources" style="fontFamily=Rubik;fontSize=16;fontColor=#ffffff;strokeColor=#5C5C5C;strokeWidth=2;fillColor=#5C5C5C;" vertex="1" parent="VLgdbDGSNy6urQGDQPwP-9">
          <mxGeometry width="160" height="40" as="geometry" />
        </mxCell>
        <mxCell id="VLgdbDGSNy6urQGDQPwP-11" value="shared between envs" style="fontFamily=Rubik;fontSize=14;fontColor=#F8E7F5;strokeColor=#5C5C5C;strokeWidth=2;fillColor=#333333;spacingBottom=1;fontStyle=2" vertex="1" parent="VLgdbDGSNy6urQGDQPwP-9">
          <mxGeometry y="80" width="160" height="40" as="geometry" />
        </mxCell>
        <mxCell id="VLgdbDGSNy6urQGDQPwP-12" value="" style="sketch=0;points=[[0,0,0],[0.25,0,0],[0.5,0,0],[0.75,0,0],[1,0,0],[0,1,0],[0.25,1,0],[0.5,1,0],[0.75,1,0],[1,1,0],[0,0.25,0],[0,0.5,0],[0,0.75,0],[1,0.25,0],[1,0.5,0],[1,0.75,0]];outlineConnect=0;fontColor=#232F3E;gradientColor=#945DF2;gradientDirection=north;fillColor=#5A30B5;strokeColor=#ffffff;dashed=0;verticalLabelPosition=bottom;verticalAlign=top;align=center;fontSize=12;fontStyle=0;aspect=fixed;shape=mxgraph.aws4.resourceIcon;resIcon=mxgraph.aws4.vpc;" vertex="1" parent="VLgdbDGSNy6urQGDQPwP-9">
          <mxGeometry y="120" width="40" height="40" as="geometry" />
        </mxCell>
        <mxCell id="VLgdbDGSNy6urQGDQPwP-13" value="" style="sketch=0;points=[[0,0,0],[0.25,0,0],[0.5,0,0],[0.75,0,0],[1,0,0],[0,1,0],[0.25,1,0],[0.5,1,0],[0.75,1,0],[1,1,0],[0,0.25,0],[0,0.5,0],[0,0.75,0],[1,0.25,0],[1,0.5,0],[1,0.75,0]];outlineConnect=0;fontColor=#232F3E;gradientColor=#945DF2;gradientDirection=north;fillColor=#5A30B5;strokeColor=#ffffff;dashed=0;verticalLabelPosition=bottom;verticalAlign=top;align=center;fontSize=12;fontStyle=0;aspect=fixed;shape=mxgraph.aws4.resourceIcon;resIcon=mxgraph.aws4.direct_connect;" vertex="1" parent="VLgdbDGSNy6urQGDQPwP-9">
          <mxGeometry x="80" y="120" width="40" height="40" as="geometry" />
        </mxCell>
        <mxCell id="VLgdbDGSNy6urQGDQPwP-14" value="" style="sketch=0;points=[[0,0,0],[0.25,0,0],[0.5,0,0],[0.75,0,0],[1,0,0],[0,1,0],[0.25,1,0],[0.5,1,0],[0.75,1,0],[1,1,0],[0,0.25,0],[0,0.5,0],[0,0.75,0],[1,0.25,0],[1,0.5,0],[1,0.75,0]];outlineConnect=0;fontColor=#232F3E;gradientColor=#945DF2;gradientDirection=north;fillColor=#5A30B5;strokeColor=#ffffff;dashed=0;verticalLabelPosition=bottom;verticalAlign=top;align=center;fontSize=12;fontStyle=0;aspect=fixed;shape=mxgraph.aws4.resourceIcon;resIcon=mxgraph.aws4.route_53;" vertex="1" parent="VLgdbDGSNy6urQGDQPwP-9">
          <mxGeometry x="40" y="120" width="40" height="40" as="geometry" />
        </mxCell>
        <mxCell id="VLgdbDGSNy6urQGDQPwP-15" value="" style="sketch=0;points=[[0,0,0],[0.25,0,0],[0.5,0,0],[0.75,0,0],[1,0,0],[0,1,0],[0.25,1,0],[0.5,1,0],[0.75,1,0],[1,1,0],[0,0.25,0],[0,0.5,0],[0,0.75,0],[1,0.25,0],[1,0.5,0],[1,0.75,0]];points=[[0,0,0],[0.25,0,0],[0.5,0,0],[0.75,0,0],[1,0,0],[0,1,0],[0.25,1,0],[0.5,1,0],[0.75,1,0],[1,1,0],[0,0.25,0],[0,0.5,0],[0,0.75,0],[1,0.25,0],[1,0.5,0],[1,0.75,0]];outlineConnect=0;fontColor=#232F3E;gradientColor=#F34482;gradientDirection=north;fillColor=#BC1356;strokeColor=#ffffff;dashed=0;verticalLabelPosition=bottom;verticalAlign=top;align=center;fontSize=12;fontStyle=0;aspect=fixed;shape=mxgraph.aws4.resourceIcon;resIcon=mxgraph.aws4.chatbot;fontFamily=Rubik;" vertex="1" parent="VLgdbDGSNy6urQGDQPwP-9">
          <mxGeometry x="120" y="120" width="40" height="40" as="geometry" />
        </mxCell>
        <mxCell id="VLgdbDGSNy6urQGDQPwP-16" value="" style="outlineConnect=0;gradientColor=none;fontSize=16;fontStyle=0;strokeColor=#5C5C5C;fillColor=none;verticalAlign=top;align=center;fontColor=#90A6C2;spacingTop=3;fontFamily=Rubik;strokeWidth=2;" vertex="1" parent="VLgdbDGSNy6urQGDQPwP-9">
          <mxGeometry y="120" width="160" height="40" as="geometry" />
        </mxCell>
        <mxCell id="VLgdbDGSNy6urQGDQPwP-17" value="own deploy lifecycle" style="fontFamily=Rubik;fontSize=14;fontColor=#F8E7F5;strokeColor=#5C5C5C;strokeWidth=2;fillColor=#333333;spacingBottom=1;fontStyle=2" vertex="1" parent="VLgdbDGSNy6urQGDQPwP-9">
          <mxGeometry y="40" width="160" height="40" as="geometry" />
        </mxCell>
        <mxCell id="VLgdbDGSNy6urQGDQPwP-18" value="" style="group" vertex="1" connectable="0" parent="iEEl2lX3LwRMDJczbpHo-1">
          <mxGeometry x="1880" y="40" width="160" height="160" as="geometry" />
        </mxCell>
        <mxCell id="VLgdbDGSNy6urQGDQPwP-19" value="Account Resources" style="fontFamily=Rubik;fontSize=16;fontColor=#ffffff;strokeColor=#5C5C5C;strokeWidth=2;fillColor=#5C5C5C;" vertex="1" parent="VLgdbDGSNy6urQGDQPwP-18">
          <mxGeometry width="160" height="40" as="geometry" />
        </mxCell>
        <mxCell id="VLgdbDGSNy6urQGDQPwP-20" value="shared between envs" style="fontFamily=Rubik;fontSize=14;fontColor=#F8E7F5;strokeColor=#5C5C5C;strokeWidth=2;fillColor=#333333;spacingBottom=1;fontStyle=2" vertex="1" parent="VLgdbDGSNy6urQGDQPwP-18">
          <mxGeometry y="80" width="160" height="40" as="geometry" />
        </mxCell>
        <mxCell id="VLgdbDGSNy6urQGDQPwP-21" value="" style="sketch=0;points=[[0,0,0],[0.25,0,0],[0.5,0,0],[0.75,0,0],[1,0,0],[0,1,0],[0.25,1,0],[0.5,1,0],[0.75,1,0],[1,1,0],[0,0.25,0],[0,0.5,0],[0,0.75,0],[1,0.25,0],[1,0.5,0],[1,0.75,0]];outlineConnect=0;fontColor=#232F3E;gradientColor=#945DF2;gradientDirection=north;fillColor=#5A30B5;strokeColor=#ffffff;dashed=0;verticalLabelPosition=bottom;verticalAlign=top;align=center;fontSize=12;fontStyle=0;aspect=fixed;shape=mxgraph.aws4.resourceIcon;resIcon=mxgraph.aws4.vpc;" vertex="1" parent="VLgdbDGSNy6urQGDQPwP-18">
          <mxGeometry y="120" width="40" height="40" as="geometry" />
        </mxCell>
        <mxCell id="VLgdbDGSNy6urQGDQPwP-22" value="" style="sketch=0;points=[[0,0,0],[0.25,0,0],[0.5,0,0],[0.75,0,0],[1,0,0],[0,1,0],[0.25,1,0],[0.5,1,0],[0.75,1,0],[1,1,0],[0,0.25,0],[0,0.5,0],[0,0.75,0],[1,0.25,0],[1,0.5,0],[1,0.75,0]];outlineConnect=0;fontColor=#232F3E;gradientColor=#945DF2;gradientDirection=north;fillColor=#5A30B5;strokeColor=#ffffff;dashed=0;verticalLabelPosition=bottom;verticalAlign=top;align=center;fontSize=12;fontStyle=0;aspect=fixed;shape=mxgraph.aws4.resourceIcon;resIcon=mxgraph.aws4.direct_connect;" vertex="1" parent="VLgdbDGSNy6urQGDQPwP-18">
          <mxGeometry x="80" y="120" width="40" height="40" as="geometry" />
        </mxCell>
        <mxCell id="VLgdbDGSNy6urQGDQPwP-23" value="" style="sketch=0;points=[[0,0,0],[0.25,0,0],[0.5,0,0],[0.75,0,0],[1,0,0],[0,1,0],[0.25,1,0],[0.5,1,0],[0.75,1,0],[1,1,0],[0,0.25,0],[0,0.5,0],[0,0.75,0],[1,0.25,0],[1,0.5,0],[1,0.75,0]];outlineConnect=0;fontColor=#232F3E;gradientColor=#945DF2;gradientDirection=north;fillColor=#5A30B5;strokeColor=#ffffff;dashed=0;verticalLabelPosition=bottom;verticalAlign=top;align=center;fontSize=12;fontStyle=0;aspect=fixed;shape=mxgraph.aws4.resourceIcon;resIcon=mxgraph.aws4.route_53;" vertex="1" parent="VLgdbDGSNy6urQGDQPwP-18">
          <mxGeometry x="40" y="120" width="40" height="40" as="geometry" />
        </mxCell>
        <mxCell id="VLgdbDGSNy6urQGDQPwP-24" value="" style="sketch=0;points=[[0,0,0],[0.25,0,0],[0.5,0,0],[0.75,0,0],[1,0,0],[0,1,0],[0.25,1,0],[0.5,1,0],[0.75,1,0],[1,1,0],[0,0.25,0],[0,0.5,0],[0,0.75,0],[1,0.25,0],[1,0.5,0],[1,0.75,0]];points=[[0,0,0],[0.25,0,0],[0.5,0,0],[0.75,0,0],[1,0,0],[0,1,0],[0.25,1,0],[0.5,1,0],[0.75,1,0],[1,1,0],[0,0.25,0],[0,0.5,0],[0,0.75,0],[1,0.25,0],[1,0.5,0],[1,0.75,0]];outlineConnect=0;fontColor=#232F3E;gradientColor=#F34482;gradientDirection=north;fillColor=#BC1356;strokeColor=#ffffff;dashed=0;verticalLabelPosition=bottom;verticalAlign=top;align=center;fontSize=12;fontStyle=0;aspect=fixed;shape=mxgraph.aws4.resourceIcon;resIcon=mxgraph.aws4.chatbot;fontFamily=Rubik;" vertex="1" parent="VLgdbDGSNy6urQGDQPwP-18">
          <mxGeometry x="120" y="120" width="40" height="40" as="geometry" />
        </mxCell>
        <mxCell id="VLgdbDGSNy6urQGDQPwP-25" value="" style="outlineConnect=0;gradientColor=none;fontSize=16;fontStyle=0;strokeColor=#5C5C5C;fillColor=none;verticalAlign=top;align=center;fontColor=#90A6C2;spacingTop=3;fontFamily=Rubik;strokeWidth=2;" vertex="1" parent="VLgdbDGSNy6urQGDQPwP-18">
          <mxGeometry y="120" width="160" height="40" as="geometry" />
        </mxCell>
        <mxCell id="VLgdbDGSNy6urQGDQPwP-26" value="own deploy lifecycle" style="fontFamily=Rubik;fontSize=14;fontColor=#F8E7F5;strokeColor=#5C5C5C;strokeWidth=2;fillColor=#333333;spacingBottom=1;fontStyle=2" vertex="1" parent="VLgdbDGSNy6urQGDQPwP-18">
          <mxGeometry y="40" width="160" height="40" as="geometry" />
        </mxCell>
      </root>
    </mxGraphModel>
  </diagram>
</mxfile>
